<svg width="48" height="48" viewBox="0 0 48 48" fill="none" xmlns="http://www.w3.org/2000/svg">
<path fill-rule="evenodd" clip-rule="evenodd" d="M23.5985 0.00745898C27.2538 -0.0638921 30.8621 0.840195 34.052 2.62665C37.2418 4.4131 39.898 7.01738 41.747 10.1714C43.5957 13.3254 44.5708 16.9151 44.5714 20.5711V34.2857C44.5714 35.6496 44.0297 36.9579 43.0653 37.9224C42.1008 38.8868 40.7925 39.4286 39.4286 39.4286H34.2857V46.2857C34.2857 47.2327 33.5182 48 32.5714 48H15.4286C14.4818 48 13.7143 47.2327 13.7143 46.2857V38.3904C10.8648 36.7454 8.44668 34.4376 6.66862 31.6568C4.69914 28.5766 3.58609 25.0272 3.44412 21.3739C3.30211 17.7207 4.13628 14.0956 5.86074 10.8719C7.58521 7.6481 10.1376 4.94217 13.2553 3.03259C16.373 1.12302 19.9432 0.0788099 23.5985 0.00745898ZM12.2042 24.719C10.1461 18.9579 12.4288 12.3721 17.9154 9.20436C23.3322 6.07702 30.0728 7.31995 34.0545 11.8392C35.063 12.9839 34.8285 14.693 33.6965 15.7156C29.4231 19.5755 22.3891 24.5262 15.4806 26.3564C14.1151 26.7181 12.6794 26.0492 12.2042 24.719Z" fill="black"/>
</svg>
