<svg width="47" height="48" viewBox="0 0 47 48" fill="none" xmlns="http://www.w3.org/2000/svg">
<path fill-rule="evenodd" clip-rule="evenodd" d="M34.4021 0.959462C34.7689 0.371215 35.4543 0.0619909 36.1383 0.175979L44.9549 1.6454C45.4033 1.72015 45.8034 1.96999 46.0678 2.33996C46.3321 2.70992 46.4384 3.16972 46.3637 3.61821L44.8945 12.4347C44.7803 13.1186 44.2657 13.6666 43.5903 13.823C42.9145 13.9794 42.2113 13.7135 41.8085 13.1493L39.4307 9.82073L27.1762 17.6546C26.0954 18.3455 24.6707 18.1342 23.837 17.1593L17.0047 9.1702L4.22421 15.7367C2.96102 16.3858 1.41087 15.8879 0.761852 14.6247C0.112837 13.3615 0.61072 11.8114 1.87391 11.1624L16.4626 3.66679C17.5224 3.12225 18.8175 3.37715 19.592 4.28273L26.2914 12.1164L36.4376 5.63026L34.4614 2.86335C34.0582 2.29914 34.0349 1.54771 34.4021 0.959462ZM11.9607 17.7955L2.00994 23.4817C1.20875 23.9395 0.714298 24.7916 0.714298 25.7143V45.4286C0.714298 46.8487 1.86557 48 3.28574 48H11.9607V17.7955ZM16.2465 48H28.8205V24.6434L23.1686 27.4694L17.5184 17.5814C17.2196 17.0585 16.765 16.6803 16.2465 16.4719V48ZM42.7143 48H33.1062V22.5006L41.5643 18.2715C42.3615 17.8729 43.3081 17.9156 44.0662 18.3841C44.8242 18.8526 45.2857 19.6803 45.2857 20.5715V45.4286C45.2857 46.8487 44.1344 48 42.7143 48Z" fill="black"/>
</svg>
