<svg width="51" height="52" viewBox="0 0 51 52" fill="none" xmlns="http://www.w3.org/2000/svg">
<g clip-path="url(#clip0_110_14)">
<path fill-rule="evenodd" clip-rule="evenodd" d="M26.3995 3.52412C19.0063 3.13666 13.8126 3.10343 10.5402 3.15987C7.26703 3.21631 4.54543 5.54179 4.08302 8.82233C3.68575 11.6408 3.21991 15.9021 2.90978 21.8198L1.72428 44.4404C1.56779 47.4265 4.98596 49.221 7.35506 47.3965L14.6185 41.8026C17.2965 42.0365 20.529 42.27 24.3584 42.4707C31.7515 42.8581 36.9453 42.8914 40.2177 42.8349C43.4908 42.7785 46.2124 40.4531 46.6749 37.1725C47.0721 34.354 47.538 30.0927 47.8481 24.175C48.1582 18.2572 48.1404 13.9706 48.0399 11.126C47.9229 7.81511 45.4593 5.21788 42.21 4.81961C38.9614 4.42144 33.7926 3.91158 26.3995 3.52412ZM27.9455 29.0919C30.2252 27.9722 31.4363 26.6839 31.7338 24.4042C30.9223 24.3583 30.2552 24.3129 29.7099 24.2704C28.3832 24.167 27.4413 23.1183 27.4757 21.7881C27.4932 21.1107 27.5255 20.2529 27.5817 19.1799C27.6425 18.0214 27.7047 17.1153 27.7616 16.4169C27.8634 15.1677 28.8146 14.2658 30.0679 14.2799C30.7635 14.2878 31.6703 14.3148 32.8404 14.3761C34.0105 14.4374 34.9151 14.5053 35.6076 14.5703C36.8556 14.6871 37.7074 15.6837 37.678 16.9368C37.6617 17.6317 37.6293 18.5303 37.5695 19.6753L37.3063 24.6975L37.2834 24.6963C36.766 28.9105 33.5097 31.267 29.9123 32.1706C29.4059 32.2978 28.8598 32.1954 28.5018 31.8154C28.0864 31.3746 27.7387 30.8379 27.4869 30.3927C27.2161 29.9141 27.4518 29.3343 27.9455 29.0919ZM17.753 23.6715C17.4555 25.9512 16.2444 27.2395 13.9647 28.3592C13.471 28.6016 13.2353 29.1814 13.5061 29.66C13.7579 30.1052 14.1056 30.6419 14.521 31.0827C14.879 31.4627 15.4251 31.5651 15.9315 31.4379C19.5289 30.5343 22.7852 28.1778 23.3026 23.9636L23.3255 23.9647L23.5887 18.9426C23.6485 17.7976 23.6809 16.899 23.6972 16.2041C23.7266 14.951 22.8748 13.9544 21.6268 13.8376C20.9342 13.7726 20.0297 13.7047 18.8596 13.6434C17.6895 13.5821 16.7827 13.5551 16.0871 13.5472C14.8338 13.5331 13.8826 14.435 13.7808 15.6842C13.7239 16.3826 13.6617 17.2887 13.6009 18.4472C13.5447 19.5202 13.5124 20.378 13.4949 21.0554C13.4605 22.3856 14.4024 23.4343 15.729 23.5377C16.2744 23.5802 16.9415 23.6256 17.753 23.6715Z" fill="white"/>
</g>
<defs>
<clipPath id="clip0_110_14">
<rect width="48" height="48" fill="white" transform="translate(2.51089 0.770142) rotate(3)"/>
</clipPath>
</defs>
</svg>
