<svg width="48" height="48" viewBox="0 0 48 48" fill="none" xmlns="http://www.w3.org/2000/svg">
<path d="M33 12C33 10.4087 32.3679 8.88258 31.2426 7.75736C30.1174 6.63214 28.5913 6 27 6H12C10.4087 6 8.88258 6.63214 7.75736 7.75736C6.63214 8.88258 6 10.4087 6 12V27C6 28.5913 6.63214 30.1174 7.75736 31.2426C8.88258 32.3679 10.4087 33 12 33V21C12 18.6131 12.9482 16.3239 14.636 14.636C16.3239 12.9482 18.6131 12 21 12H33Z" fill="#061B24"/>
<path d="M36 15C37.5913 15 39.1174 15.6321 40.2426 16.7574C41.3679 17.8826 42 19.4087 42 21V36C42 37.5913 41.3679 39.1174 40.2426 40.2426C39.1174 41.3679 37.5913 42 36 42H21C19.4087 42 17.8826 41.3679 16.7574 40.2426C15.6321 39.1174 15 37.5913 15 36V21C15 19.4087 15.6321 17.8826 16.7574 16.7574C17.8826 15.6321 19.4087 15 21 15H36Z" fill="#061B24"/>
</svg>
