<svg width="125" height="125" viewBox="0 0 125 125" fill="none" xmlns="http://www.w3.org/2000/svg">
<path d="M65.5975 118.36C63.5846 119.138 61.3542 119.138 59.3413 118.36C43.6543 112.336 30.1637 101.694 20.6512 87.8421C11.1388 73.9897 6.05193 57.5778 6.06252 40.7738V14.7425C6.06252 12.4404 6.97701 10.2326 8.60483 8.60481C10.2326 6.977 12.4404 6.0625 14.7425 6.0625H110.205C112.506 6.06482 114.711 6.98034 116.337 8.6079C117.963 10.2355 118.876 12.4419 118.876 14.7425V40.7738C118.887 57.5791 113.8 73.9923 104.285 87.845C94.7712 101.698 81.2781 112.338 65.5888 118.36H65.5975Z" fill="#E9F8FE"/>
<path d="M65.5975 118.36C63.5846 119.138 61.3542 119.138 59.3413 118.36C43.6543 112.336 30.1637 101.694 20.6512 87.8421C11.1388 73.9897 6.05193 57.5778 6.06252 40.7738V14.7425C6.06252 12.4404 6.97701 10.2326 8.60483 8.60481C10.2326 6.977 12.4404 6.0625 14.7425 6.0625H110.205C112.506 6.06482 114.711 6.98034 116.337 8.6079C117.963 10.2355 118.876 12.4419 118.876 14.7425V40.7738C118.887 57.5791 113.8 73.9923 104.285 87.845C94.7712 101.698 81.2781 112.338 65.5888 118.36H65.5975Z" stroke="#27B4F2" stroke-width="2.5" stroke-linecap="round" stroke-linejoin="round"/>
<path d="M88.75 36.25L53.75 75.625L36.25 62.5" stroke="#27B4F2" stroke-width="2.5" stroke-linecap="round" stroke-linejoin="round"/>
</svg>
