<svg width="48" height="48" viewBox="0 0 48 48" fill="none" xmlns="http://www.w3.org/2000/svg">
<g clip-path="url(#clip0_114_61)">
<path fill-rule="evenodd" clip-rule="evenodd" d="M23.9897 0.0308944C21.6618 -0.00162607 19.3506 0.428802 17.1904 1.29717C15.0303 2.16554 13.0642 3.45453 11.4065 5.08926C9.74878 6.72398 8.43245 8.67184 7.53399 10.8197C6.63554 12.9675 6.17287 15.2724 6.17287 17.6006C6.17287 19.9288 6.63554 22.2337 7.53399 24.3816C8.43245 26.5294 9.74878 28.4772 11.4065 30.112C13.0642 31.7467 15.0303 33.0357 17.1904 33.904C19.3506 34.7724 21.6618 35.2028 23.9897 35.1703C28.65 35.1703 33.1193 33.3191 36.4146 30.0238C39.7099 26.7285 41.5612 22.2591 41.5612 17.5989C41.5612 12.9387 39.7099 8.4693 36.4146 5.17402C33.1193 1.87874 28.65 0.0274658 23.9897 0.0274658V0.0308944ZM24.6857 8.33832L27.0275 13.0492C27.0795 13.168 27.1622 13.2709 27.267 13.3474C27.3718 13.4239 27.495 13.4713 27.624 13.4846L32.8217 14.2732C32.9706 14.2922 33.1109 14.3533 33.2262 14.4493C33.3416 14.5453 33.4271 14.6722 33.4728 14.8151C33.5185 14.958 33.5225 15.111 33.4843 15.2561C33.4461 15.4012 33.3673 15.5324 33.2572 15.6343L29.424 19.2823C29.367 19.3913 29.3371 19.5125 29.3371 19.6355C29.3371 19.7585 29.367 19.8796 29.424 19.9886L30.1577 25.1589C30.1886 25.3078 30.1758 25.4624 30.1208 25.6042C30.0658 25.7459 29.971 25.8687 29.8478 25.9579C29.7247 26.047 29.5783 26.0986 29.4265 26.1065C29.2747 26.1144 29.1238 26.0782 28.992 26.0023L24.3635 23.5543C24.2434 23.4999 24.113 23.4717 23.9812 23.4717C23.8493 23.4717 23.719 23.4999 23.5989 23.5543L18.9703 26.0023C18.8386 26.0782 18.6877 26.1144 18.5358 26.1065C18.384 26.0986 18.2377 26.047 18.1145 25.9579C17.9913 25.8687 17.8965 25.7459 17.8415 25.6042C17.7866 25.4624 17.7737 25.3078 17.8046 25.1589L18.672 19.9886C18.7092 19.8687 18.7161 19.7415 18.6922 19.6182C18.6682 19.495 18.6142 19.3796 18.5349 19.2823L14.6983 15.6069C14.5953 15.504 14.5227 15.3746 14.4887 15.233C14.4547 15.0914 14.4606 14.9432 14.5057 14.8047C14.5508 14.6662 14.6333 14.543 14.7442 14.4485C14.855 14.3541 14.9899 14.2922 15.1337 14.2698L20.3349 13.512C20.4639 13.4987 20.5872 13.4514 20.692 13.3749C20.7968 13.2984 20.8794 13.1955 20.9315 13.0766L23.2732 8.36575C23.3355 8.23204 23.4341 8.1185 23.5577 8.03803C23.6814 7.95756 23.8251 7.91338 23.9726 7.91053C24.1201 7.90767 24.2655 7.94624 24.3921 8.02187C24.5188 8.09749 24.6217 8.20713 24.6892 8.33832H24.6857ZM42.1715 29.7258C39.2165 34.1538 34.7493 37.3534 29.6057 38.7258L34.4469 47.112C34.6162 47.4057 34.8689 47.6426 35.1728 47.7927C35.4768 47.9428 35.8185 47.9994 36.1546 47.9554C36.4907 47.9114 36.8063 47.7687 37.0613 47.5453C37.3164 47.322 37.4995 47.028 37.5875 46.7006L39.336 40.1898L45.8435 41.9349C46.1709 42.0223 46.5168 42.0107 46.8377 41.9015C47.1585 41.7924 47.4398 41.5906 47.646 41.3217C47.8521 41.0527 47.974 40.7287 47.9961 40.3906C48.0183 40.0524 47.9397 39.7153 47.7703 39.4218L42.1749 29.7258H42.1715ZM18.3909 38.7292C13.2468 37.3621 8.77714 34.1674 5.81831 29.7429L0.229738 39.4218C0.0603589 39.7153 -0.0182281 40.0524 0.00390529 40.3906C0.0260387 40.7287 0.147899 41.0527 0.354093 41.3217C0.560286 41.5906 0.84156 41.7924 1.16238 41.9015C1.4832 42.0107 1.82918 42.0223 2.1566 41.9349L8.66745 40.1898L10.4126 46.7006C10.5006 47.028 10.6837 47.322 10.9387 47.5453C11.1938 47.7687 11.5093 47.9114 11.8454 47.9554C12.1816 47.9994 12.5232 47.9428 12.8272 47.7927C13.1312 47.6426 13.3838 47.4057 13.5532 47.112L18.3909 38.7292Z" fill="black"/>
</g>
<defs>
<clipPath id="clip0_114_61">
<rect width="48" height="48" fill="white"/>
</clipPath>
</defs>
</svg>
