<svg width="610" height="500" viewBox="0 0 610 500" fill="none" xmlns="http://www.w3.org/2000/svg">
<path opacity="0.7" d="M122.93 167.09C122.93 167.09 95.05 239.09 134.23 311.59C173.41 384.09 254.11 422.39 318.7 455.14C383.29 487.89 450.36 471.94 482.23 418.3C514.1 364.66 470.39 326.37 470.33 249.88C470.27 173.39 481.78 153.14 440.33 88.5201C398.88 23.9001 297.27 9.59007 220.43 57.5201C143.59 105.45 122.93 167.09 122.93 167.09Z" fill="white"/>
<path d="M152.73 83.7801L153.29 83.2801C204.86 36.8401 273.35 34.7501 323.29 84.7301C349.29 110.78 395.48 105.8 428.52 115.22C542.4 147.71 522.7 302.28 466.43 377C415.65 444.43 305.62 459.66 231.7 426.49C166.7 397.33 121 332.21 104.7 264.12C103.073 257.287 101.74 250.393 100.7 243.44C92.16 185.47 108.61 123.9 152.73 83.7801Z" fill="#27B4F2"/>
<path opacity="0.7" d="M152.73 83.7801L153.29 83.2801C204.86 36.8401 273.35 34.7501 323.29 84.7301C349.29 110.78 395.48 105.8 428.52 115.22C542.4 147.71 522.7 302.28 466.43 377C415.65 444.43 305.62 459.66 231.7 426.49C166.7 397.33 121 332.21 104.7 264.12C103.073 257.287 101.74 250.393 100.7 243.44C92.16 185.47 108.61 123.9 152.73 83.7801Z" fill="white"/>
<mask id="mask0_168_183" style="mask-type:luminance" maskUnits="userSpaceOnUse" x="298" y="100" width="175" height="38">
<path d="M329 131.55C329 131.55 342.62 115.94 362.49 115.94C362.49 115.94 363.15 103.81 376.71 101.19C390.27 98.57 392.91 110.68 392.91 110.68C392.91 110.68 402.91 105.37 416.38 110.68C429.85 115.99 427.11 131.51 427.11 131.51C427.11 131.51 465.92 130.24 472.58 137.36H298.1C298.1 137.36 301.62 128.65 329 131.55Z" fill="white"/>
</mask>
<g mask="url(#mask0_168_183)">
<path opacity="0.5" d="M329 131.55C329 131.55 342.62 115.94 362.49 115.94C362.49 115.94 363.15 103.81 376.71 101.19C390.27 98.57 392.91 110.68 392.91 110.68C392.91 110.68 402.91 105.37 416.38 110.68C429.85 115.99 427.11 131.51 427.11 131.51C427.11 131.51 465.92 130.24 472.58 137.36H298.1C298.1 137.36 301.62 128.65 329 131.55Z" stroke="#263238" stroke-linecap="round" stroke-linejoin="round"/>
</g>
<path d="M329 131.55C329 131.55 342.62 115.94 362.49 115.94C362.49 115.94 363.15 103.81 376.71 101.19C390.27 98.57 392.91 110.68 392.91 110.68C392.91 110.68 402.91 105.37 416.38 110.68C429.85 115.99 427.11 131.51 427.11 131.51C427.11 131.51 465.92 130.24 472.58 137.36H298.1C298.1 137.36 301.62 128.65 329 131.55Z" stroke="#263238" stroke-linecap="round" stroke-linejoin="round"/>
<mask id="mask1_168_183" style="mask-type:luminance" maskUnits="userSpaceOnUse" x="380" y="209" width="140" height="30">
<path d="M495.19 233.92C495.19 233.92 484.32 221.47 468.48 221.47C468.48 221.47 467.95 211.8 457.14 209.71C446.33 207.62 444.22 217.28 444.22 217.28C444.22 217.28 436.22 213.04 425.5 217.28C414.78 221.52 416.94 233.89 416.94 233.89C416.94 233.89 385.94 232.89 380.67 238.56H519.81C519.81 238.56 517 231.61 495.19 233.92Z" fill="white"/>
</mask>
<g mask="url(#mask1_168_183)">
<path opacity="0.5" d="M495.19 233.92C495.19 233.92 484.32 221.47 468.48 221.47C468.48 221.47 467.95 211.8 457.14 209.71C446.33 207.62 444.22 217.28 444.22 217.28C444.22 217.28 436.22 213.04 425.5 217.28C414.78 221.52 416.94 233.89 416.94 233.89C416.94 233.89 385.94 232.89 380.67 238.56H519.81C519.81 238.56 517 231.61 495.19 233.92Z" stroke="#263238" stroke-linecap="round" stroke-linejoin="round"/>
</g>
<path d="M495.19 233.92C495.19 233.92 484.32 221.47 468.48 221.47C468.48 221.47 467.95 211.8 457.14 209.71C446.33 207.62 444.22 217.28 444.22 217.28C444.22 217.28 436.22 213.04 425.5 217.28C414.78 221.52 416.94 233.89 416.94 233.89C416.94 233.89 385.94 232.89 380.67 238.56H519.81C519.81 238.56 517 231.61 495.19 233.92Z" stroke="#263238" stroke-linecap="round" stroke-linejoin="round"/>
<mask id="mask2_168_183" style="mask-type:luminance" maskUnits="userSpaceOnUse" x="111" y="145" width="83" height="19">
<path d="M126 160.4C126 160.4 132.44 153 141.85 153C142.029 151.249 142.789 149.609 144.009 148.34C145.228 147.071 146.838 146.248 148.58 146C155.01 144.76 156.26 150.49 156.26 150.49C158.016 149.734 159.908 149.345 161.82 149.345C163.732 149.345 165.624 149.734 167.38 150.49C173.75 153.01 172.46 160.36 172.46 160.36C172.46 160.36 190.85 159.76 194 163.13H111.36C111.36 163.13 113 159 126 160.4Z" fill="white"/>
</mask>
<g mask="url(#mask2_168_183)">
<path opacity="0.5" d="M126 160.4C126 160.4 132.44 153 141.85 153C142.029 151.249 142.789 149.609 144.009 148.34C145.228 147.071 146.838 146.248 148.58 146C155.01 144.76 156.26 150.49 156.26 150.49C158.016 149.734 159.908 149.345 161.82 149.345C163.732 149.345 165.624 149.734 167.38 150.49C173.75 153.01 172.46 160.36 172.46 160.36C172.46 160.36 190.85 159.76 194 163.13H111.36C111.36 163.13 113 159 126 160.4Z" stroke="#263238" stroke-linecap="round" stroke-linejoin="round"/>
</g>
<path d="M126 160.4C126 160.4 132.44 153 141.85 153C142.029 151.249 142.789 149.609 144.009 148.34C145.228 147.071 146.838 146.248 148.58 146C155.01 144.76 156.26 150.49 156.26 150.49C158.016 149.734 159.908 149.345 161.82 149.345C163.732 149.345 165.624 149.734 167.38 150.49C173.75 153.01 172.46 160.36 172.46 160.36C172.46 160.36 190.85 159.76 194 163.13H111.36C111.36 163.13 113 159 126 160.4Z" stroke="#263238" stroke-linecap="round" stroke-linejoin="round"/>
<path d="M84.53 441.07C84.53 441.07 93.23 424.07 113.01 427.22C113.915 425.016 115.546 423.188 117.631 422.037C119.717 420.886 122.133 420.481 124.48 420.89C124.48 420.89 119.34 406.65 132.79 396C146.24 385.35 164.49 394.41 164.49 394.41C164.49 394.41 163.34 386.41 170.81 383.51L285.92 387.33C285.92 387.33 298.55 390.85 301.32 402.72C301.32 402.72 312.4 396.39 326.24 402.72C340.08 409.05 340.09 424.88 340.09 424.88C340.09 424.88 355.8 423.29 357.09 444.77C357.09 444.77 367.03 432.22 381.62 444.77" fill="white"/>
<path d="M84.53 441.07C84.53 441.07 93.23 424.07 113.01 427.22C113.915 425.016 115.546 423.188 117.631 422.037C119.717 420.886 122.133 420.481 124.48 420.89C124.48 420.89 119.34 406.65 132.79 396C146.24 385.35 164.49 394.41 164.49 394.41C164.49 394.41 163.34 386.41 170.81 383.51L285.92 387.33C285.92 387.33 298.55 390.85 301.32 402.72C301.32 402.72 312.4 396.39 326.24 402.72C340.08 409.05 340.09 424.88 340.09 424.88C340.09 424.88 355.8 423.29 357.09 444.77C357.09 444.77 367.03 432.22 381.62 444.77" stroke="#263238" stroke-linecap="round" stroke-linejoin="round"/>
<path d="M120.53 447.79C120.231 448.442 119.967 449.11 119.74 449.79" stroke="#263238" stroke-linecap="round" stroke-linejoin="round"/>
<path d="M167.17 408.48C163.85 409.8 160.56 412.43 158.11 417.33C158.11 417.33 151.46 414.46 147.82 419.7C144.18 424.94 150.2 430.38 150.2 430.38C150.2 430.38 141.89 431.97 141.49 439.48C141.49 439.48 133 437.06 126.28 441.17" stroke="#263238" stroke-linecap="round" stroke-linejoin="round"/>
<path d="M174.63 407.33C173.293 407.259 171.953 407.326 170.63 407.53" stroke="#263238" stroke-linecap="round" stroke-linejoin="round"/>
<path d="M251.18 392.28L248.49 383.48H208.75L201.92 398.74C201.92 398.74 184.62 393.59 181.05 408.63C180.528 408.423 179.994 408.25 179.45 408.11" stroke="#263238" stroke-linecap="round" stroke-linejoin="round"/>
<path d="M301.57 415.06C296.26 418.29 295 424.45 295 424.45C290.26 416.54 282.33 421.29 282.33 421.29C282.33 421.29 281.14 407.44 272.04 402.29C266.397 399.238 259.79 398.496 253.61 400.22L252 395.05" stroke="#263238" stroke-linecap="round" stroke-linejoin="round"/>
<path d="M335 441.19C332.1 438.52 327.81 438.69 327.81 438.69C327.81 438.69 332.96 419.31 315.55 414.16C310.35 412.63 306.42 412.93 303.46 414.11" stroke="#263238" stroke-linecap="round" stroke-linejoin="round"/>
<path d="M337.62 447.79C337.62 446.758 337.476 445.732 337.19 444.74" stroke="#263238" stroke-linecap="round" stroke-linejoin="round"/>
<path d="M288.6 387.3H248.49L258.49 368.6H278.6L288.6 387.3Z" fill="#757575" stroke="#263238" stroke-linecap="round" stroke-linejoin="round"/>
<path d="M204.6 387.3H164.49L174.49 368.6H194.6L204.6 387.3Z" fill="#757575" stroke="#263238" stroke-linecap="round" stroke-linejoin="round"/>
<path d="M253.6 387.3H199.49L209.49 368.6H243.6L253.6 387.3Z" fill="#999999" stroke="#263238" stroke-linecap="round" stroke-linejoin="round"/>
<path d="M285.92 369.94H251.18V186.94C251.178 165.543 257.197 144.577 268.55 126.44C279.903 144.577 285.923 165.543 285.92 186.94V369.94Z" fill="#27B4F2"/>
<mask id="mask3_168_183" style="mask-type:luminance" maskUnits="userSpaceOnUse" x="251" y="126" width="35" height="244">
<path d="M285.92 369.94H251.18V186.94C251.178 165.543 257.197 144.577 268.55 126.44C279.903 144.577 285.923 165.543 285.92 186.94V369.94Z" fill="white"/>
</mask>
<g mask="url(#mask3_168_183)">
<path opacity="0.3" d="M285.8 182C285.87 183.62 285.92 185.25 285.92 186.88V369.94H251.18V186.94C251.18 185.31 251.18 183.68 251.29 182.06L285.8 182Z" fill="white"/>
<path opacity="0.2" d="M262.43 188.2V369.94H251.18V186.94C251.165 173.473 253.535 160.11 258.18 147.47C260.985 160.866 262.41 174.514 262.43 188.2Z" fill="black"/>
<path opacity="0.2" d="M285.92 186.89V369.94H281.25V188.88C281.25 167.409 276.931 146.157 268.55 126.39C279.903 144.527 285.923 165.493 285.92 186.89Z" fill="black"/>
</g>
<path d="M285.92 369.94H251.18V186.94C251.178 165.543 257.197 144.577 268.55 126.44C279.903 144.577 285.923 165.543 285.92 186.94V369.94Z" stroke="#263238" stroke-linecap="round" stroke-linejoin="round"/>
<path d="M201.92 369.94H167.18V186.94C167.178 165.543 173.197 144.577 184.55 126.44C195.903 144.577 201.923 165.543 201.92 186.94V369.94Z" fill="#27B4F2"/>
<mask id="mask4_168_183" style="mask-type:luminance" maskUnits="userSpaceOnUse" x="167" y="126" width="35" height="244">
<path d="M201.92 369.94H167.18V186.94C167.178 165.543 173.197 144.577 184.55 126.44C195.903 144.577 201.923 165.543 201.92 186.94V369.94Z" fill="white"/>
</mask>
<g mask="url(#mask4_168_183)">
<path opacity="0.3" d="M201.78 181.62C201.86 183.37 201.92 185.13 201.92 186.89V369.94H167.18V186.94C167.18 185.18 167.24 183.42 167.32 181.67L201.78 181.62Z" fill="white"/>
<path opacity="0.2" d="M197.49 155.41C200.431 165.645 201.922 176.241 201.92 186.89V369.94H190.66V188.2C190.661 180.141 191.148 172.09 192.12 164.09C192.787 158.497 193.703 152.94 194.87 147.42C195.84 150.05 196.72 152.71 197.49 155.41Z" fill="black"/>
<path opacity="0.2" d="M184.55 126.39C176.161 146.155 171.838 167.408 171.84 188.88V369.94H167.18V186.94C167.168 165.526 173.188 144.541 184.55 126.39Z" fill="black"/>
</g>
<path d="M201.92 369.94H167.18V186.94C167.178 165.543 173.197 144.577 184.55 126.44C195.903 144.577 201.923 165.543 201.92 186.94V369.94Z" stroke="#263238" stroke-linecap="round" stroke-linejoin="round"/>
<path d="M285.8 181.88H251.58" stroke="#263238" stroke-linecap="round" stroke-linejoin="round"/>
<path d="M251.17 220.61H285.91V218.01H251.17V220.61Z" stroke="#263238" stroke-linecap="round" stroke-linejoin="round"/>
<path d="M251.18 294.5H285.8V287.91H251.18V294.5Z" stroke="#263238" stroke-linecap="round" stroke-linejoin="round"/>
<path d="M167.29 181.88H201.52" stroke="#263238" stroke-linecap="round" stroke-linejoin="round"/>
<path d="M201.92 218.01H167.18V220.61H201.92V218.01Z" stroke="#263238" stroke-linecap="round" stroke-linejoin="round"/>
<path d="M201.91 287.9H167.29V294.49H201.91V287.9Z" stroke="#263238" stroke-linecap="round" stroke-linejoin="round"/>
<path d="M251.58 369.94H201.52V106.15C201.509 75.3168 210.172 45.1024 226.52 18.96C242.862 45.1013 251.525 75.3108 251.52 106.14L251.58 369.94Z" fill="#27B4F2"/>
<mask id="mask5_168_183" style="mask-type:luminance" maskUnits="userSpaceOnUse" x="201" y="18" width="51" height="352">
<path d="M251.58 369.94H201.52V106.15C201.509 75.3168 210.172 45.1024 226.52 18.96C242.862 45.1013 251.525 75.3108 251.52 106.14L251.58 369.94Z" fill="white"/>
</mask>
<g mask="url(#mask5_168_183)">
<path opacity="0.2" d="M251.11 93.79H202C203.997 67.2381 212.423 41.5704 226.55 19C240.686 41.5816 249.115 67.2636 251.11 93.83V93.79Z" fill="black" fill-opacity="0.7"/>
<g opacity="0.2">
<path d="M235.64 369.94H217.45V114.33C217.45 84.4501 220.6 55.1701 226.55 29.8401C232.49 55.1701 235.64 84.4501 235.64 114.32V369.94Z" fill="white"/>
</g>
<path opacity="0.2" d="M251.06 327.47V369.94H201.92V327.59C203.726 325.821 205.342 323.867 206.74 321.76V263.43C206.74 243.25 214.74 232.1 226.55 232.1C238.36 232.1 246.36 243.25 246.36 263.43V321.76C247.721 323.824 249.297 325.738 251.06 327.47Z" fill="black"/>
</g>
<path d="M251.58 369.94H201.52V106.15C201.509 75.3168 210.172 45.1024 226.52 18.96C242.862 45.1013 251.525 75.3108 251.52 106.14L251.58 369.94Z" stroke="#263238" stroke-linecap="round" stroke-linejoin="round"/>
<path d="M251.58 137.31H201.52V144.04H251.58V137.31Z" stroke="#263238" stroke-linecap="round" stroke-linejoin="round"/>
<path d="M251.58 195.86H201.52V220.61H251.58V195.86Z" stroke="#263238" stroke-linecap="round" stroke-linejoin="round"/>
<path d="M251.58 313.15H201.52V333.13H251.58V313.15Z" stroke="#263238" stroke-linecap="round" stroke-linejoin="round"/>
<path d="M244.37 324.33V297.09H238.83V363.66H266.26V351.23C266.26 349.655 265.887 348.102 265.173 346.697C264.459 345.293 263.423 344.078 262.15 343.15L249.1 333.63C247.635 332.561 246.444 331.162 245.622 329.546C244.8 327.93 244.371 326.143 244.37 324.33Z" fill="#27B4F2" stroke="#263238" stroke-linecap="round" stroke-linejoin="round"/>
<path d="M208.72 324.33V297.09H214.26V363.66H186.83V351.23C186.83 349.655 187.203 348.102 187.917 346.697C188.631 345.293 189.667 344.078 190.94 343.15L204 333.63C205.463 332.561 206.654 331.161 207.474 329.545C208.294 327.929 208.721 326.142 208.72 324.33Z" fill="#27B4F2" stroke="#263238" stroke-linecap="round" stroke-linejoin="round"/>
<path d="M186.83 357.86H266.26" stroke="#263238" stroke-linecap="round" stroke-linejoin="round"/>
<path d="M235.31 369.94H217.79L214.79 361.24H238.31L235.31 369.94Z" fill="#27B4F2" stroke="#263238" stroke-linecap="round" stroke-linejoin="round"/>
<path d="M244.45 263.55V363.66H208.85V263.55C208.864 253.67 212.144 244.072 218.18 236.25C219.182 234.958 220.466 233.913 221.934 233.194C223.402 232.475 225.015 232.101 226.65 232.101C228.285 232.101 229.898 232.475 231.366 233.194C232.834 233.913 234.118 234.958 235.12 236.25C236.86 238.503 238.381 240.917 239.66 243.46C240.59 245.287 241.389 247.179 242.05 249.12C243.639 253.765 244.45 258.641 244.45 263.55Z" fill="white"/>
<mask id="mask6_168_183" style="mask-type:luminance" maskUnits="userSpaceOnUse" x="208" y="232" width="37" height="132">
<path d="M244.45 263.55V363.66H208.85V263.55C208.864 253.67 212.144 244.072 218.18 236.25C219.182 234.958 220.466 233.913 221.934 233.194C223.402 232.475 225.015 232.101 226.65 232.101C228.285 232.101 229.898 232.475 231.366 233.194C232.834 233.913 234.118 234.958 235.12 236.25C236.86 238.503 238.381 240.917 239.66 243.46C240.59 245.287 241.389 247.179 242.05 249.12C243.639 253.765 244.45 258.641 244.45 263.55Z" fill="white"/>
</mask>
<g mask="url(#mask6_168_183)">
<path opacity="0.3" d="M244.35 263.55V363.66H235.55V266.16C235.556 261.447 235.155 256.743 234.35 252.1C234.023 250.213 233.623 248.377 233.15 246.59C232.545 244.21 231.786 241.872 230.88 239.59C229.81 236.89 228.23 235.59 226.65 235.59C225.07 235.59 223.48 236.94 222.41 239.59C221.513 241.875 220.755 244.213 220.14 246.59C218.524 252.987 217.721 259.562 217.75 266.16V363.66H208.75V263.55C208.764 253.67 212.044 244.072 218.08 236.25C219.082 234.958 220.366 233.913 221.834 233.194C223.302 232.475 224.915 232.101 226.55 232.101C228.185 232.101 229.798 232.475 231.266 233.194C232.734 233.913 234.018 234.958 235.02 236.25C236.76 238.503 238.281 240.917 239.56 243.46C240.49 245.287 241.289 247.179 241.95 249.12C243.539 253.765 244.35 258.641 244.35 263.55Z" fill="#27B4F2"/>
</g>
<path d="M244.45 263.55V363.66H208.85V263.55C208.864 253.67 212.144 244.072 218.18 236.25C219.182 234.958 220.466 233.913 221.934 233.194C223.402 232.475 225.015 232.101 226.65 232.101C228.285 232.101 229.898 232.475 231.366 233.194C232.834 233.913 234.118 234.958 235.12 236.25C236.86 238.503 238.381 240.917 239.66 243.46C240.59 245.287 241.389 247.179 242.05 249.12C243.639 253.765 244.45 258.641 244.45 263.55Z" stroke="#263238" stroke-linecap="round" stroke-linejoin="round"/>
<path d="M234 262.39C231.09 253.53 221.94 253.53 219 262.39L215.72 260.39C219.9 247.66 233.05 247.66 237.24 260.39L234 262.39Z" fill="white"/>
<path d="M234 262.39C231.09 253.53 221.94 253.53 219 262.39L215.72 260.39C219.9 247.66 233.05 247.66 237.24 260.39L234 262.39Z" fill="#BFBFBF" stroke="#263238" stroke-miterlimit="10"/>
<path d="M239.56 243.46H213.56C214.839 240.917 216.36 238.503 218.1 236.25C219.102 234.958 220.386 233.913 221.854 233.194C223.322 232.475 224.935 232.101 226.57 232.101C228.205 232.101 229.818 232.475 231.286 233.194C232.754 233.913 234.038 234.958 235.04 236.25C236.773 238.503 238.287 240.918 239.56 243.46Z" fill="#27B4F2" stroke="#263238" stroke-linecap="round" stroke-linejoin="round"/>
<path d="M373.49 371.2C373.89 387.2 365.98 385.89 365.98 385.89C365.145 384.051 364.141 382.293 362.98 380.64C358.84 374.27 352.5 365.34 354.88 360.05C356.434 356.893 358.202 353.846 360.17 350.93C364.41 344.43 369.28 337.86 369.28 337.86L348.16 334.36C348.16 334.36 333.16 340.58 321.25 341.3H320.33C309.49 341.51 311.24 333.01 311.24 330.3C311.24 329.13 314.17 326.99 317.6 324.88C322.49 321.88 328.42 318.93 328.42 318.93L325.21 312.28C323.365 312.652 321.475 312.754 319.6 312.58C311.38 311.68 312.51 303.58 313.84 300.06C314.22 299.06 316.11 297.52 318.78 295.76C327.23 290.19 343.41 282.43 343.41 282.43H367.14L390.49 346.17C390.49 346.17 373.1 355.22 373.49 371.2Z" fill="white"/>
<path opacity="0.4" d="M373.49 371.2C373.89 387.2 365.98 385.89 365.98 385.89C365.145 384.051 364.141 382.293 362.98 380.64C358.84 374.27 352.5 365.34 354.88 360.05C356.434 356.893 358.202 353.846 360.17 350.93C364.41 344.43 369.28 337.86 369.28 337.86L348.16 334.36C348.16 334.36 333.16 340.58 321.25 341.3H320.33C309.49 341.51 311.24 333.01 311.24 330.3C311.24 329.13 314.17 326.99 317.6 324.88C322.49 321.88 328.42 318.93 328.42 318.93L325.21 312.28C323.365 312.652 321.475 312.754 319.6 312.58C311.38 311.68 312.51 303.58 313.84 300.06C314.22 299.06 316.11 297.52 318.78 295.76C327.23 290.19 343.41 282.43 343.41 282.43H367.14L390.49 346.17C390.49 346.17 373.1 355.22 373.49 371.2Z" fill="#27B4F2"/>
<path opacity="0.4" d="M373.49 371.2C373.89 387.2 365.98 385.89 365.98 385.89C365.145 384.051 364.141 382.293 362.98 380.64C363.281 379.109 363.425 377.55 363.41 375.99C363.31 370.52 358.82 360.05 358.82 360.05L363.41 352.79C362.466 351.959 361.364 351.326 360.17 350.93C364.41 344.43 369.28 337.86 369.28 337.86L348.16 334.36C348.16 334.36 333.16 340.58 321.25 341.3H320.33C321.02 335.35 318.67 327.85 317.6 324.85C322.49 321.85 328.42 318.9 328.42 318.9L325.21 312.25C323.365 312.622 321.475 312.723 319.6 312.55C320.68 307.36 319.65 300.16 318.78 295.73C327.23 290.16 343.41 282.4 343.41 282.4H367.14L390.49 346.14C390.49 346.14 373.1 355.22 373.49 371.2Z" fill="#27B4F2"/>
<path d="M367.16 282.43H343.43C343.43 282.43 315.43 295.86 313.86 300.06C312.29 304.26 310.99 314.84 325.23 312.28L328.44 318.93C328.44 318.93 311.26 327.47 311.26 330.3C311.26 333.13 309.41 342.01 321.26 341.3C333.11 340.59 348.17 334.36 348.17 334.36L369.29 337.86C369.29 337.86 358.07 353 354.9 360.05C351.73 367.1 364 380.57 366 385.89C366 385.89 373.91 387.18 373.51 371.2C373.11 355.22 390.51 346.2 390.51 346.2" stroke="#263238" stroke-linecap="round" stroke-linejoin="round"/>
<path d="M361.54 357.2C361.54 357.2 367.49 353.87 370.73 360.05" stroke="#263238" stroke-linecap="round" stroke-linejoin="round"/>
<path d="M369.59 185.61H371.86C372.181 185.61 372.489 185.738 372.716 185.965C372.943 186.191 373.07 186.499 373.07 186.82V235.52H368.38V186.82C368.38 186.661 368.411 186.504 368.472 186.357C368.533 186.21 368.622 186.077 368.734 185.965C368.847 185.852 368.98 185.763 369.127 185.702C369.274 185.641 369.431 185.61 369.59 185.61Z" fill="#263238"/>
<path d="M372.18 133.2H369.26V188.01H372.18V133.2Z" fill="#263238"/>
<path d="M372.62 127.77H368.82V135.2H372.62V127.77Z" fill="#757575" stroke="#263238" stroke-linecap="round" stroke-linejoin="round"/>
<path opacity="0.3" d="M369.76 222.76V223.75" stroke="white" stroke-linecap="round" stroke-linejoin="round"/>
<path opacity="0.3" d="M371.69 187.09H369.76V220.38" stroke="white" stroke-linecap="round" stroke-linejoin="round"/>
<path opacity="0.3" d="M370.53 168.49V170.34" stroke="white" stroke-linecap="round" stroke-linejoin="round"/>
<path opacity="0.3" d="M370.53 136.85V164.67" stroke="white" stroke-linecap="round" stroke-linejoin="round"/>
<path d="M411.77 232.82H329.68C326.676 232.82 324.24 235.256 324.24 238.26V335.74C324.24 338.744 326.676 341.18 329.68 341.18H411.77C414.774 341.18 417.21 338.744 417.21 335.74V238.26C417.21 235.256 414.774 232.82 411.77 232.82Z" fill="#757575"/>
<mask id="mask7_168_183" style="mask-type:luminance" maskUnits="userSpaceOnUse" x="324" y="232" width="94" height="110">
<path d="M411.77 232.82H329.68C326.676 232.82 324.24 235.256 324.24 238.26V335.74C324.24 338.744 326.676 341.18 329.68 341.18H411.77C414.774 341.18 417.21 338.744 417.21 335.74V238.26C417.21 235.256 414.774 232.82 411.77 232.82Z" fill="white"/>
</mask>
<g mask="url(#mask7_168_183)">
<path opacity="0.2" d="M327.6 321.74V239.38C327.599 238.874 327.697 238.372 327.89 237.904C328.083 237.435 328.366 237.01 328.724 236.651C329.082 236.293 329.507 236.008 329.974 235.814C330.442 235.62 330.944 235.52 331.45 235.52H406.94C407.105 235.521 407.267 235.478 407.409 235.396C407.552 235.313 407.669 235.194 407.75 235.05C407.826 234.91 407.865 234.752 407.862 234.592C407.859 234.433 407.814 234.276 407.733 234.139C407.651 234.002 407.535 233.888 407.396 233.81C407.257 233.731 407.1 233.69 406.94 233.69H330C328.822 233.69 327.693 234.158 326.86 234.99C326.028 235.823 325.56 236.952 325.56 238.13V322C325.557 322.191 325.615 322.378 325.724 322.535C325.833 322.691 325.989 322.809 326.17 322.873C326.35 322.936 326.545 322.94 326.729 322.886C326.912 322.832 327.073 322.721 327.19 322.57L327.37 322.33C327.516 322.168 327.598 321.958 327.6 321.74Z" fill="white"/>
<path opacity="0.4" d="M417.21 238.26V335.74C417.21 337.183 416.637 338.567 415.617 339.587C414.597 340.607 413.213 341.18 411.77 341.18H329.68C328.404 341.18 327.168 340.73 326.19 339.91C327.587 338.877 329.117 338.04 330.74 337.42H362.02H409.84C410.901 337.42 411.918 336.999 412.668 336.248C413.419 335.498 413.84 334.481 413.84 333.42V240.25C414.608 238.775 415.623 237.443 416.84 236.31C417.086 236.931 417.211 237.593 417.21 238.26Z" fill="black" fill-opacity="0.7"/>
<path opacity="0.2" d="M417.21 313.55V335.74C417.21 337.183 416.637 338.566 415.617 339.587C414.597 340.607 413.213 341.18 411.77 341.18H362.59L362.02 337.44C362.42 335.89 362.02 329.05 362.02 329.05C358.86 320.62 362.02 307.97 362.02 307.97L381.87 295.69C381.87 295.69 395.25 303 397.82 305.69C400.39 308.38 402.37 325.34 402.37 325.34C405.02 324.71 409.64 320.82 413.85 316.81C415 315.73 416.16 314.61 417.21 313.55Z" fill="black" fill-opacity="0.7"/>
</g>
<path d="M411.77 232.82H329.68C326.676 232.82 324.24 235.256 324.24 238.26V335.74C324.24 338.744 326.676 341.18 329.68 341.18H411.77C414.774 341.18 417.21 338.744 417.21 335.74V238.26C417.21 235.256 414.774 232.82 411.77 232.82Z" stroke="#263238" stroke-linecap="round" stroke-linejoin="round"/>
<path d="M413.85 320.57V323.54" stroke="#263238" stroke-linecap="round" stroke-linejoin="round"/>
<path d="M358.84 236.52H410.12C411.109 236.52 412.058 236.913 412.757 237.613C413.457 238.312 413.85 239.261 413.85 240.25V316.62" stroke="#263238" stroke-linecap="round" stroke-linejoin="round"/>
<path d="M327.6 253.68V240.25C327.6 239.261 327.993 238.312 328.692 237.613C329.392 236.913 330.341 236.52 331.33 236.52H347.77" stroke="#263238" stroke-linecap="round" stroke-linejoin="round"/>
<path d="M327.6 262.78V260.21" stroke="#263238" stroke-linecap="round" stroke-linejoin="round"/>
<path d="M344 337.48H331.33C330.341 337.48 329.392 337.087 328.692 336.388C327.993 335.688 327.6 334.739 327.6 333.75V267.75" stroke="#263238" stroke-linecap="round" stroke-linejoin="round"/>
<path d="M413.85 333.75C413.85 334.739 413.457 335.688 412.758 336.388C412.058 337.087 411.109 337.48 410.12 337.48H347.77" stroke="#263238" stroke-linecap="round" stroke-linejoin="round"/>
<path d="M370.73 314.5C381.119 314.5 389.54 306.079 389.54 295.69C389.54 285.302 381.119 276.88 370.73 276.88C360.342 276.88 351.92 285.302 351.92 295.69C351.92 306.079 360.342 314.5 370.73 314.5Z" fill="#27B4F2"/>
<mask id="mask8_168_183" style="mask-type:luminance" maskUnits="userSpaceOnUse" x="351" y="276" width="39" height="39">
<path d="M370.73 314.5C381.119 314.5 389.54 306.079 389.54 295.69C389.54 285.302 381.119 276.88 370.73 276.88C360.342 276.88 351.92 285.302 351.92 295.69C351.92 306.079 360.342 314.5 370.73 314.5Z" fill="white"/>
</mask>
<g mask="url(#mask8_168_183)">
<path opacity="0.2" d="M389.54 295.69C389.541 299.354 388.472 302.938 386.464 306.003C384.457 309.068 381.598 311.48 378.238 312.942C374.879 314.405 371.166 314.854 367.554 314.236C363.943 313.617 360.591 311.957 357.91 309.46C358.568 308.197 359.493 307.091 360.62 306.22C360.62 306.22 371.51 315.54 381.46 305.58C388.91 298.12 382.46 287 382.46 287C382.46 287 383.46 285.92 386.46 285.43C388.462 288.478 389.532 292.044 389.54 295.69Z" fill="black" fill-opacity="0.7"/>
<path opacity="0.2" d="M359.7 299.93C359.494 300.018 359.263 300.027 359.05 299.955C358.838 299.883 358.66 299.735 358.55 299.54C358.329 299.201 358.195 298.813 358.16 298.41C356.88 290.41 361.11 282.85 369.64 282.14C371.23 282 375.31 282.14 374.73 284.74C374.485 285.57 373.944 286.282 373.21 286.74C370.696 288.337 368.266 290.062 365.93 291.91C364.776 292.886 363.766 294.021 362.93 295.28C362.5 295.92 361.06 299.37 359.7 299.93Z" fill="black" fill-opacity="0.7"/>
</g>
<path d="M370.73 314.5C381.119 314.5 389.54 306.079 389.54 295.69C389.54 285.302 381.119 276.88 370.73 276.88C360.342 276.88 351.92 285.302 351.92 295.69C351.92 306.079 360.342 314.5 370.73 314.5Z" stroke="#263238" stroke-linecap="round" stroke-linejoin="round"/>
<path d="M356.12 295.69C356.12 293.772 356.498 291.873 357.232 290.101C357.967 288.329 359.043 286.719 360.4 285.363C361.757 284.007 363.367 282.932 365.14 282.199C366.912 281.465 368.812 281.089 370.73 281.09" stroke="#263238" stroke-linecap="round" stroke-linejoin="round"/>
<path d="M366.91 309.78C364.301 309.075 361.939 307.659 360.086 305.69C358.234 303.722 356.965 301.278 356.42 298.63" stroke="#263238" stroke-linecap="round" stroke-linejoin="round"/>
<path d="M380.07 284.47C382.376 286.39 384.034 288.974 384.82 291.87C385.605 294.767 385.478 297.834 384.457 300.656C383.437 303.478 381.571 305.917 379.115 307.641C376.659 309.365 373.731 310.29 370.73 310.29" stroke="#263238" stroke-linecap="round" stroke-linejoin="round"/>
<path d="M373.67 281.38C374.88 281.627 376.054 282.031 377.16 282.58" stroke="#263238" stroke-linecap="round" stroke-linejoin="round"/>
<path d="M357.31 253.22C359.25 253.22 360.25 254.38 360.25 256.4V256.8H358.37V256.28C358.37 255.37 358 255.03 357.37 255.03C356.74 255.03 356.37 255.37 356.37 256.28C356.37 257.19 356.77 257.89 358.08 259.03C359.74 260.5 360.27 261.55 360.27 263.03C360.27 265.03 359.27 266.21 357.27 266.21C355.27 266.21 354.27 265.05 354.27 263.03V262.25H356.15V263.15C356.15 264.06 356.55 264.38 357.15 264.38C357.75 264.38 358.15 264.06 358.15 263.15C358.15 262.24 357.76 261.54 356.45 260.4C354.79 258.93 354.26 257.88 354.26 256.4C354.38 254.38 355.38 253.22 357.31 253.22Z" fill="white"/>
<path d="M360.83 253.36H367V255.17H364.9V266H362.9V255.17H360.82L360.83 253.36Z" fill="white"/>
<path d="M373.61 266H371.61L371.27 263.7H368.82L368.48 266H366.65L368.65 253.32H371.56L373.61 266ZM369.07 262H371L370.06 255.59L369.07 262Z" fill="white"/>
<path d="M378.7 266C378.535 265.498 378.474 264.967 378.52 264.44V262.44C378.52 261.26 378.12 260.83 377.22 260.83H376.53V266H374.53V253.36H377.53C379.6 253.36 380.53 254.36 380.53 256.28V257.28C380.6 257.79 380.512 258.308 380.278 258.766C380.044 259.224 379.674 259.599 379.22 259.84C380.22 260.26 380.54 261.2 380.54 262.52V264.52C380.504 265.043 380.579 265.568 380.76 266.06L378.7 266ZM376.53 255.13V259.03H377.31C378.05 259.03 378.5 258.7 378.5 257.69V256.44C378.5 255.53 378.2 255.13 377.5 255.13H376.53Z" fill="white"/>
<path d="M381.24 253.36H387.4V255.17H385.31V266H383.31V255.17H381.23L381.24 253.36Z" fill="white"/>
<path d="M428.48 262.67C428.48 262.67 420.57 265.12 417.8 271.99" stroke="#263238" stroke-linecap="round" stroke-linejoin="round"/>
<path d="M464.34 480.63C463.45 465.34 462.87 449.72 462.11 437.15C460.53 411.08 459.34 393.59 456.97 375.79C454.6 357.99 454.97 331.1 453.8 321.71C452.63 312.32 449.08 310.33 446.29 299.17C443.5 288.01 440.98 265.79 436.4 262.67C431.82 259.55 417.8 253.67 417.8 253.67V316.61C409.49 329.38 399.6 332.54 399.6 332.54C393.27 314.22 394.07 306.95 387.74 300.22C381.41 293.49 376.85 284.7 366.91 288.38C362.18 290.13 359.65 291.91 362.02 307.96C364.39 324.01 369.14 329.04 369.14 329.04C369.93 334.52 368.75 350.46 366.77 358.62C364.79 366.78 372.31 388.44 375.87 402.29C379.43 416.14 398.42 444.19 398.42 444.19C398.846 454.756 398.582 465.338 397.63 475.87C397.48 477.36 397.3 478.95 397.09 480.62C397.09 480.62 405.82 494.07 415.16 494.07C450.24 494.08 464.34 480.63 464.34 480.63Z" fill="white"/>
<path opacity="0.4" d="M363.43 293.11C363.796 292.195 363.796 291.175 363.43 290.26C364.454 289.411 365.637 288.776 366.91 288.39C376.85 284.71 381.41 293.51 387.74 300.23C388.31 300.832 388.841 301.47 389.33 302.14C383.6 299.98 376.09 300.02 373.07 304.21C369.27 309.46 361.53 300 363.43 293.11Z" fill="#27B4F2"/>
<path opacity="0.4" d="M406.36 465.19L409.49 476.92C409.49 476.92 405.08 472.6 398.49 462.12C398.81 451.89 398.42 444.2 398.42 444.2C398.42 444.2 379.42 416.14 375.87 402.3C372.32 388.46 364.79 366.78 366.77 358.63C368.75 350.48 369.93 334.53 369.14 329.05C368.211 327.907 367.437 326.646 366.84 325.3C367.66 324.449 368.697 323.84 369.84 323.54C373.127 332.438 374.441 341.944 373.69 351.4C372.46 367.22 375.17 368.54 380.41 389.11C385.65 409.68 394.35 432.97 398.41 437.11C402.47 441.25 404.28 460.15 406.36 465.19Z" fill="#27B4F2"/>
<path opacity="0.4" d="M413.85 326.6C413.85 326.6 420.09 327.6 422.6 329.05C422.6 329.05 410.42 332.23 409.6 335.62C408.78 339.01 406.2 342.53 401.6 338.39C401.6 338.39 401.36 335.8 400.88 332.04C403.82 330.73 411.29 326.62 417.8 316.62V253.68C417.8 253.68 424.72 256.58 430.43 259.38C426.2 259.94 421.87 261.24 420.18 264.1C420.729 265.851 421.65 267.463 422.878 268.826C424.107 270.19 425.615 271.272 427.3 272C431.8 274 427.3 308 427.3 308C427.3 308 434.68 309.82 437.05 316.65C437.05 316.65 424.92 317.89 419.91 321.74C414.9 325.59 413.85 326.6 413.85 326.6Z" fill="#27B4F2"/>
<path opacity="0.4" d="M462.11 437.15C462.73 447.33 463.22 459.51 463.85 471.9C462.29 448.35 457.56 407.9 457.56 407.9C457.56 407.9 453.33 422.85 453.01 421.26C452.07 416.58 455.01 390.13 454.73 380.71C454.61 376.44 454.92 365.49 455.3 354.81C455.64 362.15 456.13 369.51 456.97 375.81C459.34 393.59 460.53 411.08 462.11 437.15Z" fill="#27B4F2"/>
<path d="M464.34 480.63C463.45 465.34 462.87 449.72 462.11 437.15C460.53 411.08 459.34 393.59 456.97 375.79C454.6 357.99 454.97 331.1 453.8 321.71C452.63 312.32 449.08 310.33 446.29 299.17C443.5 288.01 440.98 265.79 436.4 262.67C431.82 259.55 417.8 253.67 417.8 253.67V316.61C409.49 329.38 399.6 332.54 399.6 332.54C393.27 314.22 394.07 306.95 387.74 300.22C381.41 293.49 376.85 284.7 366.91 288.38C362.18 290.13 359.65 291.91 362.02 307.96C364.39 324.01 369.14 329.04 369.14 329.04C369.93 334.52 368.75 350.46 366.77 358.62C364.79 366.78 372.31 388.44 375.87 402.29C379.43 416.14 398.42 444.19 398.42 444.19C398.846 454.756 398.582 465.338 397.63 475.87C397.48 477.36 397.3 478.95 397.09 480.62" stroke="#263238" stroke-linecap="round" stroke-linejoin="round"/>
<path d="M399.6 332.55C399.6 332.55 401.6 341.37 405.54 343.35C409.48 345.33 415.19 343.35 415.19 343.35" stroke="#263238" stroke-linecap="round" stroke-linejoin="round"/>
<path d="M417.8 316.62C417.8 316.62 421.8 307.82 434.42 315.45" stroke="#263238" stroke-linecap="round" stroke-linejoin="round"/>
<path d="M417.8 281.09C417.8 281.09 418.59 276.42 425.12 275.24" stroke="#263238" stroke-linecap="round" stroke-linejoin="round"/>
<path d="M398.42 444.2C405.93 453.73 404.5 462.82 407.42 467.57C410.34 472.32 409.91 489.33 409.91 489.33" stroke="#263238" stroke-linecap="round" stroke-linejoin="round"/>
<path d="M453 352.79V385.89C452.896 395.376 451.969 404.835 450.23 414.16" stroke="#263238" stroke-linecap="round" stroke-linejoin="round"/>
<path d="M369.14 329.05C369.14 329.05 369.14 323.4 370.73 321.71" stroke="#263238" stroke-linecap="round" stroke-linejoin="round"/>
<path d="M373.49 311.28C373.49 311.28 377 299.48 387.28 304.63" stroke="#263238" stroke-linecap="round" stroke-linejoin="round"/>
<path d="M405.19 329.63C412.83 329.8 420.57 326.41 425.12 330.53" stroke="#263238" stroke-linecap="round" stroke-linejoin="round"/>
</svg>
