<svg width="125" height="126" viewBox="0 0 125 126" fill="none" xmlns="http://www.w3.org/2000/svg">
<path fill-rule="evenodd" clip-rule="evenodd" d="M62.5001 121.036C94.5527 121.036 120.536 95.0527 120.536 63.0001C120.536 52.7088 117.857 43.0433 113.159 34.6625L102.679 45.1429L84.8215 40.6786L80.3572 22.8215L90.8376 12.3411C82.4569 7.64299 72.7913 4.96436 62.5001 4.96436C30.4478 4.96436 4.46436 30.9478 4.46436 63.0001C4.46436 95.0527 30.4478 121.036 62.5001 121.036ZM102.121 20.5938C103.081 21.4904 104.01 22.4192 104.906 23.3785L102.679 22.8215L102.121 20.5938Z" fill="#E9F8FE"/>
<path d="M120.357 67.4644C119.476 78.5403 115.433 89.1304 108.71 97.9769C101.987 106.822 92.8658 113.553 82.4305 117.368C71.9951 121.183 60.6837 121.922 49.8405 119.497C38.9973 117.073 29.0779 111.588 21.2608 103.691C13.4438 95.7956 8.05764 85.8212 5.74231 74.9542C3.42698 64.0871 4.27979 52.7838 8.19942 42.3872C12.1191 31.9905 18.9408 22.9376 27.8541 16.3038C36.7674 9.67007 47.3975 5.7344 58.4818 4.96436" stroke="#27B4F2" stroke-width="2.5" stroke-linecap="round" stroke-linejoin="round"/>
<path d="M102.679 45.1429L84.8217 40.6786L80.3574 22.8215L98.2146 4.96436L102.679 22.8215L120.536 27.2858L102.679 45.1429Z" fill="white"/>
<path d="M102.679 45.1429L84.8217 40.6786L80.3574 22.8215L98.2146 4.96436L102.679 22.8215L120.536 27.2858L102.679 45.1429Z" stroke="#27B4F2" stroke-width="2.5" stroke-linecap="round" stroke-linejoin="round"/>
<path d="M87.4109 72.7317C85.7986 76.8817 83.1773 80.5643 79.784 83.4465C76.3907 86.3288 72.3324 88.3197 67.9762 89.2394C63.6201 90.1589 59.1034 89.9785 54.8346 88.7137C50.5658 87.4489 46.6797 85.1402 43.5275 81.9961C40.3752 78.852 38.0565 74.9717 36.7808 70.7062C35.5051 66.4407 35.3128 61.9245 36.2212 57.566C37.1296 53.2074 39.1101 49.1441 41.9836 45.7434C44.8571 42.3427 48.533 39.7119 52.6788 38.0889" stroke="#27B4F2" stroke-width="2.5" stroke-linecap="round" stroke-linejoin="round"/>
<path d="M62.5 63.0001L84.8214 40.6787" stroke="#27B4F2" stroke-width="2.5" stroke-linecap="round" stroke-linejoin="round"/>
</svg>
