<svg width="175" height="218" viewBox="0 0 175 218" fill="none" xmlns="http://www.w3.org/2000/svg">
<path fill-rule="evenodd" clip-rule="evenodd" d="M170.629 1.02736C164.302 -1.20209 156.17 -3.42762 146.637 -4.64547C144.224 -4.95375 142.136 -3.03837 142.136 -0.605721V54.7315C142.136 56.7225 143.559 58.4108 145.483 58.9245C151.916 60.6427 157.589 63.709 162.163 68.2828C169.77 75.8892 173.207 86.5365 173.207 98.6673C173.207 110.798 169.77 121.445 162.163 129.052C154.557 136.658 143.909 140.096 131.778 140.096C129.086 140.096 126.467 139.927 123.938 139.58C122.61 139.398 121.265 139.805 120.284 140.717C108.216 151.947 90.0594 162.67 67.8915 169.114C62.3981 170.712 56.6511 167.553 55.0552 162.06C53.4577 156.568 56.6163 150.821 62.108 149.224C78.4982 144.459 91.8978 137.129 101.362 129.664C101.556 129.512 101.568 129.226 101.394 129.052C93.7873 121.445 90.3499 110.798 90.3499 98.6673C90.3499 86.5365 93.7873 75.8892 101.394 68.2828C105.967 63.709 111.641 60.6427 118.074 58.9245C119.998 58.4108 121.421 56.7227 121.421 54.7315V-0.72114C121.421 -3.13406 119.366 -5.04197 116.967 -4.77894C107.481 -3.73863 99.3174 -1.84314 92.936 0.0545182C88.1777 1.46952 84.3858 2.89306 81.745 3.98215C80.4238 4.52703 79.3881 4.98924 78.6611 5.32634C78.2973 5.49493 78.0107 5.63235 77.8037 5.7333L77.5535 5.85679L77.5311 5.86831C55.4414 16.765 39.3488 36.5409 35.0784 67.1972C34.7271 69.7218 32.9837 73.5914 29.5667 78.9549C27.1241 82.7891 24.2871 86.7107 21.3059 90.83C20.2354 92.3088 19.1483 93.8134 18.0529 95.3482C14.1139 100.868 10.0091 106.892 7.52341 112.527C5.23158 117.724 2.95467 125.672 7.7869 132.561C9.78044 135.402 12.4286 137.722 15.5059 139.323C18.5517 140.908 21.929 141.744 25.3593 141.763L26.1563 141.783C28.4034 141.84 30.1948 143.677 30.1948 145.925V156.748C30.1948 175.052 45.0345 189.89 63.3376 189.89H71.5137C75.2596 189.89 77.6428 192.14 78.1542 194.558C78.1581 194.576 78.16 194.595 78.16 194.615V214.527C78.16 219.102 81.8696 222.812 86.4457 222.812H186.183C190.759 222.812 194.469 219.102 194.469 214.527C194.469 210.523 194.459 205.616 194.446 200.806C194.413 188.907 197.058 177.481 202.968 167.921C203.859 166.481 204.754 165.053 205.649 163.626C210.808 155.397 215.939 147.213 219.778 137.215C224.373 125.245 227.064 110.961 227.064 90.3824C227.064 51.5189 213.048 23.1394 185.748 7.82131L185.551 7.70473C185.345 7.58385 185.062 7.42055 184.703 7.22103C183.986 6.82209 182.967 6.27757 181.668 5.63697C179.07 4.35669 175.337 2.68657 170.629 1.02736Z" fill="#A2DFF9"/>
</svg>
