<svg width="144" height="218" viewBox="0 0 144 218" fill="none" xmlns="http://www.w3.org/2000/svg">
<g clip-path="url(#clip0_126_22)">
<path fill-rule="evenodd" clip-rule="evenodd" d="M228 110C228 140.235 215.989 169.231 194.61 190.61C173.231 211.989 144.235 224 114 224C83.7653 224 54.769 211.989 33.3898 190.61C12.0107 169.231 0 140.235 0 110C0 79.7653 12.0107 50.769 33.3898 29.3898C54.769 8.01068 83.7653 -4 114 -4C144.235 -4 173.231 8.01068 194.61 29.3898C215.989 50.769 228 79.7653 228 110ZM126.214 48.9286C126.214 45.6891 124.927 42.5824 122.637 40.2918C120.346 38.0011 117.239 36.7143 114 36.7143C110.761 36.7143 107.654 38.0011 105.363 40.2918C103.073 42.5824 101.786 45.6891 101.786 48.9286V57.2343C94.6145 58.0059 87.9515 61.3029 82.9879 66.536C78.0244 71.7691 75.0839 78.597 74.6923 85.799C74.3007 93.001 76.4834 100.107 80.8502 105.848C85.2171 111.588 91.4833 115.589 98.5286 117.133L122.534 122.393C124.505 122.814 126.25 123.95 127.432 125.583C128.614 127.216 129.148 129.229 128.931 131.233C128.714 133.237 127.762 135.089 126.258 136.432C124.755 137.774 122.807 138.511 120.791 138.5H107.209C105.527 138.499 103.886 137.977 102.513 137.006C101.139 136.035 100.1 134.662 99.5383 133.077C98.4585 130.021 96.209 127.519 93.2846 126.122C90.3602 124.725 87.0006 124.546 83.9447 125.626C80.8889 126.706 78.3871 128.955 76.9898 131.88C75.5925 134.804 75.4142 138.164 76.494 141.22C80.3863 152.196 90.0111 160.502 101.786 162.473V171.071C101.786 174.311 103.073 177.418 105.363 179.708C107.654 181.999 110.761 183.286 114 183.286C117.239 183.286 120.346 181.999 122.637 179.708C124.927 177.418 126.214 174.311 126.214 171.071V162.473C133.668 161.204 140.45 157.384 145.396 151.665C150.343 145.946 153.146 138.685 153.327 131.126C153.508 123.567 151.055 116.18 146.388 110.232C141.721 104.283 135.13 100.142 127.745 98.5186L103.756 93.2746C102.329 92.9523 101.071 92.1167 100.22 90.9267C99.3696 89.7367 98.9862 88.2754 99.1431 86.8211C99.3 85.3667 99.9862 84.0209 101.071 83.0397C102.156 82.0585 103.564 81.5105 105.027 81.5H120.791C122.475 81.4938 124.119 82.0128 125.494 82.9849C126.869 83.957 127.906 85.3336 128.462 86.9231C128.996 88.4363 129.824 89.8292 130.897 91.0226C131.97 92.2159 133.267 93.1862 134.715 93.878C136.163 94.5699 137.734 94.9698 139.336 95.0549C140.939 95.1399 142.542 94.9085 144.055 94.3739C145.568 93.8392 146.961 93.0117 148.155 91.9387C149.348 90.8657 150.318 89.5682 151.01 88.1202C151.702 86.6722 152.102 85.1021 152.187 83.4995C152.272 81.897 152.041 80.2934 151.506 78.7803C149.568 73.3044 146.202 68.4463 141.755 64.7094C137.308 60.9726 131.942 58.4929 126.214 57.5274V48.9286Z" fill="#A2DFF9"/>
</g>
<defs>
<clipPath id="clip0_126_22">
<rect width="228" height="228" fill="white" transform="translate(0 -4)"/>
</clipPath>
</defs>
</svg>
