<svg width="234" height="218" viewBox="0 0 234 218" fill="none" xmlns="http://www.w3.org/2000/svg">
<path fill-rule="evenodd" clip-rule="evenodd" d="M107.036 -8C103.432 -8 100.178 -5.83863 98.7722 -2.51136L58.3845 93.0686L58.3466 93.1597C57.2294 95.8867 56.7971 98.8472 57.0881 101.781C57.3789 104.714 58.3839 107.532 60.0147 109.985C61.6455 112.438 63.8523 114.451 66.4408 115.849C69.0294 117.247 71.9208 117.985 74.8607 118L113.088 118L80.4563 232.527C79.345 236.427 80.9727 240.591 84.431 242.695C87.889 244.799 92.3234 244.322 95.2594 241.532L249.451 95.0126L249.505 94.9608C252.067 92.4856 253.837 89.3029 254.592 85.8168C255.346 82.3307 255.05 78.6985 253.743 75.3811C252.435 72.0639 250.173 69.2109 247.245 67.1847C244.318 65.1584 240.855 64.0503 237.299 64.0008L184.383 63.9999L213.79 5.02491C215.181 2.23502 215.032 -1.07823 213.397 -3.73159C211.761 -6.38493 208.872 -8 205.762 -8H107.036Z" fill="#A2DFF9"/>
</svg>
