<svg width="168" height="212" viewBox="0 0 168 212" fill="none" xmlns="http://www.w3.org/2000/svg">
<path fill-rule="evenodd" clip-rule="evenodd" d="M10.2305 61.5697C12.3122 62.3165 14.5632 62.457 16.7217 61.9746C18.8801 61.4921 20.8572 60.4068 22.4229 58.8447L31.0183 50.2337L96.3716 115.587C97.4561 116.672 98.7439 117.533 100.161 118.12C101.579 118.708 103.098 119.01 104.632 119.01C106.167 119.01 107.686 118.708 109.103 118.12C110.521 117.533 111.808 116.672 112.893 115.587L137.823 90.6571L197.212 150.047C198.29 151.161 199.579 152.05 201.004 152.662C202.429 153.273 203.962 153.595 205.513 153.607C207.063 153.62 208.601 153.324 210.036 152.736C211.471 152.148 212.774 151.28 213.87 150.183C214.966 149.086 215.833 147.782 216.42 146.346C217.006 144.911 217.301 143.373 217.287 141.822C217.272 140.272 216.95 138.739 216.337 137.315C215.724 135.89 214.834 134.602 213.718 133.525L146.107 65.8674C145.022 64.7821 143.734 63.9212 142.317 63.3338C140.9 62.7465 139.38 62.4441 137.846 62.4441C136.312 62.4441 134.793 62.7465 133.375 63.3338C131.958 63.9212 130.67 64.7821 129.585 65.8674L104.64 90.8128L47.5396 33.7124L56.135 25.1169C57.7003 23.5536 58.7893 21.5779 59.2753 19.4198C59.7614 17.2616 59.6245 15.0098 58.8806 12.9264C58.1366 10.8431 56.8162 9.01384 55.0731 7.65169C53.33 6.28954 51.2359 5.4505 49.0344 5.23222C34.8177 3.8308 26.6427 3.8308 12.9554 5.23222C10.2843 5.50842 7.78987 6.69674 5.89241 8.59704C3.99495 10.4973 2.81036 12.9935 2.53816 15.6651C1.12115 29.3368 1.13673 37.5274 2.53816 51.7285C2.75717 53.9288 3.59633 56.0218 4.95807 57.7639C6.31979 59.506 8.14815 60.8258 10.2305 61.5697ZM35.5029 85.0514C33.7384 83.3404 31.4792 82.2298 29.0469 81.8775C26.6145 81.5252 24.133 81.9493 21.9557 83.0894L6.8203 91.0308C4.86192 92.0615 3.23671 93.6274 2.13397 95.5462C1.03125 97.4649 0.496399 99.6575 0.591721 101.869L4.88945 204.453C5.01408 207.466 6.2993 210.314 8.4761 212.401C10.6529 214.488 13.5525 215.652 16.568 215.649H47.2749C47.7861 215.649 48.2923 215.548 48.7646 215.353C49.2369 215.157 49.666 214.87 50.0275 214.509C50.389 214.147 50.6758 213.718 50.8714 213.246C51.067 212.774 51.1677 212.267 51.1677 211.756V101.884C51.1687 101.361 51.0645 100.844 50.8612 100.362C50.6579 99.8807 50.3596 99.445 49.9843 99.0812L35.5029 85.0514ZM70.632 211.756C70.632 212.789 71.0422 213.779 71.7722 214.509C72.5023 215.239 73.4924 215.649 74.5249 215.649H132.918C133.95 215.649 134.94 215.239 135.67 214.509C136.4 213.779 136.811 212.789 136.811 211.756V121.224C136.811 120.912 136.577 120.663 136.266 120.694C133.727 120.819 131.236 121.784 129.181 123.575L103.566 146.06C102.831 146.707 101.88 147.053 100.902 147.03C99.9237 147.007 98.9901 146.616 98.2869 145.936L77.2343 125.506C76.6847 124.973 75.9902 124.614 75.2378 124.474C74.4853 124.334 73.7082 124.419 73.0036 124.718C72.2991 125.017 71.6983 125.517 71.2765 126.156C70.8547 126.795 70.6305 127.543 70.632 128.309V211.756ZM162.955 142.261L211.382 191.716C213.525 193.897 214.727 196.832 214.73 199.891V203.97C214.73 210.417 209.498 215.649 203.051 215.649H160.168C159.135 215.649 158.145 215.239 157.415 214.509C156.685 213.779 156.275 212.789 156.275 211.756V144.986C156.273 144.211 156.503 143.453 156.935 142.81C157.366 142.167 157.98 141.667 158.697 141.374C159.415 141.081 160.203 141.009 160.962 141.167C161.72 141.325 162.414 141.706 162.955 142.261Z" fill="#A2DFF9"/>
</svg>
