<svg width="115" height="56" viewBox="0 0 115 56" fill="none" xmlns="http://www.w3.org/2000/svg">
<path d="M51.7559 0C60.3273 0.000139143 67.9151 4.20715 72.5703 10.668C73.2214 10.6118 73.8802 10.5811 74.5459 10.5811C82.7607 10.5811 89.9567 14.9435 93.9443 21.4775C95.0162 21.2713 96.1229 21.1631 97.2549 21.1631C106.875 21.1631 114.674 28.9612 114.674 38.5811C114.674 48.0507 107.117 55.7555 97.7051 55.9941L97.2549 56H22.0459L21.4785 55.9932C9.60348 55.6921 0.0694379 45.971 0.0693359 34.0234C0.0693359 21.8861 9.90858 12.047 22.0459 12.0469C24.5849 12.0469 27.0231 12.4784 29.292 13.2705C33.6575 5.3591 42.0808 0 51.7559 0Z" fill="#E9F8FE"/>
</svg>
