<svg width="208" height="102" viewBox="0 0 208 102" fill="none" xmlns="http://www.w3.org/2000/svg">
<path d="M94.1426 0C109.755 0.000137272 123.575 7.66284 132.055 19.4307C133.241 19.3284 134.441 19.2734 135.653 19.2734C150.616 19.2734 163.722 27.219 170.985 39.1201C172.938 38.7443 174.954 38.5459 177.017 38.5459C194.539 38.5459 208.743 52.7505 208.743 70.2725C208.743 87.5207 194.979 101.555 177.836 101.989L177.017 102H40.0283C17.9211 102 0 84.078 0 61.9707C0.000195854 39.8636 17.9212 21.9426 40.0283 21.9424C44.6533 21.9424 49.0947 22.7289 53.2275 24.1719C61.179 9.76178 76.5202 0 94.1426 0Z" fill="#A2DFF9"/>
</svg>
