<svg width="610" height="407" viewBox="0 0 610 407" fill="none" xmlns="http://www.w3.org/2000/svg">
<path d="M553.506 218.592C536.82 189.198 516.268 162.179 492.4 138.258C466.715 112.519 440.534 95.1158 406.756 83.8663C383.93 76.2263 360.123 71.914 336.069 71.0621C291.515 69.5562 254.736 80.1789 218.136 106.968C178.933 135.686 142.333 168.189 104.058 198.355C100.067 201.508 96.0574 204.631 92.0287 207.725C25.3353 258.966 -7.05972 350.02 38.0396 372.234H557.003C557.003 372.234 604.176 369.735 592.57 318.966C584.491 283.786 571.331 249.972 553.506 218.592Z" fill="#27B4F2"/>
<path opacity="0.7" d="M553.506 218.592C536.82 189.198 516.268 162.179 492.4 138.258C466.715 112.519 440.534 95.1158 406.756 83.8663C383.93 76.2263 360.123 71.914 336.069 71.0621C291.515 69.5562 254.736 80.1789 218.136 106.968C178.933 135.686 142.333 168.189 104.058 198.355C100.067 201.508 96.0574 204.631 92.0287 207.725C25.3353 258.966 -7.05972 350.02 38.0396 372.234H557.003C557.003 372.234 604.176 369.735 592.57 318.966C584.491 283.786 571.331 249.972 553.506 218.592Z" fill="white"/>
<path d="M595.555 372.641H580.435C580.327 372.641 580.224 372.598 580.148 372.522C580.071 372.446 580.029 372.342 580.029 372.234C580.029 372.126 580.071 372.023 580.148 371.946C580.224 371.87 580.327 371.827 580.435 371.827H595.555C595.663 371.827 595.766 371.87 595.843 371.946C595.919 372.023 595.962 372.126 595.962 372.234C595.962 372.342 595.919 372.446 595.843 372.522C595.766 372.598 595.663 372.641 595.555 372.641Z" fill="#061B24"/>
<path d="M573.953 372.641H20.0731C19.9652 372.641 19.8618 372.598 19.7855 372.522C19.7092 372.446 19.6664 372.342 19.6664 372.234C19.6664 372.126 19.7092 372.023 19.7855 371.946C19.8618 371.87 19.9652 371.827 20.0731 371.827H573.953C574.061 371.827 574.164 371.87 574.241 371.946C574.317 372.023 574.36 372.126 574.36 372.234C574.358 372.341 574.314 372.444 574.238 372.52C574.163 372.596 574.06 372.639 573.953 372.641Z" fill="#061B24"/>
<path d="M489.529 268.677C491.749 269.645 497.191 269.491 497.199 269.491C497.207 269.491 496.028 265.925 495.922 265.714C494.726 263.215 490.952 259.08 487.878 259.503C487.37 259.586 486.885 259.775 486.455 260.058C486.025 260.341 485.659 260.712 485.381 261.146C485.104 261.579 484.92 262.067 484.843 262.576C484.766 263.086 484.797 263.606 484.934 264.102C485.446 266.267 487.634 267.847 489.529 268.677Z" fill="#061B24"/>
<path d="M491.4 284.452C493.71 284.786 498.565 283.378 498.956 283.264C499.753 286.04 500.736 288.76 501.9 291.404C502.567 292.959 503.291 294.497 504.031 296.027C503.592 295.376 503.217 294.798 503.12 294.725C501.314 292.633 496.613 289.646 493.726 290.858C493.257 291.073 492.839 291.384 492.498 291.77C492.158 292.157 491.902 292.612 491.749 293.104C491.595 293.596 491.547 294.115 491.608 294.627C491.668 295.14 491.835 295.633 492.099 296.076C493.156 297.997 495.678 298.95 497.727 299.243C499.777 299.536 503.966 298.429 505.047 298.119L505.918 299.878C507.325 302.678 508.74 305.47 510.041 308.245C510.505 309.23 510.92 310.207 511.343 311.192C510.944 310.614 510.611 310.134 510.529 310.061C508.716 307.969 504.023 304.981 501.135 306.194C500.667 306.409 500.248 306.719 499.908 307.106C499.567 307.493 499.312 307.947 499.158 308.44C499.005 308.932 498.957 309.451 499.017 309.963C499.077 310.475 499.245 310.969 499.509 311.412C500.558 313.333 503.087 314.285 505.129 314.578C507.17 314.871 510.968 313.87 512.27 313.512C512.676 314.53 513.083 315.547 513.417 316.548C513.636 317.24 513.896 317.891 514.075 318.591C514.254 319.291 514.466 319.975 514.653 320.659C514.97 321.986 515.304 323.353 515.58 324.648C515.783 325.551 515.954 326.422 516.133 327.293C515.686 326.308 514.775 324.412 514.677 324.257C513.205 321.913 508.984 318.25 505.975 319.015C505.483 319.157 505.026 319.4 504.634 319.729C504.242 320.059 503.923 320.466 503.698 320.926C503.473 321.387 503.346 321.889 503.326 322.4C503.307 322.912 503.394 323.423 503.583 323.899C504.332 325.958 506.682 327.277 508.659 327.879C510.838 328.547 515.653 327.944 516.255 327.879C516.548 329.32 516.816 330.72 517.068 332.055C517.199 332.755 517.304 333.414 517.41 334.082H519.33C519.183 333.317 519.037 332.535 518.874 331.713C518.589 330.248 518.256 328.693 517.89 327.09C519.344 326.512 520.762 325.846 522.136 325.095C523.762 326.813 527.829 328.832 528.309 329.084C527.756 330.451 527.211 331.77 526.682 333.007C526.519 333.382 526.365 333.724 526.202 334.082H528.227C528.276 333.96 528.325 333.846 528.374 333.716C528.943 332.34 529.521 330.85 530.106 329.32C530.684 329.442 535.458 330.411 537.678 329.906C539.695 329.45 542.144 328.278 543.046 326.316C543.274 325.854 543.402 325.349 543.423 324.833C543.443 324.318 543.355 323.804 543.164 323.325C542.973 322.846 542.683 322.413 542.314 322.053C541.945 321.693 541.505 321.415 541.021 321.237C538.085 320.252 533.595 323.589 531.952 325.82C531.855 325.95 530.96 327.497 530.415 328.482C530.651 327.855 530.879 327.252 531.115 326.601C531.586 325.323 532.018 324.029 532.481 322.645C532.684 321.961 532.888 321.278 533.099 320.586C533.311 319.894 533.457 319.161 533.652 318.437C534.051 316.76 534.368 315.034 534.661 313.3C535.775 313.707 539.777 315.099 541.851 314.928C543.925 314.757 546.503 314.025 547.699 312.185C547.994 311.763 548.198 311.283 548.296 310.777C548.394 310.271 548.384 309.75 548.268 309.247C548.151 308.745 547.93 308.273 547.619 307.862C547.308 307.451 546.914 307.11 546.462 306.862C543.705 305.445 538.768 308.066 536.808 310.02C536.686 310.142 535.434 311.705 534.758 312.568C534.929 311.526 535.092 310.476 535.23 309.409C535.612 306.333 535.897 303.207 536.206 300.089C536.296 299.137 536.401 298.184 536.499 297.232C536.898 297.387 541.615 299.145 543.933 298.982C545.999 298.836 548.585 298.079 549.781 296.239C550.078 295.817 550.282 295.337 550.381 294.831C550.48 294.324 550.47 293.803 550.354 293.3C550.237 292.798 550.015 292.325 549.704 291.914C549.392 291.503 548.997 291.163 548.544 290.915C545.795 289.491 540.85 292.12 538.89 294.074C538.744 294.22 536.946 296.467 536.515 297.061C536.735 294.961 536.979 292.877 537.329 290.834C537.747 288.066 538.345 285.328 539.118 282.637C539.305 282.71 544.218 284.566 546.601 284.395C548.658 284.249 551.245 283.492 552.44 281.66C552.736 281.238 552.94 280.759 553.039 280.253C553.138 279.747 553.129 279.226 553.013 278.724C552.897 278.222 552.677 277.75 552.366 277.339C552.056 276.927 551.663 276.586 551.212 276.337C548.455 274.912 543.51 277.533 541.55 279.487C541.395 279.642 539.468 282.059 539.15 282.523C539.15 282.368 539.224 282.206 539.272 282.051C540.121 279.372 541.21 276.776 542.526 274.294C543.225 272.91 543.982 271.632 544.738 270.403C545.616 270.842 549.667 272.845 551.822 272.893C553.977 272.942 556.539 272.511 557.93 270.818C558.271 270.431 558.526 269.976 558.68 269.484C558.833 268.991 558.881 268.472 558.82 267.959C558.76 267.447 558.592 266.953 558.328 266.51C558.064 266.067 557.709 265.685 557.288 265.388C554.701 263.671 549.504 265.738 547.341 267.464C547.227 267.554 546.137 268.644 545.348 269.45C545.698 268.897 546.056 268.327 546.397 267.822C547.699 265.869 549.008 264.151 550.179 262.653C550.846 261.839 551.472 261.025 552.066 260.342C553.156 260.342 557.54 260.187 559.459 259.292C561.379 258.396 563.469 256.768 563.925 254.627C564.048 254.127 564.065 253.606 563.974 253.098C563.883 252.591 563.687 252.108 563.398 251.681C563.109 251.255 562.733 250.893 562.296 250.621C561.858 250.349 561.369 250.172 560.858 250.101C557.776 249.768 554.108 254 552.985 256.532C552.888 256.752 551.757 260.35 551.814 260.342H551.879C551.294 261.009 550.675 261.725 550.017 262.523C548.813 264.005 547.463 265.69 546.121 267.627C544.64 269.694 543.282 271.847 542.054 274.074C540.67 276.558 539.513 279.163 538.597 281.856V281.953C538.597 281.042 538.597 278.502 538.549 278.307C538.191 275.555 535.889 270.46 532.855 269.89C532.346 269.81 531.826 269.839 531.329 269.974C530.831 270.11 530.368 270.348 529.969 270.675C529.57 271.001 529.244 271.408 529.013 271.869C528.781 272.33 528.649 272.834 528.626 273.349C528.447 275.531 530.025 277.712 531.57 279.096C533.311 280.651 538.134 282.157 538.524 282.271C537.655 285.033 536.973 287.85 536.483 290.704C536.182 292.332 535.938 294.041 535.71 295.734C535.71 294.92 535.71 294.245 535.669 294.106C535.32 291.355 533.018 286.259 529.976 285.69C529.467 285.61 528.947 285.639 528.449 285.774C527.952 285.909 527.489 286.148 527.09 286.474C526.691 286.801 526.365 287.208 526.133 287.668C525.902 288.129 525.77 288.634 525.747 289.149C525.568 291.331 527.146 293.512 528.691 294.896C530.236 296.28 534.344 297.655 535.434 298.005C535.352 298.657 535.263 299.3 535.19 299.951C534.815 303.068 534.458 306.178 534.01 309.214C533.856 310.28 533.66 311.331 533.473 312.381C533.473 311.689 533.473 311.094 533.473 311.005C533.116 308.262 530.814 303.158 527.78 302.596C527.271 302.516 526.751 302.543 526.254 302.677C525.757 302.812 525.293 303.049 524.894 303.375C524.495 303.701 524.169 304.107 523.937 304.568C523.706 305.028 523.574 305.533 523.551 306.048C523.372 308.229 524.95 310.419 526.495 311.795C528.04 313.17 531.749 314.424 533.002 314.847C532.774 315.913 532.546 316.988 532.278 318.013C532.083 318.705 531.944 319.397 531.7 320.081C531.456 320.765 531.261 321.449 531.042 322.124C530.578 323.402 530.106 324.729 529.618 325.966C529.293 326.829 528.959 327.651 528.626 328.473C528.797 327.407 529.081 325.315 529.081 325.144C529.047 322.704 528.389 320.314 527.17 318.201C527.179 317.928 527.162 317.656 527.121 317.387C527.058 316.875 526.887 316.382 526.62 315.94C526.353 315.499 525.996 315.118 525.572 314.824C525.149 314.53 524.668 314.328 524.161 314.233C523.654 314.137 523.133 314.15 522.632 314.269C519.639 315.083 517.752 320.333 517.597 323.101C517.597 323.264 517.695 325.038 517.776 326.162C517.63 325.51 517.491 324.875 517.329 324.208C517.012 322.881 516.662 321.571 516.288 320.138C516.084 319.454 515.873 318.779 515.67 318.087C515.466 317.395 515.182 316.687 514.946 315.987C514.352 314.359 513.669 312.731 512.953 311.103C514.108 310.826 518.215 309.784 519.858 308.514C521.501 307.244 523.242 305.193 523.225 303.003C523.238 302.488 523.143 301.976 522.946 301.501C522.749 301.025 522.454 300.596 522.08 300.242C521.707 299.887 521.263 299.615 520.778 299.443C520.293 299.271 519.778 299.203 519.264 299.243C516.182 299.576 513.506 304.493 512.945 307.204C512.945 307.374 512.725 309.369 512.652 310.46C512.213 309.491 511.774 308.53 511.294 307.562C509.919 304.786 508.439 302.018 506.975 299.251C506.528 298.437 506.088 297.558 505.649 296.703C506.056 296.613 510.968 295.474 512.815 294.057C514.441 292.796 516.19 290.736 516.174 288.547C516.188 288.031 516.094 287.519 515.897 287.043C515.7 286.566 515.405 286.137 515.032 285.782C514.658 285.427 514.214 285.155 513.728 284.984C513.243 284.812 512.726 284.745 512.213 284.786C509.13 285.12 506.454 290.036 505.893 292.747C505.893 292.95 505.592 295.816 505.568 296.548C504.592 294.684 503.64 292.804 502.778 290.924C501.607 288.382 500.596 285.77 499.753 283.101C499.948 283.101 505.072 281.888 506.967 280.439C508.594 279.178 510.342 277.118 510.326 274.928C510.34 274.413 510.246 273.901 510.049 273.424C509.852 272.948 509.557 272.518 509.184 272.164C508.81 271.809 508.366 271.537 507.88 271.365C507.395 271.194 506.878 271.126 506.365 271.168C503.282 271.502 500.607 276.418 500.045 279.129C500.005 279.348 499.728 282.434 499.72 282.995C499.671 282.841 499.606 282.686 499.557 282.531C498.793 279.828 498.268 277.064 497.988 274.269C497.817 272.731 497.736 271.241 497.695 269.8C498.671 269.678 503.128 269.084 504.974 267.969C506.82 266.854 508.699 265.038 508.919 262.865C508.967 262.361 508.911 261.852 508.753 261.371C508.595 260.89 508.339 260.447 508.001 260.069C507.663 259.692 507.251 259.389 506.79 259.18C506.329 258.97 505.83 258.859 505.324 258.852C502.225 258.852 499.029 263.435 498.175 266.072C498.126 266.219 497.817 267.7 497.605 268.823C497.605 268.172 497.605 267.505 497.605 266.878C497.605 264.534 497.76 262.385 497.906 260.48C497.996 259.397 498.102 258.421 498.207 257.509C499.11 256.898 502.689 254.359 503.795 252.552C504.901 250.745 505.755 248.237 504.95 246.194C504.777 245.709 504.504 245.265 504.149 244.892C503.794 244.518 503.364 244.224 502.887 244.029C502.411 243.833 501.898 243.74 501.383 243.755C500.869 243.771 500.363 243.894 499.899 244.119C497.142 245.543 496.418 251.095 496.873 253.83C496.873 254.066 497.955 257.688 498.004 257.655L498.053 257.615C497.931 258.494 497.817 259.43 497.703 260.464C497.516 262.36 497.321 264.534 497.264 266.87C497.181 269.408 497.241 271.949 497.443 274.481C497.666 277.315 498.139 280.123 498.858 282.873V282.971C498.37 282.206 496.938 280.105 496.808 279.959C494.995 277.859 490.302 274.88 487.414 276.092C486.946 276.307 486.527 276.618 486.187 277.004C485.846 277.391 485.591 277.846 485.437 278.338C485.284 278.83 485.236 279.349 485.296 279.861C485.357 280.374 485.524 280.867 485.788 281.31C486.837 283.207 489.358 284.151 491.4 284.452Z" fill="#061B24"/>
<path d="M544.575 269.873C544.616 269.873 545.56 266.251 545.592 266.015C545.974 263.272 545.104 257.745 542.339 256.394C541.869 256.182 541.36 256.072 540.844 256.07C540.329 256.069 539.819 256.176 539.348 256.385C538.877 256.594 538.455 256.9 538.11 257.283C537.765 257.666 537.504 258.117 537.345 258.608C536.597 260.667 537.54 263.19 538.671 264.932C539.964 266.992 544.567 269.873 544.575 269.873Z" fill="#061B24"/>
<path d="M503.169 332.324H543.559V358.372C543.559 362.042 542.102 365.562 539.509 368.157C536.916 370.752 533.399 372.21 529.732 372.21H517.012C513.344 372.21 509.828 370.752 507.235 368.157C504.642 365.562 503.185 362.042 503.185 358.372V332.324H503.169Z" fill="white"/>
<path d="M529.716 372.641H517.012C513.234 372.637 509.612 371.133 506.94 368.459C504.269 365.786 502.766 362.161 502.762 358.38V331.917H543.965V358.38C543.961 362.161 542.458 365.786 539.787 368.459C537.116 371.133 533.494 372.637 529.716 372.641ZM503.575 332.755V358.404C503.58 361.969 504.997 365.387 507.515 367.908C510.034 370.429 513.449 371.847 517.012 371.851H529.716C533.278 371.847 536.693 370.429 539.212 367.908C541.731 365.387 543.148 361.969 543.152 358.404V332.731L503.575 332.755Z" fill="#061B24"/>
<path d="M543.559 352.641V347.757C540.346 350.289 536.174 349.727 533.124 347.798C527.585 344.298 521.119 347.033 520.851 347.155C520.582 347.258 520.338 347.415 520.132 347.616C519.926 347.816 519.762 348.056 519.651 348.322C519.541 348.587 519.485 348.872 519.487 349.16C519.489 349.448 519.549 349.732 519.664 349.996C519.779 350.26 519.945 350.497 520.154 350.695C520.363 350.892 520.61 351.046 520.88 351.145C521.15 351.245 521.436 351.289 521.724 351.274C522.011 351.26 522.292 351.188 522.55 351.062C522.55 351.062 527.251 349.125 530.846 351.404C533.142 352.893 535.813 353.701 538.549 353.732C540.276 353.721 541.983 353.349 543.559 352.641Z" fill="white"/>
<path d="M538.549 354.09C535.738 354.057 532.994 353.228 530.635 351.697C527.251 349.556 522.754 351.371 522.713 351.387C522.406 351.529 522.074 351.608 521.736 351.62C521.399 351.632 521.062 351.576 520.746 351.455C520.43 351.335 520.142 351.153 519.897 350.919C519.653 350.686 519.457 350.406 519.322 350.096C519.187 349.785 519.116 349.451 519.112 349.113C519.107 348.775 519.171 348.439 519.298 348.126C519.425 347.813 519.614 347.528 519.852 347.288C520.091 347.049 520.375 346.859 520.688 346.731C520.964 346.609 527.634 343.801 533.343 347.407C535.889 349.035 540.021 349.971 543.307 347.407L543.965 346.886V352.902L543.721 353.007C542.091 353.724 540.329 354.093 538.549 354.09ZM526.682 349.833C528.226 349.797 529.748 350.207 531.066 351.013C532.824 352.194 534.841 352.932 536.945 353.164C539.05 353.397 541.179 353.117 543.152 352.348V348.498C539.655 350.753 535.507 349.735 532.904 348.091C527.561 344.713 521.273 347.366 521.013 347.48C520.792 347.561 520.59 347.686 520.419 347.848C520.248 348.01 520.112 348.205 520.019 348.421C519.926 348.638 519.879 348.871 519.88 349.106C519.88 349.342 519.929 349.575 520.023 349.791C520.117 350.007 520.254 350.201 520.426 350.362C520.598 350.523 520.801 350.647 521.022 350.726C521.244 350.806 521.479 350.839 521.714 350.824C521.949 350.809 522.178 350.746 522.388 350.639C523.762 350.126 525.216 349.861 526.682 349.857V349.833Z" fill="#061B24"/>
<path d="M503.169 352.006C506.282 351.473 509.298 350.474 512.115 349.043C519.191 345.64 531.481 340.765 534.279 346.357C534.404 346.607 534.577 346.831 534.788 347.015C534.999 347.199 535.245 347.339 535.51 347.428C535.776 347.516 536.056 347.552 536.335 347.532C536.614 347.513 536.887 347.438 537.137 347.313C537.388 347.188 537.611 347.015 537.795 346.803C537.978 346.592 538.119 346.346 538.207 346.081C538.296 345.815 538.332 345.534 538.312 345.255C538.293 344.976 538.218 344.703 538.093 344.452C534.71 337.696 525.356 337.94 510.277 345.201C508.038 346.327 505.658 347.148 503.201 347.643L503.169 352.006Z" fill="white"/>
<path d="M502.762 352.462V347.334L503.095 347.277C505.515 346.769 507.858 345.948 510.066 344.835C525.381 337.46 534.921 337.273 538.418 344.273C538.703 344.874 538.741 345.561 538.524 346.189C538.308 346.817 537.854 347.336 537.26 347.633C536.667 347.93 535.98 347.982 535.348 347.779C534.716 347.575 534.189 347.132 533.88 346.544C531.147 341.058 517.849 346.723 512.262 349.41C509.416 350.853 506.37 351.863 503.226 352.405L502.762 352.462ZM503.575 347.993V351.51C506.471 350.945 509.276 349.986 511.912 348.661C519.118 345.193 531.66 340.252 534.612 346.162C534.71 346.368 534.847 346.552 535.016 346.705C535.185 346.857 535.383 346.975 535.598 347.05C535.812 347.126 536.04 347.158 536.267 347.146C536.495 347.133 536.717 347.075 536.922 346.976C537.125 346.875 537.307 346.735 537.455 346.563C537.603 346.391 537.715 346.191 537.784 345.974C537.856 345.76 537.886 345.532 537.87 345.306C537.855 345.08 537.795 344.859 537.695 344.656C534.441 338.144 525.259 338.453 510.415 345.592C508.243 346.675 505.946 347.487 503.575 348.009V347.993Z" fill="#061B24"/>
<path d="M509.96 342.092C509.96 342.39 509.871 342.681 509.706 342.929C509.54 343.177 509.305 343.37 509.029 343.484C508.754 343.597 508.451 343.627 508.159 343.568C507.867 343.509 507.599 343.365 507.388 343.154C507.178 342.942 507.036 342.673 506.979 342.38C506.921 342.088 506.952 341.785 507.068 341.51C507.183 341.235 507.377 341 507.625 340.836C507.874 340.671 508.165 340.584 508.463 340.586C508.661 340.586 508.856 340.625 509.038 340.701C509.22 340.776 509.385 340.887 509.524 341.027C509.664 341.167 509.774 341.333 509.848 341.516C509.923 341.699 509.961 341.894 509.96 342.092Z" fill="white"/>
<path d="M508.472 343.996C508.095 343.996 507.727 343.885 507.414 343.675C507.101 343.466 506.857 343.169 506.713 342.82C506.569 342.472 506.531 342.089 506.605 341.72C506.678 341.35 506.86 341.011 507.126 340.745C507.392 340.478 507.731 340.297 508.1 340.223C508.469 340.15 508.852 340.188 509.2 340.332C509.548 340.476 509.845 340.72 510.054 341.033C510.263 341.347 510.375 341.715 510.375 342.092C510.373 342.596 510.171 343.079 509.815 343.436C509.459 343.793 508.976 343.994 508.472 343.996ZM508.472 341.001C508.256 341.001 508.045 341.065 507.866 341.185C507.687 341.304 507.547 341.475 507.465 341.674C507.382 341.873 507.361 342.093 507.403 342.304C507.445 342.516 507.548 342.71 507.701 342.863C507.853 343.015 508.048 343.119 508.259 343.161C508.47 343.203 508.69 343.182 508.889 343.099C509.088 343.017 509.258 342.877 509.378 342.698C509.498 342.518 509.561 342.307 509.561 342.092C509.559 341.803 509.444 341.527 509.24 341.323C509.036 341.119 508.76 341.003 508.472 341.001Z" fill="#061B24"/>
<path d="M518.598 339.088C518.599 339.386 518.512 339.678 518.348 339.927C518.184 340.175 517.949 340.37 517.674 340.485C517.4 340.6 517.097 340.631 516.804 340.574C516.512 340.517 516.243 340.374 516.032 340.164C515.821 339.953 515.676 339.685 515.618 339.393C515.559 339.1 515.588 338.797 515.702 338.522C515.816 338.246 516.008 338.01 516.256 337.844C516.504 337.679 516.795 337.59 517.093 337.59C517.29 337.589 517.486 337.627 517.668 337.702C517.851 337.777 518.017 337.887 518.156 338.026C518.296 338.165 518.407 338.331 518.483 338.513C518.559 338.695 518.598 338.89 518.598 339.088Z" fill="white"/>
<path d="M517.093 341.001C516.715 341.001 516.345 340.889 516.031 340.678C515.717 340.468 515.472 340.17 515.327 339.82C515.182 339.47 515.145 339.086 515.218 338.715C515.292 338.344 515.474 338.003 515.741 337.735C516.009 337.468 516.349 337.286 516.72 337.212C517.091 337.138 517.475 337.176 517.824 337.321C518.174 337.465 518.472 337.711 518.682 338.025C518.892 338.34 519.004 338.71 519.004 339.088C519.004 339.595 518.803 340.082 518.444 340.441C518.086 340.799 517.6 341.001 517.093 341.001ZM517.093 337.997C516.875 337.997 516.663 338.062 516.482 338.183C516.301 338.304 516.161 338.476 516.078 338.677C515.995 338.879 515.974 339.1 516.017 339.313C516.06 339.527 516.165 339.723 516.319 339.876C516.474 340.029 516.67 340.133 516.884 340.175C517.097 340.216 517.318 340.193 517.519 340.109C517.719 340.025 517.89 339.882 518.01 339.701C518.129 339.519 518.193 339.306 518.191 339.088C518.191 338.944 518.162 338.801 518.107 338.669C518.052 338.536 517.971 338.415 517.869 338.314C517.767 338.212 517.646 338.132 517.513 338.078C517.379 338.024 517.237 337.996 517.093 337.997Z" fill="#061B24"/>
<path d="M528.724 336.833C528.725 337.132 528.638 337.424 528.473 337.673C528.309 337.922 528.074 338.116 527.798 338.231C527.523 338.346 527.22 338.377 526.927 338.319C526.635 338.261 526.366 338.117 526.155 337.906C525.944 337.695 525.801 337.426 525.743 337.133C525.685 336.84 525.715 336.537 525.83 336.261C525.945 335.986 526.139 335.751 526.388 335.586C526.637 335.421 526.929 335.334 527.227 335.335C527.624 335.335 528.005 335.493 528.285 335.774C528.566 336.055 528.724 336.436 528.724 336.833Z" fill="white"/>
<path d="M527.227 338.746C526.849 338.748 526.478 338.637 526.163 338.428C525.848 338.218 525.601 337.92 525.455 337.571C525.309 337.221 525.27 336.836 525.343 336.465C525.416 336.093 525.598 335.752 525.864 335.483C526.131 335.215 526.472 335.032 526.843 334.958C527.214 334.883 527.599 334.92 527.948 335.065C528.298 335.21 528.597 335.455 528.808 335.769C529.018 336.084 529.13 336.454 529.13 336.833C529.13 337.339 528.93 337.824 528.573 338.183C528.217 338.541 527.733 338.744 527.227 338.746ZM527.227 335.742C527.009 335.741 526.796 335.804 526.614 335.924C526.432 336.044 526.29 336.216 526.206 336.417C526.122 336.618 526.1 336.84 526.142 337.054C526.184 337.267 526.288 337.464 526.443 337.618C526.597 337.772 526.793 337.877 527.007 337.919C527.22 337.961 527.442 337.939 527.643 337.855C527.844 337.771 528.015 337.629 528.135 337.447C528.255 337.265 528.319 337.051 528.317 336.833C528.315 336.544 528.199 336.268 527.995 336.064C527.791 335.86 527.515 335.744 527.227 335.742Z" fill="#061B24"/>
<path d="M538.662 338.152C538.662 338.45 538.574 338.742 538.408 338.989C538.243 339.237 538.007 339.43 537.732 339.544C537.456 339.658 537.153 339.687 536.861 339.628C536.569 339.569 536.301 339.425 536.091 339.214C535.881 339.002 535.738 338.733 535.681 338.441C535.624 338.148 535.655 337.845 535.77 337.57C535.885 337.295 536.079 337.06 536.328 336.896C536.576 336.731 536.868 336.644 537.166 336.646C537.363 336.646 537.558 336.685 537.741 336.761C537.923 336.837 538.088 336.948 538.227 337.088C538.366 337.228 538.476 337.394 538.551 337.576C538.626 337.759 538.664 337.955 538.662 338.152Z" fill="white"/>
<path d="M537.166 340.057C536.787 340.058 536.417 339.947 536.101 339.738C535.785 339.528 535.539 339.229 535.394 338.879C535.248 338.53 535.209 338.144 535.283 337.772C535.356 337.401 535.539 337.059 535.806 336.791C536.074 336.523 536.415 336.341 536.787 336.267C537.158 336.194 537.543 336.232 537.893 336.378C538.243 336.524 538.541 336.77 538.75 337.086C538.96 337.402 539.071 337.773 539.069 338.152C539.067 338.656 538.866 339.139 538.509 339.496C538.153 339.853 537.67 340.054 537.166 340.057ZM537.166 337.053C537.014 337.04 536.862 337.058 536.718 337.107C536.574 337.156 536.441 337.235 536.329 337.338C536.217 337.441 536.128 337.566 536.066 337.705C536.005 337.845 535.974 337.995 535.974 338.148C535.974 338.3 536.005 338.451 536.066 338.59C536.128 338.729 536.217 338.854 536.329 338.957C536.441 339.06 536.574 339.139 536.718 339.188C536.862 339.237 537.014 339.256 537.166 339.243C537.44 339.219 537.695 339.093 537.881 338.891C538.066 338.688 538.17 338.423 538.17 338.148C538.17 337.873 538.066 337.608 537.881 337.405C537.695 337.202 537.44 337.077 537.166 337.053Z" fill="#061B24"/>
<path d="M526.284 353.919C526.284 354.217 526.195 354.509 526.029 354.756C525.864 355.004 525.628 355.197 525.353 355.311C525.077 355.425 524.774 355.454 524.482 355.395C524.19 355.337 523.922 355.192 523.712 354.981C523.502 354.77 523.359 354.5 523.302 354.208C523.245 353.915 523.276 353.612 523.391 353.337C523.506 353.062 523.7 352.827 523.949 352.663C524.197 352.498 524.489 352.411 524.787 352.413C524.984 352.413 525.18 352.452 525.362 352.528C525.544 352.604 525.709 352.715 525.848 352.855C525.987 352.995 526.097 353.161 526.172 353.343C526.247 353.526 526.285 353.722 526.284 353.919Z" fill="white"/>
<path d="M524.787 355.824C524.408 355.825 524.038 355.714 523.722 355.505C523.407 355.295 523.16 354.997 523.015 354.647C522.869 354.297 522.83 353.912 522.904 353.54C522.977 353.168 523.16 352.826 523.427 352.558C523.695 352.29 524.036 352.108 524.408 352.034C524.779 351.961 525.165 351.999 525.514 352.145C525.864 352.291 526.162 352.537 526.371 352.853C526.581 353.169 526.692 353.54 526.69 353.919C526.688 354.424 526.487 354.907 526.13 355.264C525.774 355.62 525.291 355.822 524.787 355.824ZM524.787 352.82C524.635 352.807 524.483 352.826 524.339 352.875C524.195 352.924 524.062 353.002 523.95 353.105C523.838 353.208 523.749 353.333 523.687 353.473C523.626 353.612 523.595 353.763 523.595 353.915C523.595 354.067 523.626 354.218 523.687 354.357C523.749 354.497 523.838 354.622 523.95 354.725C524.062 354.828 524.195 354.906 524.339 354.955C524.483 355.004 524.635 355.023 524.787 355.01C525.061 354.986 525.316 354.861 525.502 354.658C525.688 354.455 525.791 354.19 525.791 353.915C525.791 353.64 525.688 353.375 525.502 353.172C525.316 352.969 525.061 352.844 524.787 352.82Z" fill="#061B24"/>
<path d="M533.791 356.923C533.791 357.221 533.702 357.512 533.537 357.759C533.372 358.007 533.137 358.2 532.862 358.314C532.587 358.428 532.284 358.458 531.993 358.4C531.701 358.342 531.432 358.198 531.222 357.987C531.012 357.777 530.868 357.509 530.81 357.216C530.752 356.924 530.782 356.622 530.896 356.346C531.01 356.071 531.203 355.836 531.45 355.671C531.698 355.505 531.988 355.417 532.286 355.417C532.484 355.416 532.68 355.454 532.863 355.529C533.046 355.604 533.212 355.715 533.352 355.855C533.492 355.995 533.603 356.162 533.678 356.345C533.754 356.528 533.792 356.725 533.791 356.923Z" fill="white"/>
<path d="M532.286 358.828C531.908 358.828 531.538 358.715 531.223 358.505C530.909 358.294 530.664 357.995 530.519 357.645C530.375 357.295 530.338 356.91 530.412 356.538C530.486 356.167 530.669 355.826 530.937 355.559C531.205 355.292 531.547 355.11 531.918 355.037C532.289 354.965 532.674 355.004 533.023 355.15C533.372 355.296 533.67 355.542 533.879 355.858C534.088 356.173 534.199 356.544 534.197 356.923C534.197 357.174 534.148 357.422 534.052 357.654C533.955 357.885 533.815 358.096 533.637 358.273C533.459 358.449 533.249 358.59 533.017 358.685C532.785 358.78 532.537 358.829 532.286 358.828ZM532.286 355.824C532.069 355.824 531.856 355.888 531.676 356.009C531.495 356.13 531.355 356.301 531.272 356.502C531.188 356.703 531.167 356.924 531.209 357.137C531.251 357.35 531.356 357.546 531.51 357.7C531.663 357.853 531.859 357.958 532.072 358.001C532.285 358.043 532.505 358.021 532.706 357.938C532.907 357.855 533.078 357.714 533.199 357.533C533.32 357.353 533.384 357.14 533.384 356.923C533.384 356.778 533.356 356.636 533.3 356.502C533.245 356.369 533.164 356.248 533.062 356.146C532.96 356.044 532.839 355.963 532.706 355.907C532.573 355.852 532.43 355.824 532.286 355.824Z" fill="#061B24"/>
<path d="M541.29 356.923C541.29 357.221 541.201 357.512 541.035 357.76C540.87 358.008 540.634 358.201 540.359 358.315C540.083 358.428 539.78 358.458 539.488 358.399C539.196 358.34 538.928 358.196 538.718 357.985C538.508 357.773 538.365 357.504 538.308 357.211C538.251 356.919 538.282 356.616 538.397 356.341C538.512 356.066 538.706 355.831 538.955 355.667C539.203 355.502 539.495 355.415 539.793 355.417C539.99 355.417 540.186 355.456 540.368 355.532C540.55 355.607 540.715 355.718 540.854 355.858C540.993 355.998 541.103 356.164 541.178 356.347C541.253 356.53 541.291 356.725 541.29 356.923Z" fill="white"/>
<path d="M539.793 358.827C539.414 358.829 539.044 358.718 538.728 358.509C538.413 358.299 538.166 358 538.021 357.65C537.875 357.301 537.836 356.915 537.91 356.543C537.983 356.172 538.166 355.83 538.433 355.562C538.701 355.294 539.043 355.112 539.414 355.038C539.786 354.965 540.171 355.003 540.52 355.149C540.87 355.295 541.168 355.541 541.378 355.857C541.587 356.173 541.698 356.544 541.696 356.923C541.694 357.427 541.493 357.91 541.136 358.267C540.78 358.624 540.297 358.825 539.793 358.827ZM539.793 355.824C539.641 355.811 539.489 355.829 539.345 355.878C539.201 355.927 539.069 356.006 538.956 356.109C538.844 356.212 538.755 356.337 538.693 356.476C538.632 356.616 538.601 356.766 538.601 356.919C538.601 357.071 538.632 357.222 538.693 357.361C538.755 357.5 538.844 357.625 538.956 357.728C539.069 357.831 539.201 357.91 539.345 357.959C539.489 358.008 539.641 358.027 539.793 358.013C540.067 357.99 540.322 357.864 540.508 357.662C540.694 357.459 540.797 357.194 540.797 356.919C540.797 356.644 540.694 356.378 540.508 356.176C540.322 355.973 540.067 355.847 539.793 355.824Z" fill="#061B24"/>
<path d="M472.165 129.931V82.2141H327.041V129.963L329.538 133.748C331.257 136.192 333.737 137.995 336.59 138.877C340.884 140.293 345.537 139.202 349.286 136.695C352.082 134.787 355.385 133.761 358.77 133.748C368.896 133.748 377.037 142.857 377.037 154.212C377.037 165.568 368.904 174.611 358.77 174.611C355.385 174.599 352.082 173.573 349.286 171.665C345.504 169.092 340.819 168.002 336.525 169.483C333.689 170.327 331.224 172.113 329.538 174.546L327.041 178.266V226.707H375.435L379.217 224.2C381.656 222.519 383.445 220.051 384.284 217.208C385.756 212.91 384.666 208.254 382.104 204.444C380.194 201.647 379.165 198.341 379.152 194.953C379.152 184.811 388.261 176.663 399.542 176.663C410.823 176.663 419.989 184.803 419.989 194.953C419.976 198.341 418.947 201.647 417.037 204.444C414.54 208.164 413.45 212.845 414.857 217.151C415.742 220.004 417.546 222.483 419.989 224.2L423.771 226.707H472.165V178.266L472.262 178.128L472.213 129.963L472.165 129.931Z" fill="white"/>
<path d="M472.165 227.147H423.747C423.666 227.145 423.588 227.123 423.519 227.082L419.737 224.575C417.221 222.803 415.362 220.247 414.45 217.306C413.084 213.146 413.897 208.352 416.679 204.282C418.544 201.552 419.547 198.325 419.558 195.018C419.558 185.161 410.571 177.11 399.518 177.11C388.464 177.11 379.534 185.136 379.534 195.018C379.549 198.324 380.551 201.551 382.413 204.282C385.252 208.474 386.065 213.236 384.642 217.411C383.782 220.341 381.937 222.883 379.42 224.607L375.662 227.106C375.594 227.148 375.515 227.171 375.435 227.171H327.041C326.934 227.171 326.83 227.128 326.754 227.052C326.678 226.976 326.635 226.872 326.635 226.764V178.266C326.635 178.188 326.658 178.112 326.7 178.046L329.197 174.261C330.926 171.739 333.471 169.89 336.403 169.027C340.543 167.603 345.35 168.417 349.514 171.258C352.235 173.144 355.46 174.168 358.77 174.196C368.619 174.196 376.663 165.242 376.663 154.204C376.663 143.166 368.652 134.147 358.77 134.147C355.466 134.158 352.241 135.162 349.514 137.029C345.374 139.813 340.616 140.619 336.5 139.259C333.561 138.348 331.007 136.487 329.237 133.968L326.732 130.175C326.691 130.109 326.669 130.033 326.667 129.955V82.2141C326.667 82.1062 326.71 82.0027 326.786 81.9263C326.863 81.85 326.966 81.8071 327.074 81.8071H472.165C472.272 81.8071 472.376 81.85 472.452 81.9263C472.528 82.0027 472.571 82.1062 472.571 82.2141V129.841C472.604 129.898 472.62 129.963 472.62 130.028L472.669 178.193C472.667 178.273 472.645 178.352 472.604 178.421V226.74C472.604 226.796 472.592 226.852 472.57 226.903C472.547 226.955 472.515 227.002 472.473 227.04C472.432 227.078 472.383 227.107 472.33 227.126C472.277 227.144 472.221 227.151 472.165 227.147ZM423.893 226.333H471.733V178.266C471.733 178.187 471.759 178.109 471.807 178.046V178.006L471.758 130.085C471.725 130.028 471.709 129.964 471.709 129.898V82.5886H327.448V129.801L329.888 133.48C331.554 135.849 333.956 137.601 336.72 138.462C340.632 139.748 345.13 138.966 349.058 136.329C351.921 134.373 355.303 133.321 358.77 133.309C369.066 133.309 377.476 142.67 377.476 154.18C377.476 165.69 369.099 174.986 358.77 174.986C355.303 174.974 351.921 173.922 349.058 171.966C345.081 169.271 340.559 168.49 336.655 169.833C333.903 170.633 331.51 172.358 329.88 174.717L327.44 178.396V226.308H375.305L378.989 223.866C381.347 222.236 383.071 219.841 383.869 217.086C385.211 213.17 384.438 208.653 381.738 204.672C379.787 201.806 378.736 198.421 378.721 194.953C378.721 184.64 388.05 176.231 399.518 176.231C410.986 176.231 420.371 184.615 420.371 194.953C420.36 198.422 419.309 201.808 417.354 204.672C414.711 208.604 413.938 213.097 415.223 217.021C416.075 219.791 417.823 222.199 420.192 223.866L423.893 226.333Z" fill="#061B24"/>
<path d="M373.426 118.38C372.474 119.129 370.62 119.495 367.879 119.495C365.091 119.489 362.336 118.893 359.794 117.745C357.154 116.589 354.196 115.268 350.921 113.781C347.223 112.151 343.419 110.775 339.534 109.662C335.464 108.533 331.298 107.784 327.09 107.424V111.941C333.454 112.707 339.615 114.677 345.244 117.745C351.335 121.125 356.759 125.588 361.25 130.916C362.242 132.096 363.186 133.358 364.089 134.579C364.528 134.725 364.959 134.896 365.382 135.083L365.52 135.14C366.389 135.522 367.225 135.977 368.017 136.5H368.074C368.464 136.76 368.847 137.031 369.221 137.314L369.327 137.395C370.049 137.971 370.731 138.597 371.368 139.267L371.563 139.479C371.84 139.788 372.116 140.106 372.377 140.431L372.645 140.773C372.824 141.012 372.995 141.248 373.157 141.481C373.328 141.717 373.483 141.953 373.637 142.198C373.792 142.442 373.881 142.572 373.995 142.767C374.109 142.963 374.263 143.223 374.394 143.459L374.459 143.598C376.187 146.835 377.084 150.452 377.069 154.123C377.071 156.432 376.717 158.727 376.02 160.928C376.817 163.874 377.484 166.859 378.021 169.882H381.827V112.829H377.387C375.695 115.797 374.375 117.647 373.426 118.38Z" fill="#061B24"/>
<path d="M327.041 226.74H375.435L379.217 224.233C379.745 223.892 380.241 223.502 380.697 223.069C375.353 219.115 369.494 215.911 363.284 213.545C357.265 211.325 352.775 209.792 349.815 208.946L327.041 202.361V226.781V226.74Z" fill="#061B24"/>
<path d="M423.909 226.772L420.127 224.273C417.693 222.587 415.905 220.121 415.06 217.281C413.588 212.983 414.678 208.327 417.24 204.509C419.15 201.712 420.179 198.406 420.192 195.018C420.192 184.876 411.091 176.671 399.81 176.671C388.529 176.671 379.355 184.876 379.355 195.018C379.378 198.405 380.405 201.708 382.307 204.509C384.804 208.229 385.894 212.918 384.487 217.216C383.606 220.073 381.8 222.556 379.355 224.273L375.573 226.772H327.18V275.214L324.675 278.999C322.938 281.424 320.464 283.223 317.623 284.127C313.329 285.543 308.676 284.452 304.935 281.945C302.149 280.01 298.835 278.981 295.443 278.999C285.317 278.999 277.176 288.107 277.176 299.397C277.176 310.688 285.317 319.902 295.443 319.902C298.83 319.889 302.135 318.862 304.935 316.955C308.717 314.383 313.394 313.227 317.688 314.709C320.52 315.596 322.978 317.4 324.675 319.837L327.18 323.622V371.998H472.351V226.772H423.909Z" fill="#27B4F2"/>
<path d="M327.139 372.454C327.059 372.454 326.98 372.429 326.914 372.384C326.847 372.34 326.795 372.276 326.765 372.202C326.743 372.152 326.731 372.098 326.731 372.043C326.731 371.988 326.743 371.934 326.765 371.884V323.704L324.325 320.024C322.679 317.658 320.292 315.908 317.542 315.051C313.678 313.724 309.164 314.522 305.146 317.248C302.282 319.206 298.896 320.258 295.427 320.268C285.13 320.268 276.72 310.907 276.72 299.397C276.72 287.887 285.098 278.592 295.427 278.592C298.914 278.568 302.322 279.622 305.187 281.612C309.107 284.249 313.597 285.03 317.517 283.744C320.273 282.867 322.672 281.122 324.357 278.771L326.797 275.091V226.772C326.797 226.664 326.84 226.561 326.916 226.485C326.993 226.408 327.096 226.365 327.204 226.365H375.475L379.16 223.923C381.524 222.253 383.269 219.846 384.121 217.078C385.414 213.162 384.633 208.661 381.99 204.729C380.042 201.861 378.992 198.478 378.973 195.01C378.973 184.664 388.334 176.288 399.835 176.288C411.335 176.288 420.623 184.697 420.623 195.01C420.612 198.479 419.561 201.865 417.606 204.729C414.906 208.71 414.133 213.227 415.475 217.135C416.271 219.893 417.995 222.291 420.355 223.923L424.039 226.365H472.319C472.427 226.365 472.53 226.408 472.607 226.485C472.683 226.561 472.726 226.664 472.726 226.772V371.998C472.724 372.105 472.68 372.208 472.604 372.284C472.528 372.359 472.426 372.403 472.319 372.405L327.139 372.454ZM313.727 313.61C315.11 313.609 316.484 313.835 317.794 314.277C320.714 315.191 323.245 317.057 324.984 319.577L327.489 323.362C327.531 323.427 327.554 323.503 327.554 323.581V371.607H471.872V227.179H423.885C423.805 227.178 423.726 227.155 423.657 227.114L419.875 224.607C417.358 222.879 415.514 220.335 414.654 217.403C413.23 213.26 414.044 208.449 416.882 204.282C418.744 201.551 419.747 198.324 419.761 195.018C419.761 185.12 410.815 177.11 399.786 177.11C388.757 177.11 379.737 185.153 379.737 195.018C379.761 198.338 380.775 201.575 382.649 204.314C385.422 208.449 386.236 213.203 384.869 217.338C383.96 220.28 382.101 222.837 379.583 224.607L375.801 227.106C375.732 227.148 375.653 227.171 375.573 227.171H327.586V275.197C327.585 275.275 327.562 275.351 327.521 275.417L325.016 279.202C323.236 281.708 320.69 283.565 317.761 284.493C313.597 285.861 308.815 285.055 304.707 282.271C301.989 280.379 298.754 279.372 295.443 279.389C285.602 279.389 277.55 288.343 277.55 299.381C277.55 310.419 285.569 319.438 295.443 319.438C298.75 319.427 301.977 318.423 304.707 316.557C307.353 314.696 310.494 313.669 313.727 313.61Z" fill="#061B24"/>
<path d="M323.511 280.439C322.248 281.754 320.74 282.808 319.071 283.541V315.222C320.741 315.948 322.251 316.999 323.511 318.315V280.439Z" fill="#061B24"/>
<path d="M310.514 284.387C308.906 284.011 307.362 283.397 305.935 282.564V316.28C307.361 315.433 308.904 314.802 310.514 314.408V284.387Z" fill="#061B24"/>
<path d="M382.616 319.487C389.43 312.693 394.817 304.603 398.46 295.694C402.142 286.796 404.027 277.257 404.007 267.627C404.007 256.844 401.735 247.909 397.191 240.822C393.012 234.137 387.641 228.277 381.348 223.533L380.778 223.126C380.334 223.544 379.858 223.928 379.355 224.273L375.573 226.772H327.18V236.964L339.973 240.659C344.518 242.051 348.963 243.748 353.279 245.739C357.958 247.876 362.288 250.708 366.122 254.139C370.183 257.845 373.467 262.322 375.784 267.31C378.322 272.595 379.591 279.045 379.591 286.658C379.507 292.297 378.653 297.898 377.053 303.305C375.313 309.425 372.288 315.103 368.18 319.959C363.95 325.039 358.257 329.269 351.1 332.649C344.712 335.656 336.744 337.325 327.196 337.656V342.1C338.387 341.736 348.467 339.696 357.436 335.979C366.833 332.196 375.391 326.592 382.616 319.487Z" fill="#061B24"/>
<path d="M295.411 278.958C298.796 278.969 302.101 279.999 304.894 281.913C308.619 284.477 313.296 285.568 317.655 284.159C320.471 283.234 322.918 281.435 324.642 279.023L327.139 275.238V226.805H278.746L274.964 224.298C272.524 222.603 270.718 220.143 269.831 217.306C268.359 213.008 269.514 208.352 272.076 204.542C273.988 201.743 275.016 198.433 275.029 195.043C275.029 184.908 265.862 176.76 254.573 176.76C243.284 176.76 234.191 184.9 234.191 195.043C234.173 198.438 235.204 201.756 237.144 204.542C239.641 208.262 240.73 212.943 239.323 217.24C238.418 220.085 236.618 222.561 234.191 224.298L230.409 226.805H182.016V372.047H327.139V323.614L324.642 319.829C322.928 317.38 320.446 315.572 317.59 314.693C313.231 313.284 308.644 314.375 304.837 316.874C302.064 318.787 298.779 319.816 295.411 319.829C285.285 319.829 277.078 310.72 277.078 299.422C277.078 288.124 285.285 278.958 295.411 278.958Z" fill="white"/>
<path d="M327.139 372.454H182.016C181.908 372.454 181.805 372.411 181.728 372.335C181.652 372.258 181.609 372.155 181.609 372.047V226.797C181.609 226.689 181.652 226.585 181.728 226.509C181.805 226.433 181.908 226.39 182.016 226.39H230.287L233.972 223.948C236.323 222.264 238.064 219.861 238.933 217.102C240.218 213.187 239.445 208.685 236.802 204.762C234.824 201.905 233.771 198.51 233.785 195.034C233.785 184.729 243.114 176.312 254.573 176.312C266.033 176.312 275.435 184.697 275.435 195.034C275.421 198.506 274.37 201.893 272.418 204.762C269.693 208.775 268.896 213.301 270.222 217.167C271.073 219.918 272.819 222.306 275.183 223.948L278.868 226.39H327.139C327.247 226.39 327.35 226.433 327.427 226.509C327.503 226.585 327.546 226.689 327.546 226.797V275.238C327.545 275.318 327.523 275.397 327.481 275.466L324.984 279.251C323.213 281.738 320.694 283.592 317.794 284.542C313.548 285.918 308.766 285.079 304.667 282.246C301.938 280.383 298.714 279.379 295.411 279.365C285.529 279.365 277.518 288.368 277.518 299.422C277.518 310.476 285.561 319.422 295.411 319.422C298.695 319.399 301.898 318.396 304.61 316.54C308.782 313.773 313.556 312.959 317.712 314.31C320.654 315.215 323.21 317.077 324.976 319.601L327.481 323.386C327.523 323.455 327.545 323.533 327.546 323.614V372.047C327.546 372.1 327.535 372.153 327.515 372.203C327.494 372.252 327.464 372.297 327.427 372.335C327.389 372.372 327.344 372.402 327.295 372.423C327.245 372.443 327.192 372.454 327.139 372.454ZM182.423 371.64H326.732V323.736L324.292 320.049C322.626 317.683 320.224 315.937 317.46 315.083C313.54 313.813 309.018 314.587 305.049 317.216C302.207 319.163 298.847 320.215 295.403 320.236C285.073 320.236 276.696 310.899 276.696 299.422C276.696 287.944 285.106 278.551 295.403 278.551C298.868 278.565 302.251 279.617 305.114 281.571C309.01 284.257 313.532 285.063 317.517 283.769C320.251 282.879 322.628 281.136 324.3 278.795L326.74 275.116V227.204H278.754C278.673 227.207 278.593 227.184 278.526 227.139L274.736 224.664C272.222 222.918 270.362 220.383 269.449 217.46C268.042 213.349 268.872 208.563 271.743 204.339C273.604 201.604 274.607 198.376 274.622 195.067C274.622 185.21 265.627 177.159 254.573 177.159C243.52 177.159 234.598 185.177 234.598 195.067C234.589 198.374 235.6 201.603 237.493 204.314C240.275 208.457 241.088 213.219 239.722 217.379C238.789 220.309 236.934 222.859 234.435 224.648L230.637 227.106C230.57 227.152 230.49 227.175 230.409 227.171H182.423V371.64Z" fill="#061B24"/>
<path d="M327.139 337.655C325.951 337.696 324.748 337.721 323.511 337.721V318.413C322.256 317.08 320.746 316.014 319.071 315.279V337.721C316.33 337.721 313.475 337.59 310.514 337.346V314.424C308.907 314.785 307.364 315.386 305.935 316.207V336.874C303.918 336.622 301.869 336.329 299.738 335.979C292.357 334.655 285.337 331.79 279.136 327.57C272.369 323.131 266.082 316.364 260.275 307.269C254.468 298.174 249.872 285.592 246.489 269.524H243.008V337.721H247.758C248.404 335.747 249.426 333.917 250.767 332.332C251.93 331.062 254.102 330.427 257.274 330.427C261.611 330.57 265.895 331.428 269.953 332.967C274.833 334.66 279.377 336.139 283.585 337.403C286.746 338.25 289.704 338.99 292.458 339.625C295.12 340.251 297.813 340.732 300.527 341.066C302.256 341.272 304.059 341.454 305.935 341.612V364.672H310.514V341.88C313.076 342.019 315.923 342.1 319.071 342.1V364.306H323.511V342.165C324.731 342.165 325.951 342.165 327.139 342.1V337.655Z" fill="#061B24"/>
<path d="M261.706 208.311C264.018 210.662 266.524 212.813 269.197 214.741C268.881 211.095 269.876 207.455 272.003 204.477C273.913 201.68 274.942 198.374 274.955 194.986C274.922 192.388 274.308 189.831 273.16 187.502C272.012 185.172 270.358 183.129 268.319 181.522C264.41 178.422 259.56 176.753 254.573 176.793C252.652 176.796 250.739 177.042 248.88 177.525C249.607 190.023 253.882 200.285 261.706 208.311Z" fill="#061B24"/>
<path d="M300.689 229.239L305.935 230.785V282.572C307.359 283.415 308.903 284.035 310.514 284.412V232.12L319.071 234.636V283.573C320.738 282.82 322.246 281.753 323.511 280.431V235.905L327.139 236.956V226.805H293.133C295.557 227.66 298.062 228.474 300.689 229.239Z" fill="#061B24"/>
<path d="M126.327 165.999C124.318 165.95 117.819 169.255 117.819 169.255L124.09 189.239L165.798 184.412C166.229 184.351 166.625 184.144 166.921 183.825C167.218 183.507 167.395 183.096 167.425 182.662C167.709 181.237 175.786 143.223 175.786 143.223L166.449 141.197L156.973 169.052C156.973 169.052 128.328 166.056 126.327 165.999Z" fill="#061B24"/>
<path d="M123.797 189.662L117.291 169.035L117.592 168.881C117.86 168.742 124.098 165.576 126.246 165.576H126.294C128.198 165.625 153.305 168.254 156.624 168.596L166.131 140.708L176.217 142.898L176.135 143.288C176.054 143.671 168.051 181.318 167.783 182.719C167.739 183.237 167.521 183.725 167.163 184.102C166.805 184.48 166.329 184.724 165.814 184.794L124.131 189.662H123.797ZM118.307 169.45L124.375 188.775L165.749 183.988C166.424 183.899 166.855 183.419 167.018 182.564C167.278 181.237 174.436 147.562 175.298 143.492L166.733 141.636L157.25 169.458H156.933C156.64 169.458 128.303 166.455 126.335 166.406C124.83 166.341 120.3 168.498 118.307 169.467V169.45Z" fill="#061B24"/>
<path d="M184.976 124.811L181.723 125.226L177.364 126.463L180.723 123.427C180.723 123.427 184.082 121.937 184.619 121.579C185.155 121.221 184.822 120.204 184.537 120.244C183.108 120.36 181.692 120.608 180.308 120.985C179.397 121.392 174.615 124.51 174.615 124.51L177.933 120.44C177.933 120.44 181.585 117.469 181.878 116.752C182.17 116.036 181.878 115.214 180.95 115.531C179.197 116.489 177.573 117.668 176.119 119.04C175.444 119.797 171.76 123.256 171.76 123.256L172.191 122.141C172.191 122.141 175.704 117.363 176.079 116.541C176.453 115.718 176.339 114.782 175.932 114.636C175.525 114.489 174.655 115.189 174.021 116.264C173.386 117.338 168.482 123.232 168.262 123.744C168.043 124.257 167.677 137.094 167.677 137.094L166.4 141.245L174.891 143.085L175.582 138.763C175.582 138.763 176.461 137.403 176.851 136.679C177.242 135.954 178.315 130.908 178.315 130.908L181.943 127.749C183.153 127.329 184.324 126.801 185.44 126.17C186.253 125.609 185.351 124.762 184.976 124.811Z" fill="#061B24"/>
<path d="M175.265 143.525L165.92 141.498L167.311 136.98C167.425 133.065 167.701 124.054 167.929 123.533C168.768 122.305 169.672 121.123 170.637 119.992C171.939 118.364 173.411 116.516 173.72 116.003C174.362 114.937 175.395 113.993 176.111 114.237C176.228 114.283 176.334 114.353 176.423 114.443C176.511 114.532 176.579 114.64 176.623 114.758C176.829 115.396 176.783 116.09 176.493 116.695C176.225 117.273 174.606 119.552 173.517 121.05C174.501 120.114 175.534 119.113 175.851 118.755C177.353 117.328 179.037 116.107 180.861 115.124C181.069 115.029 181.302 115 181.527 115.04C181.752 115.081 181.96 115.19 182.122 115.352C182.292 115.566 182.399 115.824 182.429 116.097C182.46 116.369 182.412 116.644 182.292 116.891C181.991 117.631 179.169 119.967 178.226 120.716L176.542 122.784C177.957 121.888 179.633 120.847 180.153 120.61C181.502 120.198 182.894 119.946 184.301 119.862H184.497C184.797 119.862 185.066 120.041 185.212 120.431C185.328 120.689 185.355 120.977 185.288 121.251C185.222 121.525 185.067 121.77 184.846 121.945C184.326 122.295 181.503 123.573 180.95 123.801L178.941 125.617L181.617 124.86L184.871 124.428C185.122 124.437 185.366 124.518 185.573 124.663C185.779 124.807 185.939 125.008 186.034 125.242C186.127 125.469 186.138 125.722 186.063 125.955C185.989 126.189 185.834 126.389 185.627 126.52C184.515 127.141 183.347 127.656 182.138 128.059L178.722 131.054C178.34 132.993 177.848 134.909 177.25 136.793C176.9 137.436 176.201 138.543 176.005 138.836L175.265 143.525ZM166.961 140.895L174.598 142.523L175.281 138.453C175.281 138.453 176.16 137.094 176.534 136.394C177.111 134.522 177.586 132.62 177.957 130.696V130.558L181.821 127.228C182.98 126.849 184.101 126.364 185.172 125.779C185.351 125.649 185.326 125.551 185.318 125.511C185.292 125.427 185.247 125.35 185.188 125.286C185.129 125.221 185.057 125.17 184.976 125.136L181.78 125.543L175.802 127.245L180.568 122.979C181.902 122.385 184.025 121.408 184.399 121.164C184.428 121.139 184.452 121.107 184.469 121.072C184.486 121.037 184.495 120.999 184.497 120.961C184.511 120.833 184.491 120.704 184.44 120.586H184.391C183.068 120.663 181.758 120.893 180.487 121.27C179.787 121.579 176.493 123.712 174.842 124.77L172.671 126.186L177.681 120.024C179.069 118.977 180.352 117.796 181.512 116.5C181.569 116.398 181.598 116.283 181.598 116.166C181.598 116.049 181.569 115.934 181.512 115.832C181.422 115.735 181.219 115.775 181.105 115.832C179.418 116.768 177.852 117.908 176.445 119.227C175.769 119.992 172.215 123.297 172.061 123.476L170.751 124.697L171.89 121.823C173.289 119.91 175.477 116.866 175.737 116.288C175.846 116.08 175.91 115.851 175.922 115.617C175.935 115.382 175.897 115.147 175.81 114.929C175.205 115.253 174.712 115.752 174.395 116.361C174.061 116.915 172.638 118.706 171.255 120.431C170.157 121.815 168.815 123.541 168.653 123.793C168.515 124.347 168.238 132.186 168.108 136.988V137.094L166.961 140.895Z" fill="#061B24"/>
<path d="M279.787 50.81C276.955 52.6669 274.743 55.3287 273.435 58.4535C271.67 62.5805 268.335 66.04 263.967 67.1959C261.087 68.0464 258.003 67.8884 255.224 66.7481L251.068 64.9329L225.114 24.8516L103.334 103.867L181.975 225.153L222.471 198.877L224.342 194.685C225.428 191.904 225.591 188.847 224.805 185.967C223.65 181.595 220.194 178.258 216.021 176.532C212.897 175.227 210.236 173.012 208.384 170.175C202.87 161.669 206.131 149.825 215.598 143.696C225.066 137.566 237.192 139.398 242.699 147.904C244.533 150.753 245.468 154.088 245.383 157.477C245.293 162.051 246.871 166.61 250.442 169.41C252.717 171.294 255.543 172.385 258.494 172.519H263.081L303.691 146.17L277.347 105.503L277.387 100.961C277.477 97.9989 278.573 95.1562 280.494 92.902C283.292 89.3285 287.814 87.6924 292.377 87.79C295.763 87.8769 299.096 86.9408 301.942 85.1039C310.392 79.6256 312.32 67.5133 306.187 58.0383C300.055 48.5634 288.188 45.3318 279.787 50.81Z" fill="#27B4F2"/>
<path d="M181.975 225.527C181.907 225.526 181.841 225.509 181.781 225.476C181.722 225.443 181.671 225.396 181.634 225.34L103.001 104.054C102.969 104.011 102.948 103.962 102.938 103.91C102.928 103.857 102.93 103.804 102.944 103.753C102.952 103.7 102.972 103.649 103.001 103.604C103.031 103.559 103.069 103.521 103.114 103.492L224.887 24.5096C224.976 24.4507 225.086 24.4297 225.191 24.451C225.296 24.4723 225.388 24.5344 225.448 24.6236L251.32 64.591L255.387 66.3574C258.067 67.4577 261.041 67.6127 263.821 66.7969C267.806 65.7469 271.141 62.6455 273.02 58.2906C274.358 55.0904 276.624 52.3654 279.526 50.4681C288.164 44.8596 300.283 48.1563 306.545 57.7941C312.808 67.4319 310.824 79.8209 302.186 85.4701C299.284 87.3506 295.882 88.3096 292.426 88.2214C287.619 88.1156 283.406 89.9308 280.86 93.1787C278.988 95.3562 277.922 98.113 277.843 100.985L277.802 105.405L304.065 145.942C304.123 146.034 304.143 146.145 304.122 146.251C304.096 146.357 304.032 146.45 303.943 146.512L263.333 172.861C263.268 172.903 263.191 172.926 263.113 172.926H258.526C255.484 172.798 252.568 171.677 250.222 169.735C246.806 167.049 244.903 162.58 245.009 157.468C245.091 154.149 244.172 150.881 242.373 148.091C237.014 139.821 225.114 137.989 215.842 144.021C206.57 150.053 203.382 161.66 208.742 169.931C210.548 172.701 213.143 174.865 216.192 176.142C220.804 178.046 224.09 181.587 225.212 185.853C226.024 188.811 225.856 191.952 224.732 194.807L222.862 199.007C222.828 199.08 222.775 199.142 222.707 199.186L182.187 225.478C182.121 225.511 182.049 225.528 181.975 225.527ZM103.895 103.989L182.089 224.558L222.138 198.567L223.959 194.497C225.016 191.8 225.17 188.832 224.399 186.04C223.349 182.035 220.226 178.714 215.851 176.882C212.653 175.543 209.931 173.274 208.034 170.37C202.431 161.717 205.725 149.589 215.354 143.329C224.984 137.07 237.412 139.007 243.008 147.66C244.877 150.569 245.834 153.97 245.757 157.428C245.659 162.312 247.449 166.512 250.637 169.035C252.84 170.869 255.582 171.93 258.445 172.055H262.902L303.072 146.007L276.964 105.706C276.919 105.639 276.896 105.559 276.899 105.478L276.94 100.944C277.018 97.8884 278.147 94.953 280.136 92.6333C282.837 89.1819 287.294 87.2528 292.336 87.3667C295.666 87.4833 298.95 86.5741 301.747 84.7619C310.01 79.3977 311.865 67.5051 305.87 58.2581C299.876 49.011 288.237 45.7876 279.974 51.1519C277.206 52.9593 275.044 55.5568 273.768 58.6081C271.808 63.1909 268.262 66.4632 264.008 67.5621C261.056 68.4161 257.903 68.2439 255.061 67.0737L250.913 65.2585C250.841 65.2284 250.778 65.1774 250.734 65.112L225.001 25.3888L103.895 103.989Z" fill="#061B24"/>
<path d="M193.045 136.866L187.181 141.27L183.041 152.527C183.041 152.527 171.329 192.983 169.954 195.051C168.58 197.118 164.903 198.73 164.903 198.73L158.933 189.996L182.357 138.714L187.636 137.338L193.045 136.866Z" fill="#061B24"/>
<path d="M164.757 199.235L158.462 190.036L182.048 138.396L187.514 136.964L194.427 136.337L187.498 141.522L183.431 152.666C182.967 154.294 171.695 193.179 170.304 195.279C168.913 197.379 165.229 199.031 165.074 199.096L164.757 199.235ZM159.413 189.955L165.058 198.209C165.953 197.786 168.563 196.435 169.629 194.823C170.694 193.211 179.389 163.647 182.642 152.413L186.831 141.017L191.646 137.411L187.669 137.77L182.634 139.088L159.413 189.955Z" fill="#061B24"/>
<path d="M290.441 125.69L286.887 126.764L238.087 51.4368C239.153 50.8589 240.218 50.3298 241.283 49.8088L238.843 46.0156C237.811 46.5447 236.761 47.0982 235.688 47.7006L225.163 31.4775L221.438 33.9195L231.955 50.1995L231.141 50.7124C228.97 52.1206 226.904 53.6021 224.944 55.1324L214.24 38.5349L210.409 41.0258L221.422 58.0302C217.289 61.6406 213.585 65.7158 210.385 70.1751C205.236 77.2603 201.507 85.2766 199.405 93.7811C197.417 102.088 197.218 110.723 198.819 119.113C200.508 128.027 203.956 136.514 208.962 144.078C209.694 145.218 210.458 146.309 211.239 147.334C212.535 145.93 213.999 144.691 215.598 143.647C225.066 137.501 237.192 139.349 242.699 147.855C244.533 150.704 245.468 154.04 245.383 157.428C245.226 161.088 246.379 164.685 248.636 167.57C256.542 167.993 265.358 167.038 275.086 164.705L303.715 146.129L290.441 125.69ZM269.376 132.047C265.7 133.097 261.958 134.033 258.128 134.839C252.599 136.041 246.922 136.412 241.283 135.938C235.877 135.484 230.619 133.933 225.83 131.38C221.031 128.835 216.791 124.719 213.11 119.031C208.631 112.112 206.329 105.353 206.204 98.7547C206.032 92.4294 207.332 86.1508 210.003 80.4152C212.648 74.7977 216.223 69.6678 220.576 65.2423C221.707 64.0864 222.829 62.9956 223.951 61.9863L269.376 132.047ZM282.479 128.116L274.89 130.395L273.947 130.68L227.449 58.9175C229.399 57.2837 231.444 55.7671 233.573 54.3754L234.386 53.8544L282.479 128.116Z" fill="#061B24"/>
<path d="M284.667 48.6691C289.788 50.6721 294.651 53.2819 299.152 56.4428C302.615 58.8579 305.926 61.484 309.067 64.306C308.45 62.0828 307.498 59.9666 306.244 58.0301C301.153 50.2401 292.312 46.6992 284.667 48.6691Z" fill="#061B24"/>
<path d="M138.576 164.29L142.358 165.495L142.691 171.762L139.845 169.32V171.762C143.133 180.325 145.914 189.074 148.173 197.965C152.24 213.61 152.842 223.565 152.435 233.113C152.028 242.662 151.215 249.166 151.215 249.166L146.546 233.521L135.827 171.559L135.217 166.675L138.576 164.29Z" fill="#BFBFBF"/>
<path d="M151.378 251.135L146.156 233.618L135.387 171.599L134.745 166.463L138.511 163.818L142.748 165.169L143.147 172.666L140.251 170.183V171.656C143.52 180.219 146.296 188.962 148.563 197.843C152.923 214.644 153.199 224.705 152.842 233.113C152.435 242.564 151.63 249.125 151.622 249.19L151.378 251.135ZM135.615 166.87L136.193 171.502L146.945 233.455L151.012 247.131C151.288 244.501 151.744 239.463 152.012 233.097C152.362 224.778 152.093 214.774 147.758 198.095C145.497 189.221 142.725 180.486 139.454 171.933V171.787V168.457L142.252 170.899L141.984 165.861L138.665 164.803L135.615 166.87Z" fill="#061B24"/>
<path d="M148.58 232.308C148.58 232.308 152.028 250.387 152.842 258.103C153.655 265.82 161.056 290.907 160.056 302.108C159.625 306.992 158.917 351.518 158.917 351.518L161.821 353.634L161.007 360.61C161.007 360.61 172.093 366.422 174.468 367.212C176.843 368.001 175.786 365.625 176.843 368.026C177.9 370.427 173.679 371.73 167.604 372.259C163.91 372.57 160.193 372.48 156.518 371.99L153.858 370.37L153.086 371.925C153.086 371.925 149.393 371.803 148.287 371.803C147.588 371.8 146.891 371.759 146.197 371.681C146.197 371.681 145.213 366.756 144.96 364.664C144.708 362.572 144.594 360.35 144.594 360.35C144.594 360.35 142.626 358.014 142.626 356.784C142.626 355.555 144.106 350.745 144.106 350.745L142.333 322.1L141.577 303.94L135.827 279.202C135.827 279.202 131.004 306.251 130.434 307.489C129.865 308.726 111.972 355.303 111.972 355.303L113.444 356.532L111.817 362.075L116.494 367.366C116.494 367.366 124.123 371.062 124.123 371.681C124.123 372.299 123.139 373.309 123.139 373.309C119.569 373.442 115.995 373.36 112.435 373.064C109.691 372.776 106.972 372.281 104.302 371.583C102.822 371.217 100.731 368.881 100.731 368.881L99.2592 369.743L92.9803 366.17C92.9803 366.17 94.6069 357.916 95.3227 355.946C95.7598 354.768 96.5281 353.742 97.5349 352.991L100.731 347.822L113.208 300.187L113.753 256.842L112.427 248.889L114.981 233.423L148.58 232.308Z" fill="#061B24"/>
<path d="M119.446 373.708C117.1 373.726 114.754 373.623 112.419 373.398C109.733 373.111 107.072 372.63 104.456 371.957L104.253 371.909C102.952 371.583 101.301 369.947 100.707 369.32L99.308 370.134L92.5736 366.308L92.6305 366.015C92.6956 365.682 94.2572 357.712 94.9892 355.734C95.4487 354.506 96.2434 353.432 97.2828 352.633L100.406 347.586L112.85 300.057L113.395 256.768L112.061 248.816L114.68 232.983H115.013L148.913 231.901L148.978 232.243C148.978 232.422 152.443 250.427 153.248 258.079C153.517 260.667 154.55 265.275 155.745 270.614C158.145 281.335 161.129 294.684 160.463 302.165C160.048 306.78 159.381 347.993 159.324 351.331L162.252 353.455L161.439 360.391C163.065 361.253 172.467 366.137 174.59 366.846C175.509 367.155 175.713 366.911 175.826 366.772C175.882 366.693 175.956 366.629 176.043 366.586C176.13 366.543 176.226 366.523 176.323 366.528C176.64 366.577 176.705 366.715 177.209 367.855C177.346 368.139 177.411 368.452 177.4 368.767C177.389 369.081 177.301 369.389 177.144 369.662C176.249 371.176 173.077 372.177 167.636 372.649C163.91 372.961 160.161 372.874 156.453 372.389L156.306 372.332L154.045 370.973L153.346 372.364H153.086C153.086 372.364 149.393 372.242 148.303 372.242C147.589 372.238 146.875 372.197 146.164 372.12L145.871 372.08L145.814 371.795C145.814 371.591 144.822 366.829 144.578 364.745C144.367 362.955 144.245 361.058 144.212 360.545C143.789 360.024 142.236 358.038 142.236 356.817C142.236 355.596 143.48 351.477 143.708 350.728L141.975 322.149L141.219 303.98L135.9 281.188C134.737 287.7 131.329 306.544 130.825 307.635C130.32 308.726 113.948 351.323 112.476 355.148L113.932 356.369L112.305 361.945L116.778 367.016C124.562 370.785 124.562 371.371 124.562 371.656C124.562 372.397 123.643 373.358 123.464 373.545L123.35 373.651H123.187C123.187 373.651 121.569 373.708 119.446 373.708ZM100.853 368.286L101.073 368.531C101.634 369.157 103.326 370.842 104.44 371.119L104.643 371.168C107.226 371.836 109.855 372.309 112.508 372.584C115.992 372.879 119.49 372.963 122.984 372.837C123.305 372.518 123.559 372.139 123.732 371.721C123.187 371.176 119.617 369.279 116.347 367.651L116.217 367.554L111.427 362.132L113.013 356.63L111.516 355.384L111.622 355.116C112.354 353.211 129.515 308.506 130.093 307.277C130.499 306.398 133.525 289.939 135.461 279.088L135.802 277.143L142.024 303.85L142.797 322.084L144.513 350.834V350.907C143.878 352.84 143.391 354.818 143.057 356.825C143.057 357.639 144.204 359.267 144.928 360.13L145.017 360.236V360.366C145.017 360.366 145.139 362.596 145.383 364.656C145.595 366.414 146.335 370.256 146.555 371.347C147.136 371.407 147.719 371.437 148.303 371.437C149.247 371.437 151.988 371.526 152.85 371.55L153.704 369.841L156.656 371.607C160.272 372.08 163.929 372.165 167.563 371.86C174.305 371.274 176.022 369.979 176.436 369.271C176.529 369.109 176.578 368.925 176.578 368.738C176.578 368.551 176.529 368.367 176.436 368.205L176.152 367.57C175.874 367.734 175.559 367.825 175.236 367.835C174.913 367.845 174.593 367.774 174.305 367.627C171.931 366.813 161.243 361.237 160.788 361.001L160.536 360.871L161.349 353.854L158.462 351.754V351.542C158.462 349.727 159.169 306.919 159.6 302.108C160.259 294.782 157.291 281.473 154.899 270.81C153.704 265.446 152.663 260.814 152.386 258.185C151.646 251.152 148.669 235.287 148.189 232.755L115.331 233.805L112.834 248.848L114.151 256.736L113.606 300.244L101.114 347.944L97.8115 353.276C96.8758 353.982 96.1594 354.939 95.7456 356.036C95.1112 357.745 93.7773 364.428 93.4845 365.901L99.2999 369.214L100.853 368.286Z" fill="#061B24"/>
<path d="M137.705 127.334C137.705 127.334 141.406 131.233 141.601 132.991C141.797 134.75 140.918 136.5 141.406 137.281C141.894 138.063 146.473 142.54 146.286 143.126C146.099 143.712 143.749 145.372 143.749 145.372L136.347 164.192L118.999 157.916L120.943 152.063L113.151 144.363C113.151 144.363 112.663 135.979 118.608 130.126C124.554 124.273 137.705 127.334 137.705 127.334Z" fill="white"/>
<path d="M136.575 164.705L118.486 158.193L120.479 152.202L112.752 144.566V144.412C112.752 144.062 112.321 135.775 118.332 129.857C124.342 123.94 137.258 126.805 137.803 126.927H137.917L138.006 127.017C138.397 127.432 141.805 131.087 142.008 132.91C142.072 133.75 142.009 134.596 141.821 135.417C141.653 135.944 141.631 136.506 141.756 137.045C141.91 137.297 142.683 138.128 143.423 138.925C146.262 141.978 146.831 142.743 146.677 143.24C146.522 143.736 144.871 145.055 144.09 145.616L136.575 164.705ZM119.495 157.704L136.095 163.671L143.415 145.112L143.513 145.039C144.369 144.471 145.157 143.807 145.863 143.06C144.948 141.793 143.934 140.601 142.829 139.495C142.202 138.863 141.613 138.195 141.065 137.493C140.801 136.792 140.786 136.021 141.024 135.311C141.19 134.564 141.251 133.796 141.203 133.032C141.056 131.738 138.559 128.832 137.502 127.7C136.185 127.424 124.318 125.112 118.901 130.452C113.598 135.669 113.533 143.069 113.558 144.216L121.414 151.99L119.495 157.704Z" fill="#061B24"/>
<path d="M128.93 131.428C128.93 131.428 139.357 128.115 139.845 124.501C140.333 120.887 131.858 118.852 124.448 120.431C117.039 122.01 108.474 130.199 108.181 137.013C107.889 143.826 117.73 150.663 118.316 150.956C118.901 151.249 118.804 152.706 119.942 153.097C121.081 153.488 121.504 153.781 123.065 152.511C124.627 151.241 124.229 147.627 124.229 147.627C124.229 147.627 119.845 146.951 119.259 143.923C118.673 140.895 121.309 139.341 123.065 140.317C124.822 141.294 126.278 144.9 126.669 145.975C127.059 147.049 127.059 154.164 129.588 155.922C132.118 157.68 140.699 159.137 143.326 159.039C145.953 158.942 146.254 157.965 145.668 155.783C145.082 153.602 144.106 149.442 144.041 148.457C143.976 147.472 144.855 145.73 143.749 145.34C142.642 144.949 140.145 147.188 137.518 149.336C136.467 150.249 135.358 151.095 134.2 151.868C134.2 151.868 134.2 151.583 130.947 146.317C127.693 141.05 126.368 138.608 126.368 138.315C126.368 138.022 132.118 137.346 131.532 134.904C131.157 133.447 130.222 132.198 128.93 131.428Z" fill="#061B24"/>
<path d="M143.073 159.438C140.023 159.438 131.923 157.997 129.385 156.239C127.344 154.823 126.847 150.427 126.555 147.798C126.513 147.226 126.431 146.658 126.311 146.097C126.148 145.641 124.684 141.636 122.887 140.659C122.535 140.477 122.139 140.399 121.744 140.433C121.349 140.468 120.973 140.614 120.658 140.855C120.221 141.2 119.896 141.667 119.724 142.198C119.551 142.728 119.54 143.297 119.69 143.834C120.211 146.536 124.277 147.204 124.318 147.212L124.627 147.261V147.57C124.627 147.725 125.026 151.412 123.309 152.804C121.772 154.058 121.17 153.927 120.056 153.553L119.796 153.463C119.453 153.318 119.147 153.095 118.903 152.813C118.66 152.531 118.483 152.196 118.389 151.835C118.329 151.625 118.224 151.43 118.08 151.266C117.974 151.217 107.417 144.241 107.726 136.947C108.035 129.654 117.112 121.481 124.318 119.984C130.011 118.787 136.673 119.699 139.169 122.019C139.536 122.319 139.823 122.707 140.003 123.146C140.183 123.585 140.252 124.062 140.202 124.534C139.755 127.79 132.37 130.639 129.792 131.526C130.836 132.349 131.579 133.493 131.906 134.782C132.443 136.996 129.003 137.924 127.352 138.372L126.856 138.51C127.108 139.048 128.035 140.773 131.28 146.08C133.183 149.19 133.98 150.598 134.314 151.249C134.745 150.94 135.607 150.297 137.201 148.995L138.063 148.286C140.918 145.942 142.716 144.526 143.83 144.933C144.944 145.34 144.643 146.504 144.505 147.375C144.425 147.711 144.387 148.055 144.391 148.4C144.481 149.328 145.432 153.447 146.018 155.645C146.294 156.671 146.481 157.713 145.945 158.445C145.505 159.039 144.692 159.332 143.301 159.381L143.073 159.438ZM121.927 139.609C122.39 139.605 122.847 139.72 123.253 139.943C125.229 141.042 126.758 145.03 127.043 145.82C127.195 146.44 127.293 147.072 127.335 147.708C127.596 150.037 128.076 154.359 129.816 155.564C132.183 157.192 140.658 158.697 143.301 158.616C144.391 158.575 145.05 158.38 145.318 158.014C145.587 157.647 145.57 157.021 145.269 155.914C144.708 153.879 143.7 149.589 143.594 148.531C143.584 148.112 143.625 147.694 143.716 147.285C143.887 146.325 143.911 145.877 143.57 145.755C142.829 145.486 140.487 147.383 138.6 148.97L137.73 149.686C136.662 150.613 135.537 151.472 134.363 152.259L133.753 152.609V151.974C133.671 151.778 133.191 150.81 130.597 146.561C125.961 138.958 125.961 138.551 125.961 138.347C125.961 137.965 126.262 137.883 127.157 137.639C128.564 137.265 131.483 136.475 131.134 135.034C130.783 133.669 129.905 132.498 128.694 131.778L127.88 131.323L128.799 131.03C131.63 130.134 139.064 127.188 139.43 124.444C139.463 124.101 139.41 123.755 139.275 123.438C139.14 123.121 138.927 122.843 138.657 122.629C136.331 120.472 129.995 119.65 124.529 120.798C116.9 122.426 108.857 130.566 108.58 136.996C108.303 143.427 117.616 150.118 118.486 150.557C118.832 150.793 119.081 151.146 119.186 151.551C119.381 152.039 119.568 152.511 120.089 152.682L120.365 152.772C121.284 153.089 121.561 153.187 122.805 152.169C123.838 151.355 123.919 149.06 123.854 147.945C122.781 147.717 119.405 146.781 118.861 143.98C118.687 143.291 118.716 142.565 118.946 141.892C119.175 141.219 119.595 140.627 120.154 140.187C120.69 139.798 121.338 139.595 122 139.609H121.927Z" fill="#061B24"/>
<path d="M137.185 137.07L136.461 136.703C136.632 136.261 136.899 135.862 137.244 135.537C137.589 135.211 138.002 134.968 138.454 134.823C138.754 134.76 139.065 134.762 139.365 134.828C139.665 134.894 139.947 135.023 140.194 135.206L139.698 135.849C139.544 135.74 139.369 135.664 139.185 135.625C139 135.586 138.81 135.584 138.625 135.621C138.088 135.743 137.608 136.231 137.185 137.07Z" fill="#061B24"/>
<path d="M142.171 150.452C141.152 150.449 140.15 150.198 139.251 149.719L139.657 149.019C140.711 149.562 141.912 149.751 143.082 149.556L143.236 150.37C142.884 150.432 142.528 150.459 142.171 150.452Z" fill="white"/>
<path d="M139.828 139.642C140.015 140.456 139.901 141.172 139.584 141.27C139.267 141.368 138.869 140.741 138.69 139.927C138.511 139.113 138.616 138.388 138.934 138.299C139.251 138.209 139.649 138.82 139.828 139.642Z" fill="#061B24"/>
<path d="M118.804 155.906L138.576 164.29L137.12 170.33L117.047 159.805L118.804 155.906Z" fill="white"/>
<path d="M137.388 170.94L116.518 159.984L118.592 155.368L139.08 164.045L137.388 170.94ZM117.575 159.617L136.843 169.727L138.104 164.526L119.007 156.435L117.575 159.617Z" fill="#061B24"/>
<path d="M137.12 170.33C137.12 170.33 144.115 181.726 145.733 201.221C147.352 220.716 148.58 232.308 148.58 232.308L140.048 233.317L137.12 170.33Z" fill="white"/>
<path d="M139.666 233.773L136.64 168.775L137.453 170.118C137.527 170.232 144.521 181.807 146.132 201.188C147.742 220.57 148.962 232.12 148.97 232.259L149.019 232.658L139.666 233.773ZM137.608 172.08L140.438 232.861L148.132 231.949C147.905 229.744 146.774 218.551 145.326 201.254C144.066 186.113 139.503 175.824 137.608 172.08Z" fill="#061B24"/>
<path d="M117.047 159.805L114.802 164.778C114.802 164.778 108.165 179.837 108.352 183.175C108.539 186.512 112.053 220.244 112.053 220.244L104.277 256.41C104.277 256.41 115.388 263.891 125.945 264.819C136.502 265.747 143.147 263.525 143.147 263.525C143.147 263.525 144.261 240.26 143.147 225.429C142.032 210.598 140.552 184.103 139.259 178.73C137.966 173.358 137.104 170.33 137.104 170.33L117.047 159.805Z" fill="#BFBFBF"/>
<path d="M130.995 265.446C129.418 265.446 127.742 265.38 125.904 265.226C115.331 264.298 104.164 256.825 104.05 256.752L103.822 256.597L111.638 220.22C111.419 218.12 108.125 186.463 107.946 183.199C107.759 179.805 114.159 165.226 114.452 164.615L116.892 159.243L137.453 170.053L137.502 170.224C137.502 170.224 138.381 173.309 139.657 178.632C140.642 182.702 141.707 198.51 142.659 212.47C142.976 217.175 143.277 221.66 143.561 225.405C144.659 240.057 143.561 263.305 143.561 263.541V263.818L143.301 263.907C139.294 265.009 135.15 265.527 130.995 265.446ZM104.733 256.223C106.36 257.281 116.477 263.549 125.977 264.412C135.16 265.226 141.431 263.598 142.773 263.215C142.895 260.496 143.789 239.21 142.773 225.462C142.496 221.717 142.187 217.232 141.87 212.527C140.926 198.592 139.853 182.808 138.893 178.828C137.787 174.221 136.99 171.315 136.786 170.615L117.266 160.366L115.201 164.941C115.135 165.087 108.604 179.951 108.783 183.15C108.962 186.349 112.443 219.861 112.484 220.203V220.26V220.325L104.733 256.223Z" fill="#061B24"/>
<path d="M139.666 213.056L131.077 172.364L114.639 165.144L114.973 164.404L131.784 171.787L140.463 212.894L139.666 213.056Z" fill="#061B24"/>
<path d="M120.471 170.94C120.471 170.94 127.335 168.498 129.32 168.799C131.305 169.1 159.308 175.751 159.308 175.751L172.28 149.336L181.284 152.544C181.284 152.544 168.409 189.174 167.953 190.59C167.869 191.017 167.64 191.401 167.305 191.679C166.97 191.956 166.55 192.109 166.115 192.112L124.131 191.559" fill="#BFBFBF"/>
<path d="M166.115 192.495L124.131 191.941V191.127L166.107 191.681C166.79 191.681 167.278 191.266 167.555 190.435C167.986 189.149 179.381 156.687 180.755 152.772L172.475 149.817L159.519 176.198L159.202 176.125C158.925 176.06 131.199 169.483 129.255 169.182C127.718 168.938 122.48 170.631 120.601 171.298L120.325 170.533C120.609 170.435 127.311 168.091 129.377 168.376C131.264 168.669 155.827 174.489 159.072 175.254L172.085 148.807L181.845 152.275L181.707 152.658C181.577 153.024 168.832 189.336 168.376 190.688C168.266 191.204 167.98 191.666 167.568 191.995C167.156 192.324 166.643 192.501 166.115 192.495Z" fill="#061B24"/>
<path d="M172.28 149.312L174.078 145.356L181.707 148.034L180.462 152.226L172.28 149.312Z" fill="white"/>
<path d="M180.731 152.755L171.727 149.548L173.858 144.851L182.187 147.774L180.731 152.755ZM172.833 149.076L180.194 151.697L181.203 148.286L174.297 145.844L172.833 149.076Z" fill="#061B24"/>
<path d="M174.053 145.356C174.053 145.356 176.054 132.674 176.339 132.194C176.623 131.713 182.252 126.496 183.016 125.519C183.781 124.542 184.732 123.989 185.115 124.184C185.497 124.379 185.489 125.324 185.017 126.089C184.545 126.854 180.438 131.144 180.438 131.144L179.869 132.194C179.869 132.194 183.935 129.239 184.749 128.571C186.366 127.397 188.126 126.435 189.987 125.706C190.938 125.519 191.133 126.374 190.751 127.041C190.369 127.709 186.367 130.191 186.367 130.191L182.553 133.814C182.553 133.814 187.701 131.372 188.653 131.046C190.076 130.854 191.513 130.791 192.947 130.859C193.232 130.859 193.419 131.909 192.849 132.194C192.28 132.479 188.783 133.529 188.783 133.529L185.066 136.109L189.547 135.442H192.801C193.183 135.442 193.947 136.394 193.085 136.866C191.914 137.327 190.702 137.678 189.466 137.916L185.44 140.586C184.802 142.467 184.069 144.315 183.244 146.121C182.772 146.789 181.723 148.034 181.723 148.034L174.053 145.356Z" fill="white"/>
<path d="M181.837 148.506L173.622 145.633L173.679 145.299C174.281 141.457 175.721 132.479 176.013 131.982C177.006 130.877 178.054 129.823 179.153 128.824C180.649 127.375 182.349 125.731 182.723 125.258C183.537 124.29 184.643 123.484 185.318 123.818C185.429 123.878 185.526 123.962 185.601 124.063C185.677 124.164 185.73 124.28 185.757 124.404C185.887 125.063 185.752 125.747 185.383 126.309C185.05 126.846 183.146 128.897 181.878 130.24C182.967 129.426 184.122 128.612 184.488 128.262C186.158 127.037 187.986 126.043 189.921 125.307C190.14 125.238 190.375 125.238 190.594 125.308C190.812 125.378 191.004 125.514 191.141 125.698C191.288 125.929 191.366 126.197 191.366 126.471C191.366 126.745 191.288 127.013 191.141 127.245C190.751 127.937 187.66 129.898 186.66 130.501L184.724 132.34C186.237 131.632 188.035 130.81 188.579 130.647C189.97 130.409 191.385 130.338 192.793 130.435H192.988C193.289 130.435 193.525 130.68 193.622 131.087C193.705 131.357 193.695 131.646 193.595 131.91C193.495 132.174 193.31 132.397 193.069 132.544C192.508 132.821 189.539 133.716 189.002 133.887L186.774 135.433L189.523 135.018H192.76C193.011 135.058 193.245 135.171 193.431 135.343C193.618 135.516 193.75 135.74 193.809 135.987C193.873 136.224 193.852 136.476 193.749 136.699C193.647 136.922 193.469 137.102 193.248 137.208C192.066 137.685 190.84 138.045 189.588 138.282L185.757 140.822C185.132 142.697 184.399 144.534 183.561 146.325C183.081 147 182.057 148.213 182.016 148.262L181.837 148.506ZM174.517 145.087L181.56 147.529C181.878 147.147 182.536 146.341 182.886 145.861C183.694 144.09 184.408 142.278 185.025 140.431L185.066 140.301L189.328 137.493C190.525 137.269 191.698 136.934 192.833 136.492C193.028 136.378 193.02 136.28 193.012 136.239C192.996 136.151 192.961 136.067 192.909 135.994C192.857 135.921 192.789 135.86 192.711 135.816H189.507L183.374 136.752L188.645 133.122C190.043 132.707 192.28 132.015 192.711 131.811C192.745 131.791 192.773 131.764 192.794 131.732C192.815 131.699 192.829 131.662 192.833 131.624C192.862 131.501 192.862 131.373 192.833 131.249H192.76C191.438 131.151 190.108 131.209 188.799 131.42C188.067 131.64 184.529 133.317 182.756 134.164L180.414 135.295L186.18 129.825C187.689 128.963 189.11 127.957 190.426 126.821C190.492 126.725 190.534 126.613 190.546 126.497C190.559 126.38 190.543 126.262 190.499 126.154C190.418 126.04 190.206 126.064 190.092 126.089C188.302 126.801 186.606 127.731 185.041 128.856C184.228 129.532 180.316 132.389 180.161 132.511L178.714 133.553L180.202 130.851C181.829 129.133 184.391 126.39 184.724 125.853C184.865 125.664 184.961 125.446 185.003 125.214C185.045 124.982 185.034 124.744 184.968 124.518C184.325 124.754 183.773 125.187 183.39 125.755C182.984 126.26 181.341 127.855 179.755 129.394C178.486 130.623 176.908 132.153 176.745 132.389C176.493 132.926 175.29 140.317 174.533 145.087H174.517Z" fill="#061B24"/>
</svg>
