<svg width="610" height="466" viewBox="0 0 610 466" fill="none" xmlns="http://www.w3.org/2000/svg">
<path opacity="0.7" d="M122.93 150.09C122.93 150.09 95.05 222.09 134.23 294.59C173.41 367.09 254.11 405.39 318.7 438.14C383.29 470.89 450.36 454.94 482.23 401.3C514.1 347.66 470.39 309.37 470.33 232.88C470.27 156.39 481.78 136.14 440.33 71.5201C398.88 6.90007 297.27 -7.40993 220.43 40.5201C143.59 88.4501 122.93 150.09 122.93 150.09Z" fill="#E9F8FE"/>
<path d="M422.15 58.0701C398.55 33.1501 340.61 42.2801 315.52 58.0701C234.06 109.32 91.27 194.64 84.81 318.24C82.06 370.77 128.39 398.36 147.74 406.45C194.22 425.89 245.22 431.72 295.55 433.97C348.12 436.32 404.55 434.49 451.86 408.84C469.8 399.13 486.72 386.67 498.3 369.66C510.06 352.38 516.83 331.8 518.63 311.03C521.52 277.53 512.51 243.94 498.88 213.2C485.25 182.46 467.08 154 450.39 124.8C439.51 105.76 442 79.0601 422.15 58.0701Z" fill="#27B4F2"/>
<path opacity="0.7" d="M422.15 58.0701C398.55 33.1501 340.61 42.2801 315.52 58.0701C234.06 109.32 91.27 194.64 84.81 318.24C82.06 370.77 128.39 398.36 147.74 406.45C194.22 425.89 245.22 431.72 295.55 433.97C348.12 436.32 404.55 434.49 451.86 408.84C469.8 399.13 486.72 386.67 498.3 369.66C510.06 352.38 516.83 331.8 518.63 311.03C521.52 277.53 512.51 243.94 498.88 213.2C485.25 182.46 467.08 154 450.39 124.8C439.51 105.76 442 79.0601 422.15 58.0701Z" fill="#A2DFF9"/>
<path d="M174.59 129.23V139.53" stroke="#0080B9" stroke-linecap="round" stroke-linejoin="round"/>
<path d="M170.87 113.34V151.38" stroke="#0080B9" stroke-linecap="round" stroke-linejoin="round"/>
<path d="M193.19 114.4V152.44" stroke="#0080B9" stroke-linecap="round" stroke-linejoin="round"/>
<path d="M182.03 127.22V137.38" stroke="#0080B9" stroke-linecap="round" stroke-linejoin="round"/>
<path d="M252.7 127.22V137.38" stroke="#0080B9" stroke-linecap="round" stroke-linejoin="round"/>
<path d="M185.75 124.83V141.53" stroke="#0080B9" stroke-linecap="round" stroke-linejoin="round"/>
<path d="M178.31 127.17V143.87" stroke="#0080B9" stroke-linecap="round" stroke-linejoin="round"/>
<path d="M189.47 103.82V136.39" stroke="#0080B9" stroke-linecap="round" stroke-linejoin="round"/>
<path d="M196.91 127.22V137.36" stroke="#0080B9" stroke-linecap="round" stroke-linejoin="round"/>
<path d="M200.63 119.76V142.53" stroke="#0080B9" stroke-linecap="round" stroke-linejoin="round"/>
<path d="M230.39 129.06V145.76" stroke="#0080B9" stroke-linecap="round" stroke-linejoin="round"/>
<path d="M237.82 117.05V149.62" stroke="#0080B9" stroke-linecap="round" stroke-linejoin="round"/>
<path d="M245.26 133.45V143.59" stroke="#0080B9" stroke-linecap="round" stroke-linejoin="round"/>
<path d="M152.27 132.34V142.48" stroke="#0080B9" stroke-linecap="round" stroke-linejoin="round"/>
<path d="M248.98 128.99V151.76" stroke="#0080B9" stroke-linecap="round" stroke-linejoin="round"/>
<path d="M215.51 128.26V138.42" stroke="#0080B9" stroke-linecap="round" stroke-linejoin="round"/>
<path d="M222.95 126.87V143.57" stroke="#0080B9" stroke-linecap="round" stroke-linejoin="round"/>
<path d="M204.35 124.99V141.69" stroke="#0080B9" stroke-linecap="round" stroke-linejoin="round"/>
<path d="M226.66 119.86V152.43" stroke="#0080B9" stroke-linecap="round" stroke-linejoin="round"/>
<path d="M234.1 128.26V138.4" stroke="#0080B9" stroke-linecap="round" stroke-linejoin="round"/>
<path d="M241.54 120.8V143.57" stroke="#0080B9" stroke-linecap="round" stroke-linejoin="round"/>
<path d="M256.42 120V142.77" stroke="#0080B9" stroke-linecap="round" stroke-linejoin="round"/>
<path d="M208.07 130.1V147.91" stroke="#0080B9" stroke-linecap="round" stroke-linejoin="round"/>
<path d="M260.14 126.61V144.43" stroke="#0080B9" stroke-linecap="round" stroke-linejoin="round"/>
<path d="M159.71 124.9V135.05" stroke="#0080B9" stroke-linecap="round" stroke-linejoin="round"/>
<path d="M148.55 126.31V136.46" stroke="#0080B9" stroke-linecap="round" stroke-linejoin="round"/>
<path d="M263.86 126.07V136.22" stroke="#0080B9" stroke-linecap="round" stroke-linejoin="round"/>
<path d="M155.99 126.67V149.44" stroke="#0080B9" stroke-linecap="round" stroke-linejoin="round"/>
<path d="M163.43 117.68V140.45" stroke="#0080B9" stroke-linecap="round" stroke-linejoin="round"/>
<path d="M167.15 124.29V142.1" stroke="#0080B9" stroke-linecap="round" stroke-linejoin="round"/>
<path d="M211.79 110.35V142.01" stroke="#0080B9" stroke-linecap="round" stroke-linejoin="round"/>
<path d="M219.23 119.76V137.36" stroke="#0080B9" stroke-linecap="round" stroke-linejoin="round"/>
<path d="M371.25 397.28V386.97" stroke="#0080B9" stroke-linecap="round" stroke-linejoin="round"/>
<path d="M374.97 413.16V375.12" stroke="#0080B9" stroke-linecap="round" stroke-linejoin="round"/>
<path d="M352.65 412.1V374.06" stroke="#0080B9" stroke-linecap="round" stroke-linejoin="round"/>
<path d="M363.81 399.28V389.12" stroke="#0080B9" stroke-linecap="round" stroke-linejoin="round"/>
<path d="M293.13 399.28V389.12" stroke="#0080B9" stroke-linecap="round" stroke-linejoin="round"/>
<path d="M360.09 401.67V384.97" stroke="#0080B9" stroke-linecap="round" stroke-linejoin="round"/>
<path d="M367.53 399.33V382.63" stroke="#0080B9" stroke-linecap="round" stroke-linejoin="round"/>
<path d="M356.37 422.69V390.11" stroke="#0080B9" stroke-linecap="round" stroke-linejoin="round"/>
<path d="M348.93 399.28V389.14" stroke="#0080B9" stroke-linecap="round" stroke-linejoin="round"/>
<path d="M345.21 406.74V383.97" stroke="#0080B9" stroke-linecap="round" stroke-linejoin="round"/>
<path d="M315.45 397.44V380.74" stroke="#0080B9" stroke-linecap="round" stroke-linejoin="round"/>
<path d="M308.01 409.46V376.88" stroke="#0080B9" stroke-linecap="round" stroke-linejoin="round"/>
<path d="M300.57 393.05V382.91" stroke="#0080B9" stroke-linecap="round" stroke-linejoin="round"/>
<path d="M393.57 394.16V384.02" stroke="#0080B9" stroke-linecap="round" stroke-linejoin="round"/>
<path d="M296.85 397.51V374.74" stroke="#0080B9" stroke-linecap="round" stroke-linejoin="round"/>
<path d="M330.33 398.24V388.08" stroke="#0080B9" stroke-linecap="round" stroke-linejoin="round"/>
<path d="M322.89 399.63V382.93" stroke="#0080B9" stroke-linecap="round" stroke-linejoin="round"/>
<path d="M341.49 401.51V384.81" stroke="#0080B9" stroke-linecap="round" stroke-linejoin="round"/>
<path d="M319.17 406.64V374.07" stroke="#0080B9" stroke-linecap="round" stroke-linejoin="round"/>
<path d="M311.73 398.24V388.1" stroke="#0080B9" stroke-linecap="round" stroke-linejoin="round"/>
<path d="M304.29 405.7V382.93" stroke="#0080B9" stroke-linecap="round" stroke-linejoin="round"/>
<path d="M289.41 406.5V383.73" stroke="#0080B9" stroke-linecap="round" stroke-linejoin="round"/>
<path d="M337.77 396.4V378.59" stroke="#0080B9" stroke-linecap="round" stroke-linejoin="round"/>
<path d="M285.69 399.89V382.08" stroke="#0080B9" stroke-linecap="round" stroke-linejoin="round"/>
<path d="M386.13 401.6V391.45" stroke="#0080B9" stroke-linecap="round" stroke-linejoin="round"/>
<path d="M397.29 400.19V390.04" stroke="#0080B9" stroke-linecap="round" stroke-linejoin="round"/>
<path d="M281.97 400.44V390.28" stroke="#0080B9" stroke-linecap="round" stroke-linejoin="round"/>
<path d="M389.85 399.83V377.06" stroke="#0080B9" stroke-linecap="round" stroke-linejoin="round"/>
<path d="M382.41 408.82V386.05" stroke="#0080B9" stroke-linecap="round" stroke-linejoin="round"/>
<path d="M378.69 402.21V384.4" stroke="#0080B9" stroke-linecap="round" stroke-linejoin="round"/>
<path d="M334.05 416.15V384.49" stroke="#0080B9" stroke-linecap="round" stroke-linejoin="round"/>
<path d="M326.61 406.74V389.14" stroke="#0080B9" stroke-linecap="round" stroke-linejoin="round"/>
<path d="M285.43 219.89H248.77C247.375 219.89 246.037 220.444 245.051 221.431C244.064 222.417 243.51 223.755 243.51 225.15V240.8C238.483 240.603 233.584 239.152 229.26 236.58C229.26 236.58 233.31 246.38 243.51 248.28V250.58C243.513 251.974 244.068 253.31 245.054 254.296C246.039 255.282 247.376 255.837 248.77 255.84H285.43C286.825 255.84 288.163 255.286 289.149 254.299C290.136 253.313 290.69 251.975 290.69 250.58V225.15C290.691 224.459 290.556 223.774 290.292 223.135C290.028 222.497 289.641 221.916 289.152 221.428C288.664 220.939 288.083 220.551 287.444 220.288C286.806 220.024 286.121 219.889 285.43 219.89Z" fill="white" stroke="#061B24" stroke-linecap="round" stroke-linejoin="round"/>
<path d="M257.22 236.31H255.9V227.92H257.22V231.51H258.72V227.92H260.07V236.31H258.72V232.71H257.22V236.31Z" fill="#061B24"/>
<path d="M262.35 231.45H264.16V232.65H262.35V235.11H264.63V236.31H261V227.92H264.6V229.12H262.32L262.35 231.45Z" fill="#061B24"/>
<path d="M265.44 227.92H266.76V235.11H268.93V236.31H265.44V227.92Z" fill="#061B24"/>
<path d="M269.51 227.92H270.83V235.11H273V236.31H269.51V227.92Z" fill="#061B24"/>
<path d="M273.47 229.93C273.47 229.399 273.681 228.891 274.056 228.516C274.431 228.141 274.94 227.93 275.47 227.93C276 227.93 276.509 228.141 276.884 228.516C277.259 228.891 277.47 229.399 277.47 229.93V234.3C277.47 234.83 277.259 235.339 276.884 235.714C276.509 236.089 276 236.3 275.47 236.3C274.94 236.3 274.431 236.089 274.056 235.714C273.681 235.339 273.47 234.83 273.47 234.3V229.93ZM274.79 234.38C274.79 234.98 275.06 235.21 275.48 235.21C275.9 235.21 276.16 234.98 276.16 234.38V229.85C276.16 229.25 275.9 229.02 275.48 229.02C275.06 229.02 274.79 229.25 274.79 229.85V234.38Z" fill="#061B24"/>
<path d="M255.52 238.92H259.6V240.12H258.22V247.31H256.9V240.12H255.52V238.92Z" fill="#061B24"/>
<path d="M261.49 247.31H260.18V238.92H261.49V242.51H263V238.92H264.35V247.31H263V243.71H261.5L261.49 247.31Z" fill="#061B24"/>
<path d="M266.62 242.45H268.43V243.65H266.62V246.11H268.9V247.31H265.3V238.92H268.9V240.12H266.62V242.45Z" fill="#061B24"/>
<path d="M272.47 247.31C272.365 246.988 272.324 246.648 272.35 246.31V245C272.35 244.22 272.09 243.93 271.49 243.93H271V247.35H269.69V238.96H271.69C273.05 238.96 273.64 239.59 273.64 240.89V241.55C273.686 241.886 273.629 242.228 273.475 242.53C273.321 242.832 273.079 243.08 272.78 243.24C273.44 243.52 273.65 244.14 273.65 245.02V246.31C273.631 246.65 273.682 246.99 273.8 247.31H272.47ZM271 240.12V242.69H271.52C272.01 242.69 272.31 242.48 272.31 241.81V241C272.31 240.4 272.11 240.14 271.64 240.14L271 240.12Z" fill="#061B24"/>
<path d="M275.86 242.45H277.67V243.65H275.86V246.11H278.14V247.31H274.54V238.92H278.14V240.12H275.86V242.45Z" fill="#061B24"/>
<path d="M481.89 79.1301V361.18C481.89 361.94 481.589 362.668 481.053 363.206C480.517 363.744 479.789 364.047 479.03 364.05H307.53C306.769 364.05 306.039 363.748 305.501 363.21C304.962 362.671 304.66 361.941 304.66 361.18V79.1801C304.665 77.4472 305.356 75.7868 306.581 74.5614C307.807 73.3361 309.467 72.6454 311.2 72.6401H352.05C352.842 72.6416 353.612 72.8983 354.246 73.3721C354.88 73.8458 355.344 74.5114 355.57 75.2701C355.792 76.0301 356.255 76.6972 356.89 77.1701C357.526 77.6428 358.297 77.8987 359.09 77.9001H427.46C428.262 77.9014 429.042 77.6401 429.681 77.1562C430.321 76.6722 430.784 75.9922 431 75.2201C431.222 74.4574 431.689 73.7894 432.33 73.3201C432.966 72.8474 433.737 72.5915 434.53 72.5901H475.37C477.099 72.6006 478.755 73.2937 479.976 74.5185C481.197 75.7432 481.885 77.4006 481.89 79.1301Z" fill="#0080B9" stroke="#0080B9" stroke-linecap="round" stroke-linejoin="round"/>
<path d="M481.89 95.4001H304.66V130.7H481.89V95.4001Z" fill="#27B4F2" stroke="#0080B9" stroke-linecap="round" stroke-linejoin="round"/>
<path d="M481.89 130.7H304.66V327.65H481.89V130.7Z" fill="white" stroke="#0080B9" stroke-linecap="round" stroke-linejoin="round"/>
<path d="M393.7 337.34H388.17C386.347 337.34 384.87 338.818 384.87 340.64V346.17C384.87 347.993 386.347 349.47 388.17 349.47H393.7C395.523 349.47 397 347.993 397 346.17V340.64C397 338.818 395.523 337.34 393.7 337.34Z" fill="white" stroke="#27B4F2" stroke-linecap="round" stroke-linejoin="round"/>
<path d="M442.84 322.22H320.84C318.798 322.22 316.839 321.409 315.395 319.965C313.951 318.521 313.14 316.562 313.14 314.52C313.14 312.478 313.951 310.519 315.395 309.075C316.839 307.631 318.798 306.82 320.84 306.82H442.84C444.882 306.82 446.841 307.631 448.285 309.075C449.729 310.519 450.54 312.478 450.54 314.52C450.54 316.562 449.729 318.521 448.285 319.965C446.841 321.409 444.882 322.22 442.84 322.22Z" fill="#A2DFF9" stroke="#0080B9" stroke-linecap="round" stroke-linejoin="round"/>
<path d="M467.85 315.54C467.468 315.54 467.09 315.465 466.738 315.318C466.385 315.172 466.065 314.957 465.796 314.687C465.526 314.417 465.313 314.096 465.168 313.743C465.023 313.39 464.949 313.012 464.95 312.63V310.63C464.95 309.861 465.255 309.123 465.799 308.579C466.343 308.036 467.081 307.73 467.85 307.73C468.231 307.729 468.609 307.803 468.961 307.948C469.314 308.093 469.634 308.307 469.904 308.576C470.173 308.846 470.387 309.166 470.532 309.519C470.677 309.871 470.751 310.249 470.75 310.63V312.63C470.751 313.012 470.677 313.39 470.532 313.743C470.387 314.096 470.174 314.417 469.904 314.687C469.635 314.957 469.315 315.172 468.962 315.318C468.61 315.465 468.232 315.54 467.85 315.54Z" fill="#0080B9"/>
<path d="M463.29 312V312.92C463.289 313.52 463.406 314.114 463.634 314.668C463.863 315.223 464.199 315.726 464.622 316.151C465.046 316.575 465.549 316.912 466.103 317.142C466.657 317.372 467.25 317.49 467.85 317.49C469.062 317.49 470.224 317.009 471.082 316.151C471.939 315.294 472.42 314.132 472.42 312.92V312" stroke="#0080B9" stroke-linecap="round" stroke-linejoin="round"/>
<path d="M467.85 317.46V321.34" stroke="#0080B9" stroke-linecap="round" stroke-linejoin="round"/>
<path d="M421.53 175.76H322.53L315 180.76V149.85C315 147.856 315.792 145.943 317.203 144.533C318.613 143.122 320.526 142.33 322.52 142.33H421.58C423.573 142.333 425.483 143.126 426.891 144.536C428.299 145.946 429.09 147.857 429.09 149.85V168.24C429.09 169.231 428.894 170.212 428.514 171.127C428.133 172.042 427.576 172.873 426.873 173.572C426.171 174.271 425.337 174.824 424.42 175.199C423.503 175.575 422.521 175.765 421.53 175.76Z" fill="#27B4F2"/>
<path d="M464.05 107.97H472.76" stroke="white" stroke-linecap="round" stroke-linejoin="round"/>
<path d="M464.05 112.75H472.76" stroke="white" stroke-linecap="round" stroke-linejoin="round"/>
<path d="M464.05 117.53H472.76" stroke="white" stroke-linecap="round" stroke-linejoin="round"/>
<path d="M370.88 112H341.6C341.07 112 340.561 111.789 340.186 111.414C339.811 111.039 339.6 110.53 339.6 110C339.6 109.47 339.811 108.961 340.186 108.586C340.561 108.211 341.07 108 341.6 108H370.88C371.41 108 371.919 108.211 372.294 108.586C372.669 108.961 372.88 109.47 372.88 110C372.88 110.53 372.669 111.039 372.294 111.414C371.919 111.789 371.41 112 370.88 112Z" fill="white"/>
<path d="M382.35 116.86H340.68C340.401 116.857 340.134 116.745 339.937 116.546C339.74 116.348 339.63 116.08 339.63 115.8C339.623 115.66 339.645 115.521 339.695 115.39C339.746 115.259 339.823 115.141 339.922 115.042C340.021 114.943 340.139 114.866 340.27 114.815C340.4 114.765 340.54 114.743 340.68 114.75H382.35C382.629 114.75 382.898 114.86 383.096 115.057C383.295 115.254 383.407 115.521 383.41 115.8C383.407 116.08 383.295 116.349 383.097 116.547C382.898 116.745 382.63 116.857 382.35 116.86Z" fill="white"/>
<path d="M322.48 123.63C328.489 123.63 333.36 118.759 333.36 112.75C333.36 106.741 328.489 101.87 322.48 101.87C316.471 101.87 311.6 106.741 311.6 112.75C311.6 118.759 316.471 123.63 322.48 123.63Z" fill="#0080B9" stroke="white" stroke-linecap="round" stroke-linejoin="round"/>
<path d="M327.03 119.36C326.37 119.36 324.44 117.91 325.1 116.72C325.76 115.53 327.03 113.56 327.03 113.56C327.591 112.454 327.905 111.239 327.95 110C328.21 108.15 327.16 105 322.58 105C318 105 316.94 108.16 317.2 110C317.245 111.239 317.559 112.454 318.12 113.56C318.12 113.56 319.39 115.56 320.05 116.72C320.71 117.88 318.78 119.36 318.12 119.36C317.051 119.594 316.006 119.929 315 120.36C315 120.36 319.38 123.44 322.58 123.44C325.78 123.44 330.15 120.36 330.15 120.36C329.144 119.929 328.099 119.594 327.03 119.36Z" fill="white"/>
<path d="M426.89 109.9H419.16C418.503 109.9 417.97 110.433 417.97 111.09V115.77C417.97 116.427 418.503 116.96 419.16 116.96H426.89C427.547 116.96 428.08 116.427 428.08 115.77V111.09C428.08 110.433 427.547 109.9 426.89 109.9Z" fill="white"/>
<path d="M417.28 114.82L415.77 115.61V111.25L417.28 112.04V114.82Z" fill="white"/>
<path d="M449.81 113.87L446.25 117.43C445.674 118.005 444.894 118.328 444.08 118.328C443.266 118.328 442.486 118.005 441.91 117.43L440.91 116.43L443.52 113.81L445.31 115.6L447.99 112.92L446.2 111.13L448.82 108.52L449.82 109.52C450.395 110.099 450.716 110.882 450.714 111.697C450.712 112.513 450.387 113.294 449.81 113.87Z" fill="white"/>
<path d="M445.82 121.92C450.509 121.92 454.31 118.119 454.31 113.43C454.31 108.741 450.509 104.94 445.82 104.94C441.131 104.94 437.33 108.741 437.33 113.43C437.33 118.119 441.131 121.92 445.82 121.92Z" stroke="white" stroke-miterlimit="10"/>
<path d="M421.92 121.92C426.609 121.92 430.41 118.119 430.41 113.43C430.41 108.741 426.609 104.94 421.92 104.94C417.231 104.94 413.43 108.741 413.43 113.43C413.43 118.119 417.231 121.92 421.92 121.92Z" stroke="white" stroke-miterlimit="10"/>
<path d="M455.58 87.53H453.6V91.57H455.58V87.53Z" fill="white"/>
<path d="M459.22 85.9001H457.24V91.5801H459.22V85.9001Z" fill="white"/>
<path d="M462.85 84.26H460.87V91.57H462.85V84.26Z" fill="white"/>
<path d="M466.49 82.6301H464.51V91.5801H466.49V82.6301Z" fill="white"/>
<path d="M328.45 83.4502H317.79C317.133 83.4502 316.6 83.983 316.6 84.6402V89.5702C316.6 90.2274 317.133 90.7602 317.79 90.7602H328.45C329.107 90.7602 329.64 90.2274 329.64 89.5702V84.6402C329.64 83.983 329.107 83.4502 328.45 83.4502Z" fill="white"/>
<path d="M331.17 85H332.17C332.435 85 332.69 85.1054 332.877 85.2929C333.065 85.4804 333.17 85.7348 333.17 86V88.3C333.17 88.5652 333.065 88.8196 332.877 89.0071C332.69 89.1946 332.435 89.3 332.17 89.3H331.17V85Z" fill="white"/>
<path d="M329.63 165.48H327.41V151.37H329.63V157.37H332.15V151.37H334.41V165.48H332.15V159.48H329.63V165.48Z" fill="white"/>
<path d="M338.24 157.32H341.24V159.32H338.24V163.45H342.07V165.45H336V151.37H342.05V153.37H338.22L338.24 157.32Z" fill="white"/>
<path d="M343.44 151.37H345.66V163.46H349.3V165.46H343.44V151.37Z" fill="white"/>
<path d="M350.27 151.37H352.49V163.46H356.14V165.46H350.27V151.37Z" fill="white"/>
<path d="M356.93 154.76C356.93 152.5 358.12 151.21 360.29 151.21C362.46 151.21 363.66 152.5 363.66 154.76V162.09C363.66 164.35 362.47 165.64 360.29 165.64C358.11 165.64 356.93 164.35 356.93 162.09V154.76ZM359.14 162.23C359.14 163.23 359.59 163.62 360.29 163.62C360.99 163.62 361.44 163.24 361.44 162.23V154.61C361.44 153.61 361 153.22 360.29 153.22C359.58 153.22 359.14 153.61 359.14 154.61V162.23Z" fill="white"/>
<path d="M367.57 151.37H374.42V153.37H372.1V165.47H369.89V153.37H367.57V151.37Z" fill="white"/>
<path d="M377.61 165.48H375.39V151.37H377.61V157.37H380.13V151.37H382.38V165.48H380.13V159.48H377.61V165.48Z" fill="white"/>
<path d="M386.21 157.32H389.26V159.32H386.21V163.45H390V165.45H384V151.37H390V153.37H386.17L386.21 157.32Z" fill="white"/>
<path d="M396.05 165.48C395.868 164.923 395.8 164.334 395.85 163.75V161.53C395.85 160.22 395.41 159.73 394.4 159.73H393.63V165.48H391.42V151.37H394.76C397.06 151.37 398.05 152.44 398.05 154.61V155.72C398.127 156.286 398.029 156.862 397.77 157.371C397.511 157.881 397.103 158.299 396.6 158.57C397.71 159.03 398.07 160.08 398.07 161.57V163.75C398.03 164.331 398.112 164.913 398.31 165.46L396.05 165.48ZM393.63 153.38V157.72H394.5C395.33 157.72 395.83 157.36 395.83 156.23V154.84C395.83 153.84 395.49 153.38 394.7 153.38H393.63Z" fill="white"/>
<path d="M401.74 157.32H404.74V159.32H401.74V163.45H405.57V165.45H399.52V151.37H405.57V153.37H401.74V157.32Z" fill="white"/>
<path d="M256.16 324.46L260.91 345.46L263.49 377.25C263.49 377.25 254.82 384.3 244.81 379.94C234.8 375.58 224.1 340.38 224.1 340.38" fill="white"/>
<path d="M256.16 324.46L260.91 345.46L263.49 377.25C263.49 377.25 254.82 384.3 244.81 379.94C234.8 375.58 224.1 340.38 224.1 340.38" stroke="#061B24" stroke-linecap="round" stroke-linejoin="round"/>
<path d="M260.91 334.46C258.918 335.102 256.976 335.891 255.1 336.82C250.27 339.16 243.52 343.39 239.19 350.09C235.32 356.09 233.38 364.09 236.48 374.4H226L223.25 292.1L238.49 273.52C245.49 277.52 251.23 287.19 253.13 298.15C255.03 309.11 260.91 334.46 260.91 334.46Z" fill="#27B4F2"/>
<mask id="mask0_119_14" style="mask-type:luminance" maskUnits="userSpaceOnUse" x="223" y="273" width="38" height="102">
<path d="M260.91 334.46C258.918 335.102 256.976 335.891 255.1 336.82C250.27 339.16 243.52 343.39 239.19 350.09C235.32 356.09 233.38 364.09 236.48 374.4H226L223.25 292.1L238.49 273.52C245.49 277.52 251.23 287.19 253.13 298.15C255.03 309.11 260.91 334.46 260.91 334.46Z" fill="white"/>
</mask>
<g mask="url(#mask0_119_14)">
<path opacity="0.2" d="M255.1 336.82C250.27 339.16 243.52 343.39 239.19 350.09L240.29 315.45C240.29 315.45 248.01 323.1 249.67 300.66C249.67 300.66 251.37 311.83 249.67 316.22L253.08 318.57L249.67 331.31C251.758 332.85 253.591 334.709 255.1 336.82Z" fill="#061B24"/>
</g>
<path d="M260.91 334.46C258.918 335.102 256.976 335.891 255.1 336.82C250.27 339.16 243.52 343.39 239.19 350.09C235.32 356.09 233.38 364.09 236.48 374.4H226L223.25 292.1L238.49 273.52C245.49 277.52 251.23 287.19 253.13 298.15C255.03 309.11 260.91 334.46 260.91 334.46Z" stroke="#061B24" stroke-linecap="round" stroke-linejoin="round"/>
<path d="M253.08 350.55C261.31 336.72 279.19 326.61 290.97 310.94C295.62 304.77 291.25 290.69 306.48 284.2C306.48 284.2 309.69 285.28 310.95 299.81C311.39 306.114 309.938 312.406 306.78 317.88C288.96 345.45 283.34 370.37 260.52 378.43" fill="white"/>
<path d="M253.08 350.55C261.31 336.72 279.19 326.61 290.97 310.94C295.62 304.77 291.25 290.69 306.48 284.2C306.48 284.2 309.69 285.28 310.95 299.81C311.391 306.114 309.938 312.406 306.78 317.88C288.96 345.45 283.34 370.37 260.52 378.43" stroke="#061B24" stroke-linecap="round" stroke-linejoin="round"/>
<path d="M255.09 431.2C218.24 427.62 181.78 420.69 147.74 406.45C146.38 405.88 144.89 405.22 143.29 404.45C142.94 401.45 142.49 398.45 141.97 395.45C140.1 384.59 137.27 373.54 134.28 362.64C123.88 324.7 111.64 288.64 131.86 268.64C131.86 268.64 138.67 262.76 163.59 255.57C163.59 255.57 163.9 249.57 180.49 250.82C207.11 252.82 214.41 260.82 214.41 260.82C229.91 265.64 238.41 273.61 238.41 273.61L244.21 296.5C246.42 306.85 248.36 318.83 248.15 328.18C247.77 346.35 253.65 414.85 255.09 431.2Z" fill="#27B4F2"/>
<g opacity="0.5">
<path d="M184.28 357.17L179.42 357.43C176.02 339.96 178.64 322.51 174.73 305.03L179.61 305.11C183.51 322.48 180.93 339.82 184.28 357.17Z" fill="white"/>
<path d="M193.1 364.13L188.36 364.43C183.11 347.21 185.5 329.85 183.19 312.57H187.98C190.28 329.77 187.93 347 193.1 364.13Z" fill="white"/>
<path d="M198.36 357.14L193.67 357.4C190.27 340.26 192.76 323.12 189.06 305.97L193.76 306.04C197.45 323.09 195 340.11 198.36 357.14Z" fill="white"/>
<path d="M206.7 363.28L202.13 363.57C197.13 346.65 199.4 329.57 197.13 312.65H201.74C204 329.54 201.77 346.46 206.7 363.28Z" fill="white"/>
<path d="M212.2 358.42L207.69 358.67C203.97 341.86 206.34 325.02 203.13 308.19L207.66 308.24C210.86 325 208.53 341.7 212.2 358.42Z" fill="white"/>
<path d="M217.56 351.27L213.12 351.48C210.89 334.78 213.04 318.16 208.12 301.41L212.57 301.5C217.47 318.15 215.36 334.67 217.56 351.27Z" fill="white"/>
<path d="M226.22 362.05L221.89 362.32C217.2 345.85 219.34 329.27 217.03 312.76H221.4C223.71 329.2 221.61 345.67 226.22 362.05Z" fill="white"/>
<path d="M231.44 357.32L227.17 357.57C223.69 341.19 225.89 324.8 222.71 308.42L227.01 308.47C230.18 324.75 228 341.05 231.44 357.32Z" fill="white"/>
<path d="M237.14 354.37L232.93 354.59C230.09 338.34 232.22 322.12 228.45 305.85L232.67 305.92C236.43 322.09 234.34 338.21 237.14 354.37Z" fill="white"/>
</g>
<path opacity="0.2" d="M186.87 302.81C186.51 304.08 162.87 384.81 155.32 390.98C151.16 394.36 145.89 395.29 141.97 395.43C140.1 384.57 137.27 373.52 134.28 362.62C133.22 336.51 133.5 304.3 141.41 305.03C154.66 306.27 155.58 322.6 155.58 322.6L186.87 302.81Z" fill="#061B24"/>
<path d="M246.44 290.16C246.44 290.16 250.62 306.02 247.2 313.23" stroke="#061B24" stroke-linecap="round" stroke-linejoin="round"/>
<path d="M143.29 404.46C137.29 353.35 104.21 295.94 131.86 268.59C131.86 268.59 138.67 262.71 163.59 255.52C163.59 255.52 163.9 249.52 180.49 250.77C207.11 252.77 214.41 260.77 214.41 260.77C229.91 265.59 238.41 273.56 238.41 273.56" stroke="#061B24" stroke-linecap="round" stroke-linejoin="round"/>
<path d="M244.24 296.41C246.45 306.76 248.39 318.74 248.18 328.09C247.77 346.35 253.65 414.85 255.09 431.2" stroke="#061B24" stroke-linecap="round" stroke-linejoin="round"/>
<path d="M167.36 262C167.36 262 179.13 276.61 197.29 276.61C215.45 276.61 216.14 268.83 216.14 268.83" stroke="#061B24" stroke-linecap="round" stroke-linejoin="round"/>
<path d="M226.13 326.38C214 347 195 366 171.14 372.43" stroke="#061B24" stroke-linecap="round" stroke-linejoin="round"/>
<path d="M232.33 316.22C231.15 318.39 229.87 320.51 228.57 322.6" stroke="#061B24" stroke-linecap="round" stroke-linejoin="round"/>
<path d="M177.25 393.21C188.91 402.67 202.39 410.36 216.99 414.14C222.008 415.453 227.149 416.238 232.33 416.48" stroke="#061B24" stroke-linecap="round" stroke-linejoin="round"/>
<path d="M168.85 385.63C170.53 387.37 172.33 389.01 174.16 390.63" stroke="#061B24" stroke-linecap="round" stroke-linejoin="round"/>
<path d="M209.54 255.68C209.412 259.219 209.66 262.763 210.28 266.25C188.4 278.76 168.85 253.31 168.85 253.31C168.85 253.31 175.05 246.76 176.17 231.5C176.51 226.84 171.07 207.37 171.07 207.37C171.07 207.37 189.44 206.31 199.49 218.03C202.527 221.656 205.207 225.567 207.49 229.71C210.47 235.039 212.983 240.617 215 246.38C211.09 246.76 209.8 251.14 209.54 255.68Z" fill="white" stroke="#061B24" stroke-linecap="round" stroke-linejoin="round"/>
<path d="M215 246.38C211.08 246.76 209.79 251.14 209.53 255.68C188.36 250.39 186.86 234.31 186.86 234.31L207.49 229.71C210.47 235.039 212.983 240.617 215 246.38Z" fill="#061B24"/>
<path d="M228.42 177.76C228.42 177.76 231.72 197.76 225.2 208.17C218.68 218.58 209.82 175.92 209.82 175.92L228.42 177.76Z" fill="#061B24"/>
<path d="M173.53 222.91C171.734 220.545 170.379 217.876 169.53 215.03C164.63 198.03 166.89 173.19 190.63 170.23C205.92 168.32 224.24 179.07 228.55 199.99C229.61 205.13 228.35 211.99 228.35 211.99C228.35 211.99 228.96 219.57 228.05 223.38C224.51 238.09 218.51 251.1 215.32 251.6C201.65 253.73 188.08 244.6 186.62 241.6C185.908 240.222 185.312 238.787 184.84 237.31" fill="white"/>
<path d="M173.53 222.91C171.734 220.545 170.379 217.876 169.53 215.03C164.63 198.03 166.89 173.19 190.63 170.23C205.92 168.32 224.24 179.07 228.55 199.99C229.61 205.13 228.35 211.99 228.35 211.99C228.35 211.99 228.96 219.57 228.05 223.38C224.51 238.09 218.51 251.1 215.32 251.6C201.65 253.73 188.08 244.6 186.62 241.6C185.908 240.222 185.312 238.787 184.84 237.31" stroke="#061B24" stroke-linecap="round" stroke-linejoin="round"/>
<path d="M208.73 205.52C208.73 205.52 199.64 203.81 195.86 207.1" stroke="#061B24" stroke-linecap="round" stroke-linejoin="round"/>
<path d="M220.38 204.08C220.38 204.08 226.17 202.08 229.1 204.88" stroke="#061B24" stroke-linecap="round" stroke-linejoin="round"/>
<path d="M218.05 207.2C218.05 207.2 217.31 213.2 217.86 215.6C218.41 218 220.54 224.37 220.86 227.04C221.38 231.31 211.6 228.94 211.38 227.12" stroke="#061B24" stroke-linecap="round" stroke-linejoin="round"/>
<path d="M203.92 215C204.04 216 203.56 216.83 202.86 216.92C202.16 217.01 201.49 216.28 201.37 215.31C201.25 214.34 201.72 213.48 202.37 213.39C203.02 213.3 203.8 214 203.92 215Z" fill="#061B24"/>
<path d="M223.37 213.32C223.49 214.32 223.01 215.15 222.31 215.24C221.61 215.33 220.94 214.61 220.82 213.63C220.7 212.65 221.17 211.8 221.88 211.72C222.59 211.64 223.25 212.35 223.37 213.32Z" fill="#061B24"/>
<path d="M217 234.31C212.635 235.083 208.19 235.301 203.77 234.96C203.77 234.96 205.7 240.14 210.09 240.71C216.92 241.6 215.53 235.91 215.53 235.91" stroke="#061B24" stroke-linecap="round" stroke-linejoin="round"/>
<path d="M183.26 214.38L188.42 212.7C188.42 212.7 186.83 204.33 192.9 198.13L190.17 187C190.17 187 215.75 179.58 227.17 188.61L228.44 177.79C228.44 177.79 216.95 165.16 187.75 169.68C158.55 174.2 164.05 215 174.81 230.31L180.53 224.7L183.26 214.38Z" fill="#061B24"/>
<path d="M185.47 214.79C185.47 214.79 182.66 207 180 207C177.34 207 173.91 209.6 174.52 212.61C175.13 215.62 175.66 223.81 176.72 224.41C177.78 225.01 181.13 227.32 181.86 228.71C182.59 230.1 184.8 228.96 184.51 227.64" fill="white"/>
<path d="M185.47 214.79C185.47 214.79 182.66 207 180 207C177.34 207 173.91 209.6 174.52 212.61C175.13 215.62 175.66 223.81 176.72 224.41C177.78 225.01 181.13 227.32 181.86 228.71C182.59 230.1 184.8 228.96 184.51 227.64" stroke="#061B24" stroke-linecap="round" stroke-linejoin="round"/>
<path d="M290.24 306.37L276.35 306.31C274.91 306.21 273.05 303.13 273.62 301.8L292 259.37C292.362 258.533 292.975 257.83 293.755 257.357C294.534 256.884 295.441 256.665 296.35 256.73L311.21 258.38C312.64 258.48 315.44 261.18 314.87 262.5L294.58 303.73C294.218 304.565 293.607 305.267 292.829 305.739C292.052 306.212 291.148 306.432 290.24 306.37Z" fill="#061B24" stroke="#061B24" stroke-miterlimit="10"/>
<path d="M291.94 308.14L277.08 306.49C276.747 306.464 276.425 306.36 276.141 306.185C275.856 306.01 275.618 305.77 275.445 305.485C275.272 305.199 275.169 304.877 275.146 304.544C275.122 304.211 275.179 303.877 275.31 303.57L293.71 261.13C294.071 260.294 294.685 259.591 295.464 259.119C296.244 258.648 297.151 258.431 298.06 258.5L312.91 260.15C313.243 260.174 313.564 260.277 313.849 260.451C314.133 260.624 314.372 260.864 314.546 261.148C314.719 261.433 314.821 261.755 314.845 262.088C314.868 262.42 314.812 262.754 314.68 263.06L296.29 305.5C295.926 306.335 295.313 307.038 294.534 307.511C293.755 307.983 292.849 308.203 291.94 308.14Z" fill="#061B24"/>
<mask id="mask1_119_14" style="mask-type:luminance" maskUnits="userSpaceOnUse" x="275" y="258" width="40" height="51">
<path d="M291.94 308.14L277.08 306.49C276.747 306.464 276.425 306.36 276.141 306.185C275.856 306.01 275.618 305.77 275.445 305.485C275.272 305.199 275.169 304.877 275.146 304.544C275.122 304.211 275.179 303.877 275.31 303.57L293.71 261.13C294.071 260.294 294.685 259.591 295.464 259.119C296.244 258.648 297.151 258.431 298.06 258.5L312.91 260.15C313.243 260.174 313.564 260.277 313.849 260.451C314.133 260.624 314.372 260.864 314.546 261.148C314.719 261.433 314.821 261.755 314.845 262.088C314.868 262.42 314.812 262.754 314.68 263.06L296.29 305.5C295.926 306.335 295.313 307.038 294.534 307.511C293.755 307.983 292.849 308.203 291.94 308.14Z" fill="white"/>
</mask>
<g mask="url(#mask1_119_14)">
<path opacity="0.3" d="M291.94 308.14L277.08 306.49C276.747 306.464 276.425 306.36 276.141 306.185C275.856 306.01 275.618 305.77 275.445 305.485C275.272 305.199 275.169 304.877 275.146 304.544C275.122 304.211 275.179 303.877 275.31 303.57L293.71 261.13C294.071 260.294 294.685 259.591 295.464 259.119C296.244 258.648 297.151 258.431 298.06 258.5L312.91 260.15C313.243 260.174 313.564 260.277 313.849 260.451C314.133 260.624 314.372 260.864 314.546 261.148C314.719 261.433 314.821 261.755 314.845 262.088C314.868 262.42 314.812 262.754 314.68 263.06L296.29 305.5C295.926 306.335 295.313 307.038 294.534 307.511C293.755 307.983 292.849 308.203 291.94 308.14Z" fill="white"/>
</g>
<path d="M291.94 308.14L277.08 306.49C276.747 306.464 276.425 306.36 276.141 306.185C275.856 306.01 275.618 305.77 275.445 305.485C275.272 305.199 275.169 304.877 275.146 304.544C275.122 304.211 275.179 303.877 275.31 303.57L293.71 261.13C294.071 260.294 294.685 259.591 295.464 259.119C296.244 258.648 297.151 258.431 298.06 258.5L312.91 260.15C313.243 260.174 313.564 260.277 313.849 260.451C314.133 260.624 314.372 260.864 314.546 261.148C314.719 261.433 314.821 261.755 314.845 262.088C314.868 262.42 314.812 262.754 314.68 263.06L296.29 305.5C295.926 306.335 295.313 307.038 294.534 307.511C293.755 307.983 292.849 308.203 291.94 308.14Z" stroke="#061B24" stroke-linecap="round" stroke-linejoin="round"/>
<path d="M295.92 270.88L293.52 270.61C293.466 270.607 293.414 270.591 293.368 270.563C293.321 270.535 293.283 270.496 293.255 270.449C293.227 270.403 293.212 270.351 293.209 270.297C293.206 270.243 293.217 270.189 293.24 270.14L296.24 263.3C296.298 263.165 296.396 263.05 296.521 262.973C296.647 262.896 296.793 262.86 296.94 262.87L299.34 263.14C299.394 263.144 299.446 263.16 299.492 263.188C299.538 263.216 299.577 263.255 299.606 263.301C299.634 263.347 299.651 263.399 299.655 263.452C299.659 263.506 299.651 263.56 299.63 263.61L296.63 270.45C296.572 270.587 296.472 270.702 296.344 270.78C296.217 270.857 296.068 270.892 295.92 270.88Z" fill="#061B24" stroke="#061B24" stroke-linecap="round" stroke-linejoin="round"/>
<path d="M308 299.32C310.6 293.38 308.11 282.32 304.41 281.06C300.71 279.8 286.48 284.72 286.48 284.72C281.05 286.41 282.2 290.16 282.2 290.16C279.06 290.99 277.58 293.05 278.4 294.51C279.31 296.15 283.31 296.16 283.31 296.16C283.31 296.16 278.65 297.64 279.13 299.3C280.26 303.22 288.93 301.47 288.93 301.47C288.93 301.47 283.79 302.83 283.85 303.47C284.27 307.47 292.51 305.74 292.51 305.74L296.51 309.84C296.315 310.407 296.239 311.007 296.287 311.604C296.334 312.202 296.504 312.783 296.785 313.312C297.066 313.841 297.453 314.306 297.922 314.679C298.391 315.052 298.931 315.325 299.51 315.48" fill="white"/>
<path d="M308 299.32C310.6 293.38 308.11 282.32 304.41 281.06C300.71 279.8 286.48 284.72 286.48 284.72C281.05 286.41 282.2 290.16 282.2 290.16C279.06 290.99 277.58 293.05 278.4 294.51C279.31 296.15 283.31 296.16 283.31 296.16C283.31 296.16 278.65 297.64 279.13 299.3C280.26 303.22 288.93 301.47 288.93 301.47C288.93 301.47 283.79 302.83 283.85 303.47C284.27 307.47 292.51 305.74 292.51 305.74L296.51 309.84C296.315 310.407 296.239 311.007 296.287 311.604C296.334 312.202 296.504 312.783 296.785 313.312C297.066 313.841 297.453 314.306 297.922 314.679C298.391 315.052 298.931 315.325 299.51 315.48" stroke="#061B24" stroke-linecap="round" stroke-linejoin="round"/>
<path d="M282.23 290.16C282.23 290.16 295.1 286.88 296.49 287.16C297.88 287.44 303.14 288.01 303.14 288.01" stroke="#061B24" stroke-linecap="round" stroke-linejoin="round"/>
<path d="M283.34 296.16C283.34 296.16 293.42 294.62 294.99 295.16C297.438 295.689 299.916 296.07 302.41 296.3" stroke="#061B24" stroke-linecap="round" stroke-linejoin="round"/>
<path d="M289 301.47C290.244 301.091 291.519 300.82 292.81 300.66C293.81 300.66 298.96 302.73 298.96 302.73" stroke="#061B24" stroke-linecap="round" stroke-linejoin="round"/>
<path d="M115.56 345.45C117.32 349.57 118.69 353.63 127 354.81C135.31 355.99 156.19 342.74 149.7 323C143.21 303.26 121.48 318.37 117.7 326.65C113.92 334.93 114 341.82 115.56 345.45Z" fill="#061B24" stroke="#061B24" stroke-linecap="round" stroke-linejoin="round"/>
<path d="M143.55 311.3L154.1 347.63L127.15 378.43C127.15 378.43 118.3 373.8 116.31 336.13" fill="white"/>
<path d="M143.55 311.3L154.1 347.63L127.15 378.43C127.15 378.43 118.3 373.8 116.31 336.13" stroke="#061B24" stroke-linecap="round" stroke-linejoin="round"/>
<path d="M131.86 268.59C131.86 268.59 118.62 276.32 116.31 288.24C114 300.16 111.92 333.55 115.56 345.45C115.56 345.45 119.14 334.39 126.07 328.09C133 321.79 149.7 323 149.7 323L146.2 307.37C146.2 307.37 146.12 292.13 131.65 280.37" fill="#27B4F2"/>
<path d="M131.86 268.59C131.86 268.59 118.62 276.32 116.31 288.24C114 300.16 111.92 333.55 115.56 345.45C115.56 345.45 119.14 334.39 126.07 328.09C133 321.79 149.7 323 149.7 323L146.2 307.37C146.2 307.37 146.12 292.13 131.65 280.37" stroke="#061B24" stroke-linecap="round" stroke-linejoin="round"/>
<path d="M123 372.15C127.48 383.76 140.24 386.36 157.28 368.73C165.4 360.33 194.09 289.08 194.09 289.08L179.46 280.3C179.46 280.3 153.37 321.42 141.2 332.48C137.841 335.535 134.759 338.881 131.99 342.48" fill="white"/>
<path d="M123 372.15C127.48 383.76 140.24 386.36 157.28 368.73C165.4 360.33 194.09 289.08 194.09 289.08L179.46 280.3C179.46 280.3 153.37 321.42 141.2 332.48C137.841 335.535 134.759 338.881 131.99 342.48" stroke="#061B24" stroke-linecap="round" stroke-linejoin="round"/>
<path d="M189.46 247.44C189.46 247.44 193.41 237.59 195.52 236.84C197.63 236.09 198.18 237.02 198.3 238.84C198.42 240.66 193.88 257.17 193.88 257.17L186.13 262L189.46 247.44Z" fill="white" stroke="#061B24" stroke-linecap="round" stroke-linejoin="round"/>
<path d="M177.85 213C175.53 213.12 176.78 221.5 178.49 222.19C179.632 222.623 180.831 222.886 182.05 222.97C182.05 222.97 186.59 232.57 195.18 237.75C195.344 237.852 195.53 237.917 195.722 237.939C195.914 237.96 196.109 237.939 196.292 237.876C196.475 237.812 196.642 237.709 196.78 237.573C196.918 237.437 197.024 237.272 197.09 237.09C197.196 236.811 197.202 236.505 197.107 236.222C197.012 235.94 196.822 235.698 196.57 235.54C194.47 234.24 189.11 230.27 184.38 221.35C184.38 221.36 185.52 212.63 177.85 213Z" fill="#061B24"/>
<path d="M193.29 291C195.912 289.198 198.321 287.105 200.47 284.76C205.02 280.11 204.52 268.89 205.31 268.84C208.84 268.65 208.8 260.28 207.59 257.17C206.38 254.06 205.31 254.28 205.31 254.28C204.07 249.81 200.47 249.81 200.47 249.81C200.47 249.81 198.95 246.81 196.76 247.48C194.344 248.42 192.004 249.543 189.76 250.84L190.99 243.47C190.99 243.47 193.71 237.39 194.7 234.35C195.69 231.31 193.12 230.85 193.12 230.85C193.12 230.85 186.72 238.7 185.53 240.68C184.34 242.66 182.04 252.23 182.04 252.23L179.14 283.14" fill="white"/>
<path d="M193.29 291C195.912 289.198 198.321 287.105 200.47 284.76C205.02 280.11 204.52 268.89 205.31 268.84C208.84 268.65 208.8 260.28 207.59 257.17C206.38 254.06 205.31 254.28 205.31 254.28C204.07 249.81 200.47 249.81 200.47 249.81C200.47 249.81 198.95 246.81 196.76 247.48C194.344 248.42 192.004 249.543 189.76 250.84L190.99 243.47C190.99 243.47 193.71 237.39 194.7 234.35C195.69 231.31 193.12 230.85 193.12 230.85C193.12 230.85 186.72 238.7 185.53 240.68C184.34 242.66 182.04 252.23 182.04 252.23L179.14 283.14" stroke="#061B24" stroke-linecap="round" stroke-linejoin="round"/>
<path d="M200.47 249.83L194.07 253.9" stroke="#061B24" stroke-linecap="round" stroke-linejoin="round"/>
<path d="M205.31 254.3C203.7 253.24 199.22 257.19 199.22 257.19" stroke="#061B24" stroke-linecap="round" stroke-linejoin="round"/>
<path d="M205.31 268.86L204.07 262.6C204.536 262.645 204.981 262.816 205.358 263.094C205.735 263.372 206.03 263.748 206.21 264.18" stroke="#061B24" stroke-linecap="round" stroke-linejoin="round"/>
<path d="M141.41 284.2C144.14 289.106 145.387 294.699 145 300.3" stroke="#061B24" stroke-linecap="round" stroke-linejoin="round"/>
</svg>
