<svg width="610" height="466" viewBox="0 0 610 466" fill="none" xmlns="http://www.w3.org/2000/svg">
<path d="M456.11 46.1699C456.11 46.1699 401.87 6.09992 332.54 28.1699C263.21 50.2399 235 109.85 195.73 151.78C175.15 173.78 144.39 182.89 119.81 200.19C41.2 255.52 54.86 371.19 116.81 412.19C170.47 447.72 236.81 448.66 322.59 416.72C408.37 384.78 469.86 365.19 522 282.57C574.14 199.95 523 100.87 456.11 46.1699Z" fill="#27B4F2"/>
<path opacity="0.8" d="M456.11 46.1699C456.11 46.1699 401.87 6.09992 332.54 28.1699C263.21 50.2399 235 109.85 195.73 151.78C175.15 173.78 144.39 182.89 119.81 200.19C41.2 255.52 54.86 371.19 116.81 412.19C170.47 447.72 236.81 448.66 322.59 416.72C408.37 384.78 469.86 365.19 522 282.57C574.14 199.95 523 100.87 456.11 46.1699Z" fill="white"/>
<g opacity="0.3">
<path d="M131.61 126.44H84.03V67.0901H124.51L131.61 73.0101V126.44Z" fill="white" stroke="#061B24" stroke-linejoin="round"/>
<path d="M124.51 67.0901V73.1101H131.61L124.51 67.0901Z" fill="white" stroke="#061B24" stroke-linejoin="round"/>
<path d="M110.3 72.0801H74.78V85.0501H110.3V72.0801Z" fill="#061B24"/>
<path d="M89.29 88.76H127.6" stroke="#061B24" stroke-miterlimit="10"/>
<path d="M89.29 95.8701H127.6" stroke="#061B24" stroke-miterlimit="10"/>
<path d="M89.29 102.97H127.6" stroke="#061B24" stroke-miterlimit="10"/>
<path d="M89.29 110.08H127.6" stroke="#061B24" stroke-miterlimit="10"/>
<path d="M89.29 117.18H127.6" stroke="#061B24" stroke-miterlimit="10"/>
<path d="M85.62 83.2V74.79H83.9V73.79H88.37V74.79H86.65V83.2H85.62Z" fill="white"/>
<path d="M91.41 79.1701L89.84 83.1701H88.84L90.73 78.3501L89 73.8401H90.09L91.53 77.5901L93 73.8401H94L92.25 78.3801L94.12 83.2001H93L91.41 79.1701Z" fill="white"/>
<path d="M96.25 83.2V74.79H94.52V73.79H99V74.79H97.27V83.2H96.25Z" fill="white"/>
</g>
<g opacity="0.3">
<path d="M518.85 257H471.27V197.64H511.74L518.85 203.56V257Z" fill="white" stroke="#061B24" stroke-linejoin="round"/>
<path d="M511.74 197.64V203.66H518.85L511.74 197.64Z" fill="white" stroke="#061B24" stroke-linejoin="round"/>
<path d="M497.53 202.64H462.01V215.61H497.53V202.64Z" fill="#061B24"/>
<path d="M476.53 219.32H514.83" stroke="#061B24" stroke-miterlimit="10"/>
<path d="M476.53 226.42H514.83" stroke="#061B24" stroke-miterlimit="10"/>
<path d="M476.53 233.52H514.83" stroke="#061B24" stroke-miterlimit="10"/>
<path d="M476.53 240.63H514.83" stroke="#061B24" stroke-miterlimit="10"/>
<path d="M476.53 247.73H514.83" stroke="#061B24" stroke-miterlimit="10"/>
<path d="M472.86 213.76V205.35H471.13V204.4H475.61V205.35H473.89V213.76H472.86Z" fill="white"/>
<path d="M478.65 209.72L477.08 213.72H476.08L477.97 208.89L476.2 204.36H477.28L478.73 208.1L480.19 204.36H481.19L479.44 208.89L481.31 213.72H480.2L478.65 209.72Z" fill="white"/>
<path d="M483.48 213.76V205.35H481.76V204.4H486.24V205.35H484.51V213.76H483.48Z" fill="white"/>
</g>
<g opacity="0.3">
<path d="M363.31 358.39H315.73V299.03H356.21L363.31 304.95V358.39Z" fill="white" stroke="#061B24" stroke-linejoin="round"/>
<path d="M356.21 299.03V305.06H363.31L356.21 299.03Z" fill="white" stroke="#061B24" stroke-linejoin="round"/>
<path d="M342 304.03H306.48V317H342V304.03Z" fill="#061B24"/>
<path d="M321 320.71H359.3" stroke="#061B24" stroke-miterlimit="10"/>
<path d="M321 327.81H359.3" stroke="#061B24" stroke-miterlimit="10"/>
<path d="M321 334.91H359.3" stroke="#061B24" stroke-miterlimit="10"/>
<path d="M321 342.02H359.3" stroke="#061B24" stroke-miterlimit="10"/>
<path d="M321 349.12H359.3" stroke="#061B24" stroke-miterlimit="10"/>
<path d="M317.32 315.15V306.74H315.6V305.79H320.08V306.74H318.35V315.15H317.32Z" fill="white"/>
<path d="M323.11 311.11L321.54 315.11H320.54L322.42 310.28L320.66 305.75H321.74L323.18 309.49L324.64 305.75H325.64L323.88 310.28L325.76 315.11H324.66L323.11 311.11Z" fill="white"/>
<path d="M328 315.15V306.74H326.27V305.79H330.75V306.74H329V315.15H328Z" fill="white"/>
</g>
<g opacity="0.3">
<path d="M151.32 270.45H87.2401V190.51H141.76L151.32 198.48V270.45Z" fill="white" stroke="#061B24" stroke-linejoin="round"/>
<path d="M141.76 190.51V198.62H151.32L141.76 190.51Z" fill="white" stroke="#061B24" stroke-linejoin="round"/>
<path d="M122.62 197.24H74.78V214.71H122.62V197.24Z" fill="#061B24"/>
<path d="M94.33 219.7H145.92" stroke="#061B24" stroke-miterlimit="10"/>
<path d="M94.33 229.27H145.92" stroke="#061B24" stroke-miterlimit="10"/>
<path d="M94.33 238.83H145.92" stroke="#061B24" stroke-miterlimit="10"/>
<path d="M94.33 248.4H145.92" stroke="#061B24" stroke-miterlimit="10"/>
<path d="M94.33 257.97H145.92" stroke="#061B24" stroke-miterlimit="10"/>
<path d="M90.32 199.61C92.32 199.61 93.15 200.78 93.15 202.69V204.2C93.15 206.2 92.21 207.2 90.21 207.2H89V212.2H87.6V199.6L90.32 199.61ZM90.21 206C91.21 206 91.76 205.51 91.76 204.31V202.63C91.76 201.48 91.35 200.9 90.32 200.9H89V206H90.21Z" fill="white"/>
<path d="M97.25 199.61C99.25 199.61 100.11 200.79 100.11 202.74V209.09C100.11 211.02 99.21 212.21 97.25 212.21H94.25V199.61H97.25ZM97.25 210.93C98.25 210.93 98.75 210.3 98.75 209.15V202.67C98.75 201.51 98.26 200.88 97.24 200.88H95.7V210.93H97.25Z" fill="white"/>
<path d="M105.73 205.48V206.75H102.83V212.21H101.43V199.61H106.43V200.88H102.83V205.48H105.73Z" fill="white"/>
</g>
<g opacity="0.3">
<path d="M125 379.8H93.42V340.41H120.28L125 344.34V379.8Z" fill="white" stroke="#061B24" stroke-linejoin="round"/>
<path d="M120.28 340.41V344.41H125L120.28 340.41Z" fill="white" stroke="#061B24" stroke-linejoin="round"/>
<path d="M110.85 343.72H87.28V352.33H110.85V343.72Z" fill="#061B24"/>
<path d="M96.92 354.79H122.34" stroke="#061B24" stroke-miterlimit="10"/>
<path d="M96.92 359.51H122.34" stroke="#061B24" stroke-miterlimit="10"/>
<path d="M96.92 364.22H122.34" stroke="#061B24" stroke-miterlimit="10"/>
<path d="M96.92 368.94H122.34" stroke="#061B24" stroke-miterlimit="10"/>
<path d="M96.92 373.65H122.34" stroke="#061B24" stroke-miterlimit="10"/>
<path d="M94.94 344.89C95.94 344.89 96.33 345.47 96.33 346.41V347.15C96.33 348.15 95.87 348.65 94.88 348.65H94.27V351.1H93.58V344.89H94.94ZM94.88 348C95.4 348 95.65 347.76 95.65 347.17V346.34C95.65 345.78 95.44 345.49 94.94 345.49H94.27V348H94.88Z" fill="white"/>
<path d="M98.35 344.89C99.35 344.89 99.76 345.48 99.76 346.44V349.57C99.76 350.52 99.32 351.1 98.35 351.1H96.9V344.89H98.35ZM98.35 350.47C98.85 350.47 99.09 350.16 99.09 349.59V346.4C99.09 345.83 98.85 345.52 98.34 345.52H97.6V350.52L98.35 350.47Z" fill="white"/>
<path d="M102.53 347.78V348.41H101.1V351.1H100.41V344.89H102.88V345.52H101.1V347.78H102.53Z" fill="white"/>
</g>
<g opacity="0.3">
<path d="M526.47 87.39H494.89V47.99H521.75L526.47 51.92V87.39Z" fill="white" stroke="#061B24" stroke-linejoin="round"/>
<path d="M521.75 47.99V51.99H526.47L521.75 47.99Z" fill="white" stroke="#061B24" stroke-linejoin="round"/>
<path d="M512.32 51.3101H488.75V59.9201H512.32V51.3101Z" fill="#061B24"/>
<path d="M498.38 62.3799H523.8" stroke="#061B24" stroke-miterlimit="10"/>
<path d="M498.38 67.0901H523.8" stroke="#061B24" stroke-miterlimit="10"/>
<path d="M498.38 71.8101H523.8" stroke="#061B24" stroke-miterlimit="10"/>
<path d="M498.38 76.52H523.8" stroke="#061B24" stroke-miterlimit="10"/>
<path d="M498.38 81.24H523.8" stroke="#061B24" stroke-miterlimit="10"/>
<path d="M496.41 52.48C497.41 52.48 497.8 53.05 497.8 54V54.74C497.8 55.74 497.34 56.24 496.35 56.24H495.74V58.69H495.05V52.48H496.41ZM496.35 55.62C496.87 55.62 497.12 55.38 497.12 54.78V54C497.12 53.43 496.91 53.15 496.41 53.15H495.74V55.66L496.35 55.62Z" fill="white"/>
<path d="M499.82 52.48C500.82 52.48 501.23 53.06 501.23 54.02V57.15C501.23 58.1 500.79 58.69 499.82 58.69H498.37V52.48H499.82ZM499.82 58.06C500.32 58.06 500.56 57.75 500.56 57.18V54C500.56 53.43 500.32 53.12 499.81 53.12H499.07V58.12L499.82 58.06Z" fill="white"/>
<path d="M504 55.37V56H502.57V58.69H501.88V52.48H504.35V53.11H502.57V55.37H504Z" fill="white"/>
</g>
<path d="M470.48 32.5901H136.02V294H470.48V32.5901Z" fill="#0080B9" stroke="#0080B9" stroke-miterlimit="10"/>
<path d="M482.34 22.3601H146.87V284.39H482.34V22.3601Z" fill="#27B4F2"/>
<path d="M482.34 22.3601H146.87V284.39H482.34V22.3601Z" fill="white" stroke="#0080B9" stroke-linecap="round" stroke-linejoin="round"/>
<path d="M227 59.49H156V104.49H227V59.49Z" fill="white" stroke="#0080B9" stroke-linecap="round" stroke-linejoin="round"/>
<path d="M175.5 79H205.5" stroke="#0080B9" stroke-miterlimit="10"/>
<path d="M168 86.5H217.5" stroke="#0080B9" stroke-miterlimit="10"/>
<path d="M227 112.99H156V157.99H227V112.99Z" fill="white" stroke="#0080B9" stroke-linecap="round" stroke-linejoin="round"/>
<path d="M163.39 123.67H188.29" stroke="#0080B9" stroke-miterlimit="10"/>
<path d="M163.39 129.63H188.29" stroke="#0080B9" stroke-miterlimit="10"/>
<path d="M163.39 135.59H188.29" stroke="#0080B9" stroke-miterlimit="10"/>
<path d="M163.39 141.55H188.29" stroke="#0080B9" stroke-miterlimit="10"/>
<path d="M163.39 147.51H188.29" stroke="#0080B9" stroke-miterlimit="10"/>
<path d="M194.22 123.67H219.12" stroke="#0080B9" stroke-miterlimit="10"/>
<path d="M194.22 129.63H219.12" stroke="#0080B9" stroke-miterlimit="10"/>
<path d="M194.22 135.59H219.12" stroke="#0080B9" stroke-miterlimit="10"/>
<path d="M194.22 141.55H219.12" stroke="#0080B9" stroke-miterlimit="10"/>
<path d="M194.22 147.51H219.12" stroke="#0080B9" stroke-miterlimit="10"/>
<path d="M227 166.49H156V211.49H227V166.49Z" fill="white" stroke="#0080B9" stroke-linecap="round" stroke-linejoin="round"/>
<path d="M163.39 177.17H188.29" stroke="#0080B9" stroke-miterlimit="10"/>
<path d="M163.39 183.13H188.29" stroke="#0080B9" stroke-miterlimit="10"/>
<path d="M163.39 189.09H188.29" stroke="#0080B9" stroke-miterlimit="10"/>
<path d="M163.39 195.05H188.29" stroke="#0080B9" stroke-miterlimit="10"/>
<path d="M163.39 201.01H188.29" stroke="#0080B9" stroke-miterlimit="10"/>
<path d="M194.22 177.17H219.12" stroke="#0080B9" stroke-miterlimit="10"/>
<path d="M194.22 183.13H219.12" stroke="#0080B9" stroke-miterlimit="10"/>
<path d="M194.22 189.09H219.12" stroke="#0080B9" stroke-miterlimit="10"/>
<path d="M194.22 195.05H219.12" stroke="#0080B9" stroke-miterlimit="10"/>
<path d="M194.22 201.01H219.12" stroke="#0080B9" stroke-miterlimit="10"/>
<path d="M227 219.99H156V264.99H227V219.99Z" fill="white" stroke="#0080B9" stroke-linecap="round" stroke-linejoin="round"/>
<path d="M163.39 230.67H188.29" stroke="#0080B9" stroke-miterlimit="10"/>
<path d="M163.39 236.63H188.29" stroke="#0080B9" stroke-miterlimit="10"/>
<path d="M163.39 242.59H188.29" stroke="#0080B9" stroke-miterlimit="10"/>
<path d="M163.39 248.55H188.29" stroke="#0080B9" stroke-miterlimit="10"/>
<path d="M163.39 254.51H188.29" stroke="#0080B9" stroke-miterlimit="10"/>
<path d="M194.22 230.67H219.12" stroke="#0080B9" stroke-miterlimit="10"/>
<path d="M194.22 236.63H219.12" stroke="#0080B9" stroke-miterlimit="10"/>
<path d="M194.22 242.59H219.12" stroke="#0080B9" stroke-miterlimit="10"/>
<path d="M194.22 248.55H219.12" stroke="#0080B9" stroke-miterlimit="10"/>
<path d="M194.22 254.51H219.12" stroke="#0080B9" stroke-miterlimit="10"/>
<path d="M482.33 22.3601H237V284.39H482.33V22.3601Z" fill="#E9F8FE" stroke="#0080B9" stroke-linecap="round" stroke-linejoin="round"/>
<path d="M466 72H244V223H466V72Z" fill="white" stroke="#0080B9" stroke-linecap="round" stroke-linejoin="round"/>
<path d="M295.58 131.94H417.42" stroke="#0080B9" stroke-miterlimit="10"/>
<path d="M279.02 145.18H433.98" stroke="#0080B9" stroke-miterlimit="10"/>
<path d="M482.33 22.3601H473.66V284.39H482.33V22.3601Z" fill="#A2DFF9" stroke="#0080B9" stroke-miterlimit="10"/>
<path d="M482.33 103.54H473.66V174.34H482.33V103.54Z" fill="#27B4F2"/>
<path d="M482.34 22.3601H146.87V39.3801H482.34V22.3601Z" fill="#27B4F2" stroke="#0080B9" stroke-linecap="round" stroke-linejoin="round"/>
<path d="M384.61 25.26H168.93V34.86H384.61V25.26Z" fill="white"/>
<path d="M465.99 45.4001H449.34" stroke="#0080B9" stroke-miterlimit="10"/>
<path d="M465.99 50.53H449.34" stroke="#0080B9" stroke-miterlimit="10"/>
<path d="M465.99 55.6501H449.34" stroke="#0080B9" stroke-miterlimit="10"/>
<path d="M486 391.44L490.05 379.86" stroke="#0080B9" stroke-linecap="round" stroke-linejoin="round"/>
<path d="M486.29 360.17V403.31" stroke="#0080B9" stroke-linecap="round" stroke-linejoin="round"/>
<path d="M479.65 382.55C479.65 382.55 473.65 376 467.65 377.09C461.65 378.18 458.91 385.29 458.91 389.66C458.91 394.03 464.91 408.23 464.91 408.23C464.91 408.23 469.28 403.32 479.12 396.23C488.96 389.14 489.49 382 479.65 382.55Z" fill="#27B4F2" stroke="#0080B9" stroke-linecap="round" stroke-linejoin="round"/>
<path d="M479.65 382.55C474.5 385.467 470.325 389.84 467.65 395.12" stroke="#0080B9" stroke-linecap="round" stroke-linejoin="round"/>
<path d="M489.45 374.86C489.45 374.86 494.45 369.47 499.36 370.38C504.27 371.29 506.55 377.15 506.54 380.75C506.53 384.35 501.54 396.05 501.54 396.05C497.984 392.364 494.075 389.035 489.87 386.11C481.78 380.24 481.34 374.39 489.45 374.86Z" fill="#27B4F2" stroke="#0080B9" stroke-linecap="round" stroke-linejoin="round"/>
<path d="M489.45 374.86C493.694 377.268 497.129 380.88 499.32 385.24" stroke="#0080B9" stroke-linecap="round" stroke-linejoin="round"/>
<path d="M485.42 367.7L492.95 356.69" stroke="#0080B9" stroke-linecap="round" stroke-linejoin="round"/>
<path d="M484.16 364.51C484.16 364.51 484.04 357.19 479.73 354.58C475.42 351.97 469.87 354.85 467.48 357.58C465.09 360.31 461 372.29 461 372.29C461 372.29 466.38 371.64 476.33 372.64C486.28 373.64 490.52 369.55 484.16 364.51Z" fill="#27B4F2" stroke="#0080B9" stroke-linecap="round" stroke-linejoin="round"/>
<path d="M484.16 364.51C479.388 363.487 474.42 363.898 469.88 365.69" stroke="#0080B9" stroke-linecap="round" stroke-linejoin="round"/>
<path d="M490.63 354.69C490.63 354.69 490.72 349.3 493.89 347.38C497.06 345.46 501.16 347.58 502.89 349.56C504.62 351.54 507.64 360.41 507.64 360.41C503.881 360.129 500.103 360.216 496.36 360.67C489.06 361.4 486 358.4 490.63 354.69Z" fill="#27B4F2" stroke="#0080B9" stroke-linecap="round" stroke-linejoin="round"/>
<path d="M490.63 354.69C494.142 353.937 497.799 354.24 501.14 355.56" stroke="#0080B9" stroke-linecap="round" stroke-linejoin="round"/>
<path d="M504.69 399.61H465.88L469.81 440.01H500.76L504.69 399.61Z" fill="white" stroke="#0080B9" stroke-linecap="round" stroke-linejoin="round"/>
<path d="M494.4 417.21C494.4 417.554 494.502 417.89 494.693 418.176C494.884 418.463 495.156 418.686 495.474 418.817C495.792 418.949 496.142 418.983 496.48 418.916C496.817 418.849 497.127 418.683 497.37 418.44C497.614 418.197 497.779 417.887 497.847 417.549C497.914 417.212 497.879 416.862 497.748 416.544C497.616 416.226 497.393 415.954 497.107 415.763C496.821 415.572 496.484 415.47 496.14 415.47C495.911 415.468 495.684 415.513 495.473 415.6C495.261 415.686 495.069 415.815 494.907 415.976C494.745 416.138 494.617 416.331 494.53 416.542C494.443 416.754 494.399 416.981 494.4 417.21Z" fill="#0080B9" stroke="#0080B9" stroke-linecap="round" stroke-linejoin="round"/>
<path d="M488 417.21C488 417.554 488.102 417.89 488.293 418.176C488.484 418.463 488.756 418.686 489.074 418.817C489.392 418.949 489.742 418.983 490.079 418.916C490.417 418.849 490.727 418.683 490.97 418.44C491.214 418.197 491.379 417.887 491.447 417.549C491.514 417.212 491.479 416.862 491.348 416.544C491.216 416.226 490.993 415.954 490.707 415.763C490.421 415.572 490.084 415.47 489.74 415.47C489.511 415.468 489.284 415.513 489.073 415.6C488.861 415.686 488.669 415.815 488.507 415.976C488.345 416.138 488.217 416.331 488.13 416.542C488.043 416.754 487.999 416.981 488 417.21Z" fill="#0080B9" stroke="#0080B9" stroke-linecap="round" stroke-linejoin="round"/>
<path d="M467.17 412.86H503.4L503.57 411.13H467L467.17 412.86Z" fill="#0080B9" stroke="#0080B9" stroke-linecap="round" stroke-linejoin="round"/>
<path d="M501.85 428.79L502.58 421.26H467.99L468.72 428.79H501.85Z" fill="#0080B9" stroke="#0080B9" stroke-linecap="round" stroke-linejoin="round"/>
<path d="M500.77 417.21C500.77 417.438 500.815 417.664 500.903 417.874C500.99 418.085 501.119 418.276 501.28 418.437C501.442 418.598 501.634 418.725 501.845 418.811C502.056 418.898 502.282 418.941 502.51 418.94H502.81L503.13 415.62C502.932 415.544 502.722 415.503 502.51 415.5C502.054 415.5 501.616 415.679 501.29 415.999C500.965 416.319 500.778 416.754 500.77 417.21Z" fill="#0080B9" stroke="#0080B9" stroke-linecap="round" stroke-linejoin="round"/>
<path d="M481.66 417.21C481.66 417.554 481.762 417.89 481.953 418.176C482.145 418.463 482.416 418.686 482.734 418.817C483.052 418.949 483.402 418.983 483.74 418.916C484.077 418.849 484.387 418.683 484.63 418.44C484.874 418.197 485.039 417.887 485.107 417.549C485.174 417.212 485.139 416.862 485.008 416.544C484.876 416.226 484.653 415.954 484.367 415.763C484.081 415.572 483.744 415.47 483.4 415.47C483.171 415.468 482.944 415.513 482.733 415.6C482.521 415.686 482.329 415.815 482.167 415.976C482.005 416.138 481.877 416.331 481.79 416.542C481.703 416.754 481.659 416.981 481.66 417.21Z" fill="#0080B9" stroke="#0080B9" stroke-linecap="round" stroke-linejoin="round"/>
<path d="M468.92 417.21C468.92 417.554 469.022 417.89 469.213 418.176C469.405 418.463 469.676 418.686 469.994 418.817C470.312 418.949 470.662 418.983 471 418.916C471.337 418.849 471.647 418.683 471.89 418.44C472.134 418.197 472.299 417.887 472.367 417.549C472.434 417.212 472.399 416.862 472.268 416.544C472.136 416.226 471.913 415.954 471.627 415.763C471.341 415.572 471.004 415.47 470.66 415.47C470.431 415.468 470.204 415.513 469.993 415.6C469.781 415.686 469.589 415.815 469.427 415.976C469.265 416.138 469.137 416.331 469.05 416.542C468.963 416.754 468.919 416.981 468.92 417.21Z" fill="#0080B9" stroke="#0080B9" stroke-linecap="round" stroke-linejoin="round"/>
<path d="M475.29 417.21C475.29 417.554 475.392 417.89 475.583 418.176C475.775 418.463 476.046 418.686 476.364 418.817C476.682 418.949 477.032 418.983 477.37 418.916C477.707 418.849 478.017 418.683 478.26 418.44C478.504 418.197 478.669 417.887 478.737 417.549C478.804 417.212 478.769 416.862 478.638 416.544C478.506 416.226 478.283 415.954 477.997 415.763C477.711 415.572 477.374 415.47 477.03 415.47C476.801 415.468 476.574 415.513 476.363 415.6C476.151 415.686 475.959 415.815 475.797 415.976C475.635 416.138 475.507 416.331 475.42 416.542C475.333 416.754 475.289 416.981 475.29 417.21Z" fill="#0080B9" stroke="#0080B9" stroke-linecap="round" stroke-linejoin="round"/>
<path d="M221.27 440.11C226.07 434.19 234.64 423.75 237.59 421.01C240.427 418.293 243.099 415.408 245.59 412.37C245.59 412.37 240.52 422.2 249.16 429.95C257.8 437.7 283.44 431.74 289.1 427.57C294.76 423.4 295.36 412.67 290.3 396.87C285.24 381.07 278.07 351.87 278.37 341.73C278.67 331.59 272.11 302.98 269.13 295.23C266.15 287.48 253.93 281.82 241.41 279.14C228.89 276.46 195.21 290.46 195.21 290.46L188.36 293.14C188.36 293.14 160.36 308.64 152.89 314.9C145.42 321.16 149.01 338.45 147.23 355.14C145.45 371.83 145.44 391.21 145.44 391.21C145.44 391.21 128.15 406.41 115.63 423.69C109.63 432.01 106.14 437.08 104.16 440.11H221.27Z" fill="#27B4F2" stroke="#061B24" stroke-miterlimit="10"/>
<path d="M282.74 407.82C282.74 407.82 272.74 405.47 262.26 412.5C251.78 419.53 254.64 430.06 264.01 432.4C273.38 434.74 285.67 434.74 292.11 424.79C298.55 414.84 287.43 407.23 282.74 407.82Z" fill="white" stroke="#061B24" stroke-miterlimit="10"/>
<path d="M285.23 407.73C279.624 406.84 273.891 408.152 269.23 411.39C261.01 416.87 263.29 425.1 270.6 426.93C277.91 428.76 287.51 428.76 292.54 420.99C297.57 413.22 288.88 407.28 285.23 407.73Z" fill="white" stroke="#061B24" stroke-miterlimit="10"/>
<path d="M262.09 341.07C262.42 335.63 262.63 331.92 262.63 331.59" stroke="#061B24" stroke-miterlimit="10"/>
<path d="M245.64 412.37C245.64 412.37 256.37 401.94 258.15 390.01C259.26 382.66 260.7 362.63 261.64 348.06" stroke="#061B24" stroke-miterlimit="10"/>
<path d="M274.77 361.27C272.07 369.95 267.07 382.98 259.35 391.8" stroke="#061B24" stroke-miterlimit="10"/>
<path d="M277.23 352.16C277.23 352.16 276.81 354.16 275.92 357.36" stroke="#061B24" stroke-miterlimit="10"/>
<path d="M276.29 386.15C271.019 392.188 264.793 397.319 257.86 401.34" stroke="#061B24" stroke-miterlimit="10"/>
<path d="M281.4 379.58C280.308 381.226 279.122 382.809 277.85 384.32" stroke="#061B24" stroke-miterlimit="10"/>
<path d="M291.84 404.92C281.895 401.906 271.251 402.113 261.43 405.51C244.74 411.18 246.53 423.99 248.02 426.08" stroke="#061B24" stroke-miterlimit="10"/>
<path d="M246.6 197.21C246.6 197.21 246.6 193.7 241.77 186.21C236.94 178.72 212.35 181.82 204.01 190.16C195.67 198.5 207.52 209.04 202.25 215.16C196.98 221.28 179.42 218.23 173.71 229.21C168 240.19 182.49 245.45 185.57 249.4C188.65 253.35 180.3 254.67 181.18 258.62C182.06 262.57 195.66 263.01 195.66 263.01C195.66 263.01 186.88 265.65 191.27 269.16C197.32 273.735 204.772 276.065 212.35 275.75C221.13 275.31 218.93 258.18 218.06 245.45C217.19 232.72 228.59 218.67 241.77 219.98C254.95 221.29 268.99 236.23 266.77 242.82C264.55 249.41 270.28 241.5 282.14 234.03C294 226.56 288.73 211.2 286.14 208.13C283.55 205.06 274.73 204.18 272.97 198.47C271.21 192.76 267.26 187.06 259.8 187.06C252.34 187.06 254.06 196.77 246.6 197.21Z" fill="#061B24" stroke="#061B24" stroke-miterlimit="10"/>
<path d="M209 276.15C209 276.15 203.34 277.64 201 280.63C198.66 283.62 189 289 188.41 293.14C187.82 297.28 191.41 318.78 198.54 327.42C205.67 336.06 209.27 336.66 209.27 336.66C209.27 336.66 211.36 328.32 212.85 327.72C214.34 327.12 228.05 335.72 228.05 335.72C228.05 335.72 230.43 321.72 231.93 321.72C233.43 321.72 238.18 326.49 238.18 326.49C238.18 326.49 239.97 314.56 238.78 305.32C237.59 296.08 229.84 284.76 224.18 280.88C218.52 277 214 273.47 209 276.15Z" fill="white" stroke="#061B24" stroke-miterlimit="10"/>
<path d="M211.91 264.83L200.91 291.17C200.91 291.17 203.74 303.44 207.46 311.33C212.53 322.06 225.06 327.17 225.06 327.17C224.98 320.947 226.331 314.788 229.01 309.17C231.513 304.096 234.45 299.247 237.79 294.68C237.79 294.68 218.06 275.37 211.91 264.83Z" fill="white" stroke="#061B24" stroke-miterlimit="10"/>
<path d="M214.75 274.82C214.75 274.82 219.8 303.69 227.02 312.71L233.87 299.71L215.87 271.56L214.75 274.82Z" fill="#061B24" stroke="#061B24" stroke-miterlimit="10"/>
<path d="M210.46 360.51C210.46 360.51 228.05 314.6 230.46 311.92C232.87 309.24 238.21 304.47 240.6 301.19C242.99 297.91 249.54 289.57 251.93 289.57C254.32 289.57 259.93 291.65 262.66 292.25C265.39 292.85 267.13 293.74 267.42 298.25C267.71 302.76 263.85 303.02 263.85 303.02L262.36 301.23C262.36 301.23 251.63 317.33 248.36 319.41C246.407 320.667 244.304 321.675 242.1 322.41L227.79 375.77L210.46 360.51Z" fill="white" stroke="#061B24" stroke-miterlimit="10"/>
<path d="M272.5 227.39C272.5 227.39 276.67 230.87 273.89 242.67C271.11 254.47 270.42 260.38 270.42 267.33C270.42 274.28 268.34 284 262.42 290.25C256.5 296.5 249.23 305.53 240.55 305.18C226.8 304.63 220.06 285.73 215.55 277.05C211.04 268.37 210 256.56 210 251.7C210 246.84 210.69 235.38 216.94 226.7C223.19 218.02 240.21 214.55 247.5 215.59C254.79 216.63 263.82 217.67 272.5 227.39Z" fill="white" stroke="#061B24" stroke-miterlimit="10"/>
<path d="M213.12 258.65C213.12 258.65 214.51 253.79 220.76 251.01C227.01 248.23 230.83 243.37 228.76 238.85C226.69 234.33 227.76 229.85 236.76 227.39C245.76 224.93 248.22 233.99 256.9 232.6C265.58 231.21 268.01 227.74 272.52 229.82C277.03 231.9 274.95 237.82 274.95 237.82C274.95 237.82 280.51 227.75 269.75 216.29C258.99 204.83 232.94 200.66 214.88 213.86C196.82 227.06 207.24 257.96 207.24 257.96C207.24 257.96 208.26 259.34 213.12 258.65Z" fill="#061B24" stroke="#061B24" stroke-miterlimit="10"/>
<path d="M256.53 264.55L255.49 284.69L248.19 281.91" stroke="#061B24" stroke-miterlimit="10"/>
<path d="M251 292C251 292 244.06 293 240.93 288.18" stroke="#061B24" stroke-miterlimit="10"/>
<path d="M243.31 264.34C242.99 266.34 241.88 267.8 240.84 267.63C239.8 267.46 239.22 265.71 239.54 263.72C239.86 261.73 240.97 260.26 242.01 260.43C243.05 260.6 243.63 262.35 243.31 264.34Z" fill="#061B24"/>
<path d="M265.56 264.9C265.24 266.9 264.13 268.36 263.09 268.19C262.05 268.02 261.46 266.27 261.79 264.29C262.12 262.31 263.22 260.82 264.26 260.99C265.3 261.16 265.88 262.91 265.56 264.9Z" fill="#061B24"/>
<path d="M234.44 255.27C234.44 255.27 241.91 248.76 247.93 253.82" stroke="#061B24" stroke-width="2" stroke-miterlimit="10" stroke-linecap="round"/>
<path d="M260.7 253.82C260.7 253.82 265.76 249.49 270.1 253.58" stroke="#061B24" stroke-width="2" stroke-miterlimit="10" stroke-linecap="round"/>
<path d="M252.75 259.61C252.75 259.61 242.15 257.92 225.75 260.61C225.75 260.61 224.31 271.69 232.02 276.51C239.73 281.33 247.2 276.75 249.12 274.1C253 268.82 252.75 259.61 252.75 259.61Z" stroke="#061B24" stroke-width="2" stroke-miterlimit="10"/>
<path d="M277.08 258.09C277.08 258.09 269.5 256.48 257.78 259.01C257.78 259.01 256.78 269.61 262.26 274.21C267.74 278.81 273.12 274.44 274.5 271.91C277.22 266.9 277.08 258.09 277.08 258.09Z" stroke="#061B24" stroke-width="2" stroke-miterlimit="10"/>
<path d="M252.75 259.61C252.75 259.61 253.89 256.49 257.75 259.01" stroke="#061B24" stroke-width="2" stroke-miterlimit="10"/>
<path d="M209.62 254.06L225.76 260.57" stroke="#061B24" stroke-width="2" stroke-miterlimit="10"/>
<path d="M214.51 260.38C214.51 260.38 212.08 246.15 205.51 253.09C198.94 260.03 204.82 266.98 207.94 270.09C211.06 273.2 214.94 270.09 214.94 270.09" fill="white"/>
<path d="M214.51 260.38C214.51 260.38 212.08 246.15 205.51 253.09C198.94 260.03 204.82 266.98 207.94 270.09C211.06 273.2 214.94 270.09 214.94 270.09" stroke="#061B24" stroke-miterlimit="10"/>
<path d="M188.49 330.54C192.769 338.479 195.664 347.089 197.05 356C199.14 370.31 198.84 373 198.84 373L209.27 360.49C209.27 360.49 226.27 372.41 228.94 376.28C231.61 380.15 231.94 381.35 231.94 381.35C231.94 381.35 231.94 404.6 222.1 418.61C212.26 432.62 207.49 432.61 197.96 432.61C188.43 432.61 176.2 423.66 169.64 408.76C163.08 393.86 157.71 372.13 156.52 370C155.33 367.87 151.45 356 151.45 356" fill="#27B4F2"/>
<path d="M188.49 330.54C192.769 338.479 195.664 347.089 197.05 356C199.14 370.31 198.84 373 198.84 373L209.27 360.49C209.27 360.49 226.27 372.41 228.94 376.28C231.61 380.15 231.94 381.35 231.94 381.35C231.94 381.35 231.94 404.6 222.1 418.61C212.26 432.62 207.49 432.61 197.96 432.61C188.43 432.61 176.2 423.66 169.64 408.76C163.08 393.86 157.71 372.13 156.52 370C155.33 367.87 151.45 356 151.45 356" stroke="#061B24" stroke-miterlimit="10"/>
<path d="M184.58 390.49C183.49 391.77 182.58 392.84 181.85 393.59" stroke="#061B24" stroke-miterlimit="10"/>
<path d="M198.84 373C198.84 373 193.27 380 188.27 386.05" stroke="#061B24" stroke-miterlimit="10"/>
<path d="M200.33 371.53C206.813 373.401 213.025 376.107 218.81 379.58C228.94 385.58 229.81 392.1 232.81 389.72C235.81 387.34 238.17 379.88 235.19 375.72C232.21 371.56 222.97 361.72 216.42 358.72C209.87 355.72 207.18 357.52 205.09 362C203 366.48 198.24 368.85 200.33 371.53Z" fill="white" stroke="#061B24" stroke-miterlimit="10"/>
<path d="M200 395.93C200.078 398.769 200.508 401.587 201.28 404.32" stroke="#061B24" stroke-miterlimit="10"/>
<path d="M200.33 371.53C200.33 371.53 199.62 381.53 199.77 390.84" stroke="#061B24" stroke-miterlimit="10"/>
<path d="M210.46 376.6C210.46 376.6 212.55 388.23 214.94 393.29" stroke="#061B24" stroke-miterlimit="10"/>
<path d="M281.11 405.51C281.11 405.51 270.97 423.4 272.46 425.51C273.95 427.62 307.04 425.51 307.04 425.51L308.82 418.36C308.82 418.36 315.68 421.04 321.05 421.04C326.42 421.04 322.24 419.55 320.45 417.76C318.66 415.97 308.23 409.42 307.33 408.82C306.43 408.22 289.15 403.72 281.11 405.51Z" fill="white" stroke="#061B24" stroke-miterlimit="10"/>
<path d="M302.7 403.45C302.7 403.45 307.49 402.01 308.77 405.05C310.05 408.09 309.41 421.05 308.93 424.37C308.45 427.69 306.22 427.56 305.26 424.37C304.3 421.18 302.06 403.93 302.06 403.93L302.7 403.45Z" fill="white" stroke="#061B24" stroke-miterlimit="10"/>
<path d="M292.64 404.89C292.64 404.89 299.83 399.94 301.91 402.49C303.99 405.04 305.91 425.17 306.54 426.61C307.17 428.05 303.82 429.16 302.54 427.72C301.26 426.28 297.59 418.94 296.48 416.23C295.37 413.52 292.64 404.89 292.64 404.89Z" fill="white" stroke="#061B24" stroke-miterlimit="10"/>
<path d="M278.43 410.32C278.43 410.32 282.43 402.97 285.78 400.9C289.13 398.83 292.78 402.65 294.56 405.53C296.34 408.41 297.75 415.91 298.56 419.58C299.37 423.25 301.56 427.4 300.32 427.88C299.08 428.36 294.09 424.21 292.65 421.98C291.21 419.75 287.7 411.12 287.7 411.12" fill="white"/>
<path d="M278.43 410.32C278.43 410.32 282.43 402.97 285.78 400.9C289.13 398.83 292.78 402.65 294.56 405.53C296.34 408.41 297.75 415.91 298.56 419.58C299.37 423.25 301.56 427.4 300.32 427.88C299.08 428.36 294.09 424.21 292.65 421.98C291.21 419.75 287.7 411.12 287.7 411.12" stroke="#061B24" stroke-miterlimit="10"/>
<path d="M285 424.21C285 424.21 279.25 418.62 277.33 416.86C275.41 415.1 272.7 414.31 270.79 416.39C268.88 418.47 267.91 421.02 270.79 423.73C273.67 426.44 280.51 430 285 430C289.49 430 288.67 427.76 287.55 426.49C286.793 425.632 285.937 424.867 285 424.21Z" fill="white" stroke="#061B24" stroke-miterlimit="10"/>
<path d="M228.09 440.01H437.64V434.02H228.09V440.01Z" fill="#A2DFF9" stroke="#0080B9" stroke-linecap="round" stroke-linejoin="round"/>
<path d="M228.09 440.01H301.65V434.02H228.09V440.01Z" fill="#0080B9" stroke="#0080B9" stroke-linecap="round" stroke-linejoin="round"/>
<path d="M295.72 434H431.78L439.64 343.51C439.748 342.516 439.643 341.51 439.332 340.559C439.022 339.608 438.512 338.734 437.838 337.996C437.163 337.257 436.34 336.67 435.421 336.274C434.502 335.879 433.51 335.683 432.51 335.7H312.06C309.936 335.74 307.901 336.557 306.338 337.996C304.776 339.435 303.795 341.397 303.58 343.51L295.72 434Z" fill="#0080B9" stroke="#0080B9" stroke-linecap="round" stroke-linejoin="round"/>
<path d="M298.33 434H434.39L442.25 343.51C442.358 342.516 442.253 341.51 441.942 340.559C441.632 339.608 441.122 338.734 440.448 337.996C439.773 337.257 438.95 336.67 438.031 336.274C437.112 335.879 436.12 335.683 435.12 335.7H314.67C312.546 335.74 310.511 336.557 308.948 337.996C307.386 339.435 306.405 341.397 306.19 343.51L298.33 434Z" fill="#A2DFF9" stroke="#0080B9" stroke-linecap="round" stroke-linejoin="round"/>
<path d="M367.27 382C367.504 379.69 368.577 377.547 370.286 375.975C371.994 374.403 374.219 373.512 376.54 373.47C377.632 373.451 378.717 373.664 379.72 374.096C380.724 374.529 381.624 375.169 382.361 375.976C383.098 376.783 383.654 377.738 383.994 378.776C384.333 379.815 384.448 380.914 384.33 382C384.096 384.309 383.023 386.453 381.314 388.025C379.606 389.597 377.381 390.488 375.06 390.53C373.967 390.549 372.883 390.336 371.88 389.903C370.876 389.471 369.976 388.83 369.239 388.024C368.502 387.217 367.946 386.262 367.606 385.224C367.267 384.185 367.152 383.086 367.27 382Z" fill="#0080B9"/>
<path d="M541.03 440.01H72.42" stroke="#0080B9" stroke-miterlimit="10"/>
</svg>
