<svg width="49" height="47" viewBox="0 0 49 47" fill="none" xmlns="http://www.w3.org/2000/svg">
<path d="M13.5703 14.6224L25.476 21.5577L19.2342 27.5684L13.5703 26.8748L11.7209 28.8398L15.4197 31.1516C9.87144 37.3934 6.28819 37.6246 5.47906 38.3182C4.66994 39.0117 -8.27605 19.2459 8.71556 5.72201C22.3088 -5.09713 35.3396 2.3314 40.0402 7.34026C39.3929 7.15532 34.4149 12.3106 32.0646 14.8536L16.9224 11.6171L13.5703 14.6224Z" fill="#E9F8FE"/>
<path d="M18.6562 34.9661C11.7209 40.6993 3.74522 44.5985 0.624312 45.8314C7.00483 46.5712 12.2988 45.5232 14.1482 44.9067C19.5617 48.0276 33.1049 48.6056 41.7741 37.0467C48.7094 27.7995 45.8967 17.2424 43.6235 13.1197C48.9868 7.01661 49.0947 3.94965 48.4782 3.17905C44.8718 1.51457 36.0331 10.2685 32.0646 14.8536L37.6128 15.8939L37.3817 34.0414L34.6075 37.0467L29.7528 25.7189L22.3551 32.1919V36.6999L20.1589 38.6649L18.6562 34.9661Z" fill="#A2DFF9"/>
</svg>
