<svg width="190" height="47" viewBox="0 0 190 47" fill="none" xmlns="http://www.w3.org/2000/svg">
<path d="M57.5098 36.4537V9.26714H67.6076C69.5236 9.26714 71.2196 9.65552 72.6954 10.4323C74.1713 11.1831 75.3234 12.2447 76.152 13.617C76.9805 14.9634 77.3948 16.5298 77.3948 18.3164C77.3948 20.077 76.9935 21.6435 76.1908 23.0158C75.3882 24.3881 74.2878 25.4755 72.8896 26.2782C71.4914 27.0549 69.8732 27.4433 68.0349 27.4433H62.8306V36.4537H57.5098ZM62.8306 22.5497H67.9183C69.1094 22.5497 70.0803 22.1613 70.8312 21.3846C71.6079 20.5819 71.9963 19.5592 71.9963 18.3164C71.9963 17.0736 71.5691 16.0638 70.7147 15.287C69.8861 14.5103 68.8116 14.1219 67.4911 14.1219H62.8306V22.5497Z" fill="#A2DFF9"/>
<path d="M80.4839 36.4537V17.0347H85.6105V36.4537H80.4839ZM83.0472 13.8889C82.2705 13.8889 81.5843 13.604 80.9888 13.0344C80.3933 12.4389 80.0956 11.7398 80.0956 10.9372C80.0956 10.1345 80.3933 9.44839 80.9888 8.87876C81.5843 8.28325 82.2705 7.98549 83.0472 7.98549C83.8499 7.98549 84.536 8.28325 85.1057 8.87876C85.7012 9.44839 85.9989 10.1345 85.9989 10.9372C85.9989 11.7398 85.7012 12.4389 85.1057 13.0344C84.536 13.604 83.8499 13.8889 83.0472 13.8889Z" fill="#A2DFF9"/>
<path d="M90.3379 36.4537V9.26714H95.4645V36.4537H90.3379Z" fill="#A2DFF9"/>
<path d="M109.023 36.9198C107.055 36.9198 105.294 36.4925 103.741 35.6381C102.213 34.7578 101.009 33.5538 100.129 32.0262C99.2742 30.4986 98.847 28.7379 98.847 26.7442C98.847 24.7505 99.2742 22.9899 100.129 21.4623C100.983 19.9346 102.174 18.7436 103.702 17.8892C105.229 17.0088 106.977 16.5687 108.945 16.5687C110.939 16.5687 112.699 17.0088 114.227 17.8892C115.754 18.7436 116.945 19.9346 117.8 21.4623C118.654 22.9899 119.082 24.7505 119.082 26.7442C119.082 28.7379 118.654 30.4986 117.8 32.0262C116.945 33.5538 115.754 34.7578 114.227 35.6381C112.725 36.4925 110.99 36.9198 109.023 36.9198ZM109.023 32.1815C109.981 32.1815 110.822 31.9485 111.547 31.4825C112.272 31.0164 112.829 30.382 113.217 29.5794C113.631 28.7509 113.838 27.8058 113.838 26.7442C113.838 25.6827 113.631 24.7505 113.217 23.9479C112.803 23.1193 112.22 22.472 111.469 22.006C110.744 21.5399 109.903 21.3069 108.945 21.3069C108.013 21.3069 107.171 21.5399 106.42 22.006C105.695 22.472 105.126 23.1193 104.712 23.9479C104.297 24.7505 104.09 25.6827 104.09 26.7442C104.09 27.8058 104.297 28.7509 104.712 29.5794C105.126 30.382 105.708 31.0164 106.459 31.4825C107.21 31.9485 108.065 32.1815 109.023 32.1815Z" fill="#A2DFF9"/>
<path d="M130.463 36.9198C128.314 36.9198 126.683 36.389 125.57 35.3274C124.482 34.2658 123.938 32.7512 123.938 30.7834V10.976H129.065V29.6571C129.065 30.4856 129.246 31.12 129.609 31.5601C129.971 31.9744 130.502 32.1815 131.201 32.1815C131.46 32.1815 131.745 32.1298 132.056 32.0262C132.366 31.8967 132.69 31.7155 133.027 31.4825L134.813 35.3274C134.192 35.7935 133.493 36.1689 132.716 36.4537C131.965 36.7644 131.214 36.9198 130.463 36.9198ZM120.793 21.3846V17.0347H133.92V21.3846H120.793Z" fill="#A2DFF9"/>
<path d="M150.828 36.9198C148.187 36.9198 145.843 36.3243 143.798 35.1332C141.753 33.9163 140.147 32.2592 138.982 30.162C137.817 28.0388 137.234 25.605 137.234 22.8604C137.234 20.1159 137.817 17.695 138.982 15.5977C140.147 13.4746 141.74 11.8175 143.759 10.6265C145.805 9.40955 148.148 8.80109 150.789 8.80109C152.653 8.80109 154.388 9.13768 155.993 9.81087C157.598 10.4582 158.997 11.3773 160.188 12.5684C161.405 13.7335 162.337 15.0799 162.984 16.6075L158.052 18.4329C157.611 17.4749 157.029 16.6464 156.304 15.9473C155.579 15.2223 154.75 14.6656 153.818 14.2772C152.886 13.863 151.876 13.6558 150.789 13.6558C149.209 13.6558 147.798 14.0572 146.555 14.8598C145.339 15.6366 144.381 16.7111 143.681 18.0834C143.008 19.4556 142.672 21.048 142.672 22.8604C142.672 24.6729 143.021 26.2782 143.72 27.6763C144.419 29.0486 145.39 30.1361 146.633 30.9387C147.876 31.7155 149.3 32.1039 150.905 32.1039C152.019 32.1039 153.028 31.8967 153.935 31.4825C154.867 31.0423 155.682 30.4468 156.381 29.6959C157.106 28.945 157.689 28.0777 158.129 27.0938L163.062 28.8803C162.414 30.4597 161.482 31.8579 160.265 33.0748C159.074 34.2917 157.676 35.2368 156.071 35.91C154.465 36.5832 152.718 36.9198 150.828 36.9198Z" fill="white"/>
<path d="M164.406 36.4537L174.931 21.5788L183.475 9.26714H189.806L179.514 23.4042L170.814 36.4537H164.406ZM183.592 36.4537L174.892 23.4042L164.6 9.26714H170.931L179.475 21.5399L190 36.4537H183.592Z" fill="white"/>
<path d="M13.5703 14.6224L25.476 21.5577L19.2342 27.5684L13.5703 26.8748L11.7209 28.8398L15.4197 31.1516C9.87144 37.3934 6.28819 37.6246 5.47906 38.3182C4.66994 39.0117 -8.27605 19.2459 8.71556 5.72201C22.3088 -5.09713 35.3396 2.3314 40.0402 7.34026C39.3929 7.15532 34.4149 12.3106 32.0646 14.8536L16.9224 11.6171L13.5703 14.6224Z" fill="#E9F8FE"/>
<path d="M18.6562 34.9661C11.7209 40.6993 3.74522 44.5985 0.624312 45.8314C7.00483 46.5712 12.2988 45.5232 14.1482 44.9067C19.5617 48.0276 33.1049 48.6056 41.7741 37.0467C48.7094 27.7995 45.8967 17.2424 43.6235 13.1197C48.9868 7.01661 49.0947 3.94965 48.4782 3.17905C44.8718 1.51457 36.0331 10.2685 32.0646 14.8536L37.6128 15.8939L37.3817 34.0414L34.6075 37.0467L29.7528 25.7189L22.3551 32.1919V36.6999L20.1589 38.6649L18.6562 34.9661Z" fill="#A2DFF9"/>
</svg>
