<svg width="822" height="202" viewBox="0 0 822 202" fill="none" xmlns="http://www.w3.org/2000/svg">
<path d="M248.768 157V39.4H292.448C300.736 39.4 308.072 41.08 314.456 44.44C320.84 47.688 325.824 52.28 329.408 58.216C332.992 64.04 334.784 70.816 334.784 78.544C334.784 86.16 333.048 92.936 329.576 98.872C326.104 104.808 321.344 109.512 315.296 112.984C309.248 116.344 302.248 118.024 294.296 118.024H271.784V157H248.768ZM271.784 96.856H293.792C298.944 96.856 303.144 95.176 306.392 91.816C309.752 88.344 311.432 83.92 311.432 78.544C311.432 73.168 309.584 68.8 305.888 65.44C302.304 62.08 297.656 60.4 291.944 60.4H271.784V96.856Z" fill="#162442"/>
<path d="M348.147 157V73H370.323V157H348.147ZM359.235 59.392C355.875 59.392 352.907 58.16 350.331 55.696C347.755 53.12 346.467 50.096 346.467 46.624C346.467 43.152 347.755 40.184 350.331 37.72C352.907 35.144 355.875 33.856 359.235 33.856C362.707 33.856 365.675 35.144 368.139 37.72C370.715 40.184 372.003 43.152 372.003 46.624C372.003 50.096 370.715 53.12 368.139 55.696C365.675 58.16 362.707 59.392 359.235 59.392Z" fill="#162442"/>
<path d="M390.771 157V39.4H412.947V157H390.771Z" fill="#162442"/>
<path d="M471.595 159.016C463.083 159.016 455.467 157.168 448.747 153.472C442.139 149.664 436.931 144.456 433.123 137.848C429.427 131.24 427.579 123.624 427.579 115C427.579 106.376 429.427 98.76 433.123 92.152C436.819 85.544 441.971 80.392 448.579 76.696C455.187 72.888 462.747 70.984 471.259 70.984C479.883 70.984 487.499 72.888 494.107 76.696C500.715 80.392 505.867 85.544 509.563 92.152C513.259 98.76 515.107 106.376 515.107 115C515.107 123.624 513.259 131.24 509.563 137.848C505.867 144.456 500.715 149.664 494.107 153.472C487.611 157.168 480.107 159.016 471.595 159.016ZM471.595 138.52C475.739 138.52 479.379 137.512 482.515 135.496C485.651 133.48 488.059 130.736 489.739 127.264C491.531 123.68 492.427 119.592 492.427 115C492.427 110.408 491.531 106.376 489.739 102.904C487.947 99.32 485.427 96.52 482.179 94.504C479.043 92.488 475.403 91.48 471.259 91.48C467.227 91.48 463.587 92.488 460.339 94.504C457.203 96.52 454.739 99.32 452.947 102.904C451.155 106.376 450.259 110.408 450.259 115C450.259 119.592 451.155 123.68 452.947 127.264C454.739 130.736 457.259 133.48 460.507 135.496C463.755 137.512 467.451 138.52 471.595 138.52Z" fill="#162442"/>
<path d="M564.34 159.016C555.044 159.016 547.988 156.72 543.172 152.128C538.468 147.536 536.116 140.984 536.116 132.472V46.792H558.292V127.6C558.292 131.184 559.076 133.928 560.644 135.832C562.212 137.624 564.508 138.52 567.532 138.52C568.652 138.52 569.884 138.296 571.228 137.848C572.572 137.288 573.972 136.504 575.428 135.496L583.156 152.128C580.468 154.144 577.444 155.768 574.084 157C570.836 158.344 567.588 159.016 564.34 159.016ZM522.508 91.816V73H579.292V91.816H522.508Z" fill="#162442"/>
<path d="M652.43 159.016C641.006 159.016 630.87 156.44 622.022 151.288C613.174 146.024 606.23 138.856 601.19 129.784C596.15 120.6 593.63 110.072 593.63 98.2C593.63 86.328 596.15 75.856 601.19 66.784C606.23 57.6 613.118 50.432 621.854 45.28C630.702 40.016 640.838 37.384 652.262 37.384C660.326 37.384 667.83 38.84 674.774 41.752C681.718 44.552 687.766 48.528 692.918 53.68C698.182 58.72 702.214 64.544 705.014 71.152L683.678 79.048C681.774 74.904 679.254 71.32 676.118 68.296C672.982 65.16 669.398 62.752 665.366 61.072C661.334 59.28 656.966 58.384 652.262 58.384C645.43 58.384 639.326 60.12 633.95 63.592C628.686 66.952 624.542 71.6 621.518 77.536C618.606 83.472 617.15 90.36 617.15 98.2C617.15 106.04 618.662 112.984 621.686 119.032C624.71 124.968 628.91 129.672 634.286 133.144C639.662 136.504 645.822 138.184 652.766 138.184C657.582 138.184 661.95 137.288 665.87 135.496C669.902 133.592 673.43 131.016 676.454 127.768C679.59 124.52 682.11 120.768 684.014 116.512L705.35 124.24C702.55 131.072 698.518 137.12 693.254 142.384C688.102 147.648 682.054 151.736 675.11 154.648C668.166 157.56 660.606 159.016 652.43 159.016Z" fill="#27B4F2"/>
<path d="M711.164 157L756.692 92.656L793.652 39.4H821.036L776.516 100.552L738.884 157H711.164ZM794.156 157L756.524 100.552L712.004 39.4H739.388L776.348 92.488L821.876 157H794.156Z" fill="#27B4F2"/>
<path d="M58.7006 62.5649L110.201 92.5649L83.2006 118.565L58.7006 115.565L50.7006 124.065L66.7006 134.065C42.7006 161.065 27.2006 162.065 23.7006 165.065C20.2006 168.065 -35.7994 82.5649 37.7006 24.0649C96.5006 -22.7351 152.867 9.39828 173.201 31.0649C170.401 30.2649 148.867 52.5649 138.701 63.5649L73.2006 49.5649L58.7006 62.5649Z" fill="#27B4F2"/>
<path d="M80.7006 150.565C50.7006 175.365 16.2006 192.232 2.70056 197.565C30.3006 200.765 53.2006 196.232 61.2006 193.565C84.6176 207.065 143.201 209.565 180.701 159.565C210.701 119.565 198.534 73.8983 188.701 56.0649C211.901 29.6649 212.367 16.3983 209.701 13.0649C194.101 5.86493 155.867 43.7316 138.701 63.5649L162.701 68.0649L161.701 146.565L149.701 159.565L128.701 110.565L96.7006 138.565V158.065L87.2006 166.565L80.7006 150.565Z" fill="#2F86C7"/>
</svg>
